%TF.GenerationSoftware,KiCad,Pcbnew,(5.1.9)-1*%
%TF.CreationDate,2021-02-07T19:09:25-06:00*%
%TF.ProjectId,nrg-control-box,6e72672d-636f-46e7-9472-6f6c2d626f78,B*%
%TF.SameCoordinates,Original*%
%TF.FileFunction,Soldermask,Bot*%
%TF.FilePolarity,Negative*%
%FSLAX46Y46*%
G04 Gerber Fmt 4.6, Leading zero omitted, Abs format (unit mm)*
G04 Created by KiCad (PCBNEW (5.1.9)-1) date 2021-02-07 19:09:25*
%MOMM*%
%LPD*%
G01*
G04 APERTURE LIST*
%ADD10C,2.600000*%
%ADD11C,2.100000*%
%ADD12C,2.350000*%
%ADD13O,1.100000X1.100000*%
%ADD14O,1.800000X1.800000*%
G04 APERTURE END LIST*
D10*
%TO.C,REF\u002A\u002A*%
X158000000Y-122500000D03*
%TD*%
%TO.C,REF\u002A\u002A*%
X158000000Y-94000000D03*
%TD*%
%TO.C,REF\u002A\u002A*%
X127500000Y-94000000D03*
%TD*%
%TO.C,REF\u002A\u002A*%
X127500000Y-122500000D03*
%TD*%
%TO.C,C1*%
G36*
G01*
X149228262Y-97625000D02*
X148271738Y-97625000D01*
G75*
G02*
X148000000Y-97353262I0J271738D01*
G01*
X148000000Y-96646738D01*
G75*
G02*
X148271738Y-96375000I271738J0D01*
G01*
X149228262Y-96375000D01*
G75*
G02*
X149500000Y-96646738I0J-271738D01*
G01*
X149500000Y-97353262D01*
G75*
G02*
X149228262Y-97625000I-271738J0D01*
G01*
G37*
G36*
G01*
X149228262Y-99675000D02*
X148271738Y-99675000D01*
G75*
G02*
X148000000Y-99403262I0J271738D01*
G01*
X148000000Y-98696738D01*
G75*
G02*
X148271738Y-98425000I271738J0D01*
G01*
X149228262Y-98425000D01*
G75*
G02*
X149500000Y-98696738I0J-271738D01*
G01*
X149500000Y-99403262D01*
G75*
G02*
X149228262Y-99675000I-271738J0D01*
G01*
G37*
%TD*%
%TO.C,C2*%
G36*
G01*
X145021738Y-106350000D02*
X145978262Y-106350000D01*
G75*
G02*
X146250000Y-106621738I0J-271738D01*
G01*
X146250000Y-107328262D01*
G75*
G02*
X145978262Y-107600000I-271738J0D01*
G01*
X145021738Y-107600000D01*
G75*
G02*
X144750000Y-107328262I0J271738D01*
G01*
X144750000Y-106621738D01*
G75*
G02*
X145021738Y-106350000I271738J0D01*
G01*
G37*
G36*
G01*
X145021738Y-108400000D02*
X145978262Y-108400000D01*
G75*
G02*
X146250000Y-108671738I0J-271738D01*
G01*
X146250000Y-109378262D01*
G75*
G02*
X145978262Y-109650000I-271738J0D01*
G01*
X145021738Y-109650000D01*
G75*
G02*
X144750000Y-109378262I0J271738D01*
G01*
X144750000Y-108671738D01*
G75*
G02*
X145021738Y-108400000I271738J0D01*
G01*
G37*
%TD*%
%TO.C,C3*%
G36*
G01*
X143228262Y-109675000D02*
X142271738Y-109675000D01*
G75*
G02*
X142000000Y-109403262I0J271738D01*
G01*
X142000000Y-108696738D01*
G75*
G02*
X142271738Y-108425000I271738J0D01*
G01*
X143228262Y-108425000D01*
G75*
G02*
X143500000Y-108696738I0J-271738D01*
G01*
X143500000Y-109403262D01*
G75*
G02*
X143228262Y-109675000I-271738J0D01*
G01*
G37*
G36*
G01*
X143228262Y-107625000D02*
X142271738Y-107625000D01*
G75*
G02*
X142000000Y-107353262I0J271738D01*
G01*
X142000000Y-106646738D01*
G75*
G02*
X142271738Y-106375000I271738J0D01*
G01*
X143228262Y-106375000D01*
G75*
G02*
X143500000Y-106646738I0J-271738D01*
G01*
X143500000Y-107353262D01*
G75*
G02*
X143228262Y-107625000I-271738J0D01*
G01*
G37*
%TD*%
%TO.C,C4*%
G36*
G01*
X139521738Y-108425000D02*
X140478262Y-108425000D01*
G75*
G02*
X140750000Y-108696738I0J-271738D01*
G01*
X140750000Y-109403262D01*
G75*
G02*
X140478262Y-109675000I-271738J0D01*
G01*
X139521738Y-109675000D01*
G75*
G02*
X139250000Y-109403262I0J271738D01*
G01*
X139250000Y-108696738D01*
G75*
G02*
X139521738Y-108425000I271738J0D01*
G01*
G37*
G36*
G01*
X139521738Y-106375000D02*
X140478262Y-106375000D01*
G75*
G02*
X140750000Y-106646738I0J-271738D01*
G01*
X140750000Y-107353262D01*
G75*
G02*
X140478262Y-107625000I-271738J0D01*
G01*
X139521738Y-107625000D01*
G75*
G02*
X139250000Y-107353262I0J271738D01*
G01*
X139250000Y-106646738D01*
G75*
G02*
X139521738Y-106375000I271738J0D01*
G01*
G37*
%TD*%
%TO.C,D2*%
G36*
G01*
X151750000Y-99800000D02*
X150750000Y-99800000D01*
G75*
G02*
X150700000Y-99750000I0J50000D01*
G01*
X150700000Y-98750000D01*
G75*
G02*
X150750000Y-98700000I50000J0D01*
G01*
X151750000Y-98700000D01*
G75*
G02*
X151800000Y-98750000I0J-50000D01*
G01*
X151800000Y-99750000D01*
G75*
G02*
X151750000Y-99800000I-50000J0D01*
G01*
G37*
G36*
G01*
X151750000Y-97300000D02*
X150750000Y-97300000D01*
G75*
G02*
X150700000Y-97250000I0J50000D01*
G01*
X150700000Y-96250000D01*
G75*
G02*
X150750000Y-96200000I50000J0D01*
G01*
X151750000Y-96200000D01*
G75*
G02*
X151800000Y-96250000I0J-50000D01*
G01*
X151800000Y-97250000D01*
G75*
G02*
X151750000Y-97300000I-50000J0D01*
G01*
G37*
%TD*%
D11*
%TO.C,J2*%
X156250000Y-101250000D03*
D12*
X158775000Y-98725000D03*
X153725000Y-98725000D03*
X153725000Y-103775000D03*
X158775000Y-103775000D03*
%TD*%
%TO.C,J3*%
G36*
G01*
X146500000Y-122450000D02*
X147500000Y-122450000D01*
G75*
G02*
X147550000Y-122500000I0J-50000D01*
G01*
X147550000Y-123500000D01*
G75*
G02*
X147500000Y-123550000I-50000J0D01*
G01*
X146500000Y-123550000D01*
G75*
G02*
X146450000Y-123500000I0J50000D01*
G01*
X146450000Y-122500000D01*
G75*
G02*
X146500000Y-122450000I50000J0D01*
G01*
G37*
D13*
X145730000Y-123000000D03*
X144460000Y-123000000D03*
X143190000Y-123000000D03*
X141920000Y-123000000D03*
X140650000Y-123000000D03*
%TD*%
%TO.C,R3*%
G36*
G01*
X148125000Y-101728262D02*
X148125000Y-100771738D01*
G75*
G02*
X148396738Y-100500000I271738J0D01*
G01*
X149103262Y-100500000D01*
G75*
G02*
X149375000Y-100771738I0J-271738D01*
G01*
X149375000Y-101728262D01*
G75*
G02*
X149103262Y-102000000I-271738J0D01*
G01*
X148396738Y-102000000D01*
G75*
G02*
X148125000Y-101728262I0J271738D01*
G01*
G37*
G36*
G01*
X150175000Y-101728262D02*
X150175000Y-100771738D01*
G75*
G02*
X150446738Y-100500000I271738J0D01*
G01*
X151153262Y-100500000D01*
G75*
G02*
X151425000Y-100771738I0J-271738D01*
G01*
X151425000Y-101728262D01*
G75*
G02*
X151153262Y-102000000I-271738J0D01*
G01*
X150446738Y-102000000D01*
G75*
G02*
X150175000Y-101728262I0J271738D01*
G01*
G37*
%TD*%
%TO.C,R4*%
G36*
G01*
X144125000Y-101728262D02*
X144125000Y-100771738D01*
G75*
G02*
X144396738Y-100500000I271738J0D01*
G01*
X145103262Y-100500000D01*
G75*
G02*
X145375000Y-100771738I0J-271738D01*
G01*
X145375000Y-101728262D01*
G75*
G02*
X145103262Y-102000000I-271738J0D01*
G01*
X144396738Y-102000000D01*
G75*
G02*
X144125000Y-101728262I0J271738D01*
G01*
G37*
G36*
G01*
X146175000Y-101728262D02*
X146175000Y-100771738D01*
G75*
G02*
X146446738Y-100500000I271738J0D01*
G01*
X147153262Y-100500000D01*
G75*
G02*
X147425000Y-100771738I0J-271738D01*
G01*
X147425000Y-101728262D01*
G75*
G02*
X147153262Y-102000000I-271738J0D01*
G01*
X146446738Y-102000000D01*
G75*
G02*
X146175000Y-101728262I0J271738D01*
G01*
G37*
%TD*%
%TO.C,R5*%
G36*
G01*
X150875000Y-94478262D02*
X150875000Y-93521738D01*
G75*
G02*
X151146738Y-93250000I271738J0D01*
G01*
X151853262Y-93250000D01*
G75*
G02*
X152125000Y-93521738I0J-271738D01*
G01*
X152125000Y-94478262D01*
G75*
G02*
X151853262Y-94750000I-271738J0D01*
G01*
X151146738Y-94750000D01*
G75*
G02*
X150875000Y-94478262I0J271738D01*
G01*
G37*
G36*
G01*
X148825000Y-94478262D02*
X148825000Y-93521738D01*
G75*
G02*
X149096738Y-93250000I271738J0D01*
G01*
X149803262Y-93250000D01*
G75*
G02*
X150075000Y-93521738I0J-271738D01*
G01*
X150075000Y-94478262D01*
G75*
G02*
X149803262Y-94750000I-271738J0D01*
G01*
X149096738Y-94750000D01*
G75*
G02*
X148825000Y-94478262I0J271738D01*
G01*
G37*
%TD*%
%TO.C,U1*%
G36*
G01*
X147025000Y-97480000D02*
X146375000Y-97480000D01*
G75*
G02*
X146325000Y-97430000I0J50000D01*
G01*
X146325000Y-96370000D01*
G75*
G02*
X146375000Y-96320000I50000J0D01*
G01*
X147025000Y-96320000D01*
G75*
G02*
X147075000Y-96370000I0J-50000D01*
G01*
X147075000Y-97430000D01*
G75*
G02*
X147025000Y-97480000I-50000J0D01*
G01*
G37*
G36*
G01*
X145125000Y-97480000D02*
X144475000Y-97480000D01*
G75*
G02*
X144425000Y-97430000I0J50000D01*
G01*
X144425000Y-96370000D01*
G75*
G02*
X144475000Y-96320000I50000J0D01*
G01*
X145125000Y-96320000D01*
G75*
G02*
X145175000Y-96370000I0J-50000D01*
G01*
X145175000Y-97430000D01*
G75*
G02*
X145125000Y-97480000I-50000J0D01*
G01*
G37*
G36*
G01*
X145125000Y-99680000D02*
X144475000Y-99680000D01*
G75*
G02*
X144425000Y-99630000I0J50000D01*
G01*
X144425000Y-98570000D01*
G75*
G02*
X144475000Y-98520000I50000J0D01*
G01*
X145125000Y-98520000D01*
G75*
G02*
X145175000Y-98570000I0J-50000D01*
G01*
X145175000Y-99630000D01*
G75*
G02*
X145125000Y-99680000I-50000J0D01*
G01*
G37*
G36*
G01*
X146075000Y-99680000D02*
X145425000Y-99680000D01*
G75*
G02*
X145375000Y-99630000I0J50000D01*
G01*
X145375000Y-98570000D01*
G75*
G02*
X145425000Y-98520000I50000J0D01*
G01*
X146075000Y-98520000D01*
G75*
G02*
X146125000Y-98570000I0J-50000D01*
G01*
X146125000Y-99630000D01*
G75*
G02*
X146075000Y-99680000I-50000J0D01*
G01*
G37*
G36*
G01*
X147025000Y-99680000D02*
X146375000Y-99680000D01*
G75*
G02*
X146325000Y-99630000I0J50000D01*
G01*
X146325000Y-98570000D01*
G75*
G02*
X146375000Y-98520000I50000J0D01*
G01*
X147025000Y-98520000D01*
G75*
G02*
X147075000Y-98570000I0J-50000D01*
G01*
X147075000Y-99630000D01*
G75*
G02*
X147025000Y-99680000I-50000J0D01*
G01*
G37*
%TD*%
%TO.C,U2*%
G36*
G01*
X143180000Y-96675000D02*
X143180000Y-97325000D01*
G75*
G02*
X143130000Y-97375000I-50000J0D01*
G01*
X142070000Y-97375000D01*
G75*
G02*
X142020000Y-97325000I0J50000D01*
G01*
X142020000Y-96675000D01*
G75*
G02*
X142070000Y-96625000I50000J0D01*
G01*
X143130000Y-96625000D01*
G75*
G02*
X143180000Y-96675000I0J-50000D01*
G01*
G37*
G36*
G01*
X143180000Y-97625000D02*
X143180000Y-98275000D01*
G75*
G02*
X143130000Y-98325000I-50000J0D01*
G01*
X142070000Y-98325000D01*
G75*
G02*
X142020000Y-98275000I0J50000D01*
G01*
X142020000Y-97625000D01*
G75*
G02*
X142070000Y-97575000I50000J0D01*
G01*
X143130000Y-97575000D01*
G75*
G02*
X143180000Y-97625000I0J-50000D01*
G01*
G37*
G36*
G01*
X143180000Y-98575000D02*
X143180000Y-99225000D01*
G75*
G02*
X143130000Y-99275000I-50000J0D01*
G01*
X142070000Y-99275000D01*
G75*
G02*
X142020000Y-99225000I0J50000D01*
G01*
X142020000Y-98575000D01*
G75*
G02*
X142070000Y-98525000I50000J0D01*
G01*
X143130000Y-98525000D01*
G75*
G02*
X143180000Y-98575000I0J-50000D01*
G01*
G37*
G36*
G01*
X140980000Y-98575000D02*
X140980000Y-99225000D01*
G75*
G02*
X140930000Y-99275000I-50000J0D01*
G01*
X139870000Y-99275000D01*
G75*
G02*
X139820000Y-99225000I0J50000D01*
G01*
X139820000Y-98575000D01*
G75*
G02*
X139870000Y-98525000I50000J0D01*
G01*
X140930000Y-98525000D01*
G75*
G02*
X140980000Y-98575000I0J-50000D01*
G01*
G37*
G36*
G01*
X140980000Y-96675000D02*
X140980000Y-97325000D01*
G75*
G02*
X140930000Y-97375000I-50000J0D01*
G01*
X139870000Y-97375000D01*
G75*
G02*
X139820000Y-97325000I0J50000D01*
G01*
X139820000Y-96675000D01*
G75*
G02*
X139870000Y-96625000I50000J0D01*
G01*
X140930000Y-96625000D01*
G75*
G02*
X140980000Y-96675000I0J-50000D01*
G01*
G37*
%TD*%
%TO.C,J1*%
G36*
G01*
X139750000Y-94600000D02*
X138050000Y-94600000D01*
G75*
G02*
X138000000Y-94550000I0J50000D01*
G01*
X138000000Y-92850000D01*
G75*
G02*
X138050000Y-92800000I50000J0D01*
G01*
X139750000Y-92800000D01*
G75*
G02*
X139800000Y-92850000I0J-50000D01*
G01*
X139800000Y-94550000D01*
G75*
G02*
X139750000Y-94600000I-50000J0D01*
G01*
G37*
D14*
X141440000Y-93700000D03*
X143980000Y-93700000D03*
X146520000Y-93700000D03*
%TD*%
%TO.C,TP1*%
G36*
G01*
X150250000Y-104900000D02*
X150250000Y-103900000D01*
G75*
G02*
X150300000Y-103850000I50000J0D01*
G01*
X151300000Y-103850000D01*
G75*
G02*
X151350000Y-103900000I0J-50000D01*
G01*
X151350000Y-104900000D01*
G75*
G02*
X151300000Y-104950000I-50000J0D01*
G01*
X150300000Y-104950000D01*
G75*
G02*
X150250000Y-104900000I0J50000D01*
G01*
G37*
%TD*%
%TO.C,TP2*%
G36*
G01*
X140050000Y-101900000D02*
X140050000Y-100900000D01*
G75*
G02*
X140100000Y-100850000I50000J0D01*
G01*
X141100000Y-100850000D01*
G75*
G02*
X141150000Y-100900000I0J-50000D01*
G01*
X141150000Y-101900000D01*
G75*
G02*
X141100000Y-101950000I-50000J0D01*
G01*
X140100000Y-101950000D01*
G75*
G02*
X140050000Y-101900000I0J50000D01*
G01*
G37*
%TD*%
M02*
