%TF.GenerationSoftware,KiCad,Pcbnew,(5.1.6)-1*%
%TF.CreationDate,2020-08-28T19:49:53-05:00*%
%TF.ProjectId,nrg-control-box,6e72672d-636f-46e7-9472-6f6c2d626f78,rev?*%
%TF.SameCoordinates,Original*%
%TF.FileFunction,Copper,L1,Top*%
%TF.FilePolarity,Positive*%
%FSLAX46Y46*%
G04 Gerber Fmt 4.6, Leading zero omitted, Abs format (unit mm)*
G04 Created by KiCad (PCBNEW (5.1.6)-1) date 2020-08-28 19:49:53*
%MOMM*%
%LPD*%
G01*
G04 APERTURE LIST*
%TA.AperFunction,ComponentPad*%
%ADD10C,2.000000*%
%TD*%
%TA.AperFunction,ComponentPad*%
%ADD11C,2.250000*%
%TD*%
%TA.AperFunction,ComponentPad*%
%ADD12R,1.000000X1.000000*%
%TD*%
%TA.AperFunction,ComponentPad*%
%ADD13O,1.000000X1.000000*%
%TD*%
%TA.AperFunction,SMDPad,CuDef*%
%ADD14R,2.000000X0.400000*%
%TD*%
%TA.AperFunction,SMDPad,CuDef*%
%ADD15R,1.600000X2.100000*%
%TD*%
%TA.AperFunction,SMDPad,CuDef*%
%ADD16R,1.900000X1.800000*%
%TD*%
%TA.AperFunction,SMDPad,CuDef*%
%ADD17C,0.100000*%
%TD*%
%TA.AperFunction,SMDPad,CuDef*%
%ADD18R,1.370000X0.590000*%
%TD*%
%TA.AperFunction,ComponentPad*%
%ADD19R,1.700000X1.700000*%
%TD*%
%TA.AperFunction,ComponentPad*%
%ADD20O,1.700000X1.700000*%
%TD*%
%TA.AperFunction,SMDPad,CuDef*%
%ADD21R,1.000000X1.000000*%
%TD*%
%TA.AperFunction,ViaPad*%
%ADD22C,0.650000*%
%TD*%
%TA.AperFunction,ViaPad*%
%ADD23C,0.850000*%
%TD*%
%TA.AperFunction,Conductor*%
%ADD24C,0.400000*%
%TD*%
%TA.AperFunction,Conductor*%
%ADD25C,0.750000*%
%TD*%
%TA.AperFunction,Conductor*%
%ADD26C,0.500000*%
%TD*%
%TA.AperFunction,Conductor*%
%ADD27C,0.350000*%
%TD*%
G04 APERTURE END LIST*
%TO.P,C5,1*%
%TO.N,VBUS*%
%TA.AperFunction,SMDPad,CuDef*%
G36*
G01*
X133875000Y-101950001D02*
X133875000Y-101049999D01*
G75*
G02*
X134124999Y-100800000I249999J0D01*
G01*
X134775001Y-100800000D01*
G75*
G02*
X135025000Y-101049999I0J-249999D01*
G01*
X135025000Y-101950001D01*
G75*
G02*
X134775001Y-102200000I-249999J0D01*
G01*
X134124999Y-102200000D01*
G75*
G02*
X133875000Y-101950001I0J249999D01*
G01*
G37*
%TD.AperFunction*%
%TO.P,C5,2*%
%TO.N,GND*%
%TA.AperFunction,SMDPad,CuDef*%
G36*
G01*
X135925000Y-101950001D02*
X135925000Y-101049999D01*
G75*
G02*
X136174999Y-100800000I249999J0D01*
G01*
X136825001Y-100800000D01*
G75*
G02*
X137075000Y-101049999I0J-249999D01*
G01*
X137075000Y-101950001D01*
G75*
G02*
X136825001Y-102200000I-249999J0D01*
G01*
X136174999Y-102200000D01*
G75*
G02*
X135925000Y-101950001I0J249999D01*
G01*
G37*
%TD.AperFunction*%
%TD*%
%TO.P,C6,1*%
%TO.N,GND*%
%TA.AperFunction,SMDPad,CuDef*%
G36*
G01*
X154661612Y-116974785D02*
X154025215Y-116338388D01*
G75*
G02*
X154025215Y-115984836I176776J176776D01*
G01*
X154484836Y-115525215D01*
G75*
G02*
X154838388Y-115525215I176776J-176776D01*
G01*
X155474785Y-116161612D01*
G75*
G02*
X155474785Y-116515164I-176776J-176776D01*
G01*
X155015164Y-116974785D01*
G75*
G02*
X154661612Y-116974785I-176776J176776D01*
G01*
G37*
%TD.AperFunction*%
%TO.P,C6,2*%
%TO.N,Net-(C6-Pad2)*%
%TA.AperFunction,SMDPad,CuDef*%
G36*
G01*
X156111180Y-115525217D02*
X155474783Y-114888820D01*
G75*
G02*
X155474783Y-114535268I176776J176776D01*
G01*
X155934404Y-114075647D01*
G75*
G02*
X156287956Y-114075647I176776J-176776D01*
G01*
X156924353Y-114712044D01*
G75*
G02*
X156924353Y-115065596I-176776J-176776D01*
G01*
X156464732Y-115525217D01*
G75*
G02*
X156111180Y-115525217I-176776J176776D01*
G01*
G37*
%TD.AperFunction*%
%TD*%
%TO.P,C7,2*%
%TO.N,GND*%
%TA.AperFunction,SMDPad,CuDef*%
G36*
G01*
X151111180Y-120525217D02*
X150474783Y-119888820D01*
G75*
G02*
X150474783Y-119535268I176776J176776D01*
G01*
X150934404Y-119075647D01*
G75*
G02*
X151287956Y-119075647I176776J-176776D01*
G01*
X151924353Y-119712044D01*
G75*
G02*
X151924353Y-120065596I-176776J-176776D01*
G01*
X151464732Y-120525217D01*
G75*
G02*
X151111180Y-120525217I-176776J176776D01*
G01*
G37*
%TD.AperFunction*%
%TO.P,C7,1*%
%TO.N,Net-(C7-Pad1)*%
%TA.AperFunction,SMDPad,CuDef*%
G36*
G01*
X149661612Y-121974785D02*
X149025215Y-121338388D01*
G75*
G02*
X149025215Y-120984836I176776J176776D01*
G01*
X149484836Y-120525215D01*
G75*
G02*
X149838388Y-120525215I176776J-176776D01*
G01*
X150474785Y-121161612D01*
G75*
G02*
X150474785Y-121515164I-176776J-176776D01*
G01*
X150015164Y-121974785D01*
G75*
G02*
X149661612Y-121974785I-176776J176776D01*
G01*
G37*
%TD.AperFunction*%
%TD*%
%TO.P,C8,2*%
%TO.N,GND*%
%TA.AperFunction,SMDPad,CuDef*%
G36*
G01*
X134325000Y-94799999D02*
X134325000Y-95700001D01*
G75*
G02*
X134075001Y-95950000I-249999J0D01*
G01*
X133424999Y-95950000D01*
G75*
G02*
X133175000Y-95700001I0J249999D01*
G01*
X133175000Y-94799999D01*
G75*
G02*
X133424999Y-94550000I249999J0D01*
G01*
X134075001Y-94550000D01*
G75*
G02*
X134325000Y-94799999I0J-249999D01*
G01*
G37*
%TD.AperFunction*%
%TO.P,C8,1*%
%TO.N,+3V3*%
%TA.AperFunction,SMDPad,CuDef*%
G36*
G01*
X136375000Y-94799999D02*
X136375000Y-95700001D01*
G75*
G02*
X136125001Y-95950000I-249999J0D01*
G01*
X135474999Y-95950000D01*
G75*
G02*
X135225000Y-95700001I0J249999D01*
G01*
X135225000Y-94799999D01*
G75*
G02*
X135474999Y-94550000I249999J0D01*
G01*
X136125001Y-94550000D01*
G75*
G02*
X136375000Y-94799999I0J-249999D01*
G01*
G37*
%TD.AperFunction*%
%TD*%
%TO.P,F1,1*%
%TO.N,VBUS*%
%TA.AperFunction,SMDPad,CuDef*%
G36*
G01*
X131125000Y-100812500D02*
X132375000Y-100812500D01*
G75*
G02*
X132625000Y-101062500I0J-250000D01*
G01*
X132625000Y-101987500D01*
G75*
G02*
X132375000Y-102237500I-250000J0D01*
G01*
X131125000Y-102237500D01*
G75*
G02*
X130875000Y-101987500I0J250000D01*
G01*
X130875000Y-101062500D01*
G75*
G02*
X131125000Y-100812500I250000J0D01*
G01*
G37*
%TD.AperFunction*%
%TO.P,F1,2*%
%TO.N,Net-(F1-Pad2)*%
%TA.AperFunction,SMDPad,CuDef*%
G36*
G01*
X131125000Y-103787500D02*
X132375000Y-103787500D01*
G75*
G02*
X132625000Y-104037500I0J-250000D01*
G01*
X132625000Y-104962500D01*
G75*
G02*
X132375000Y-105212500I-250000J0D01*
G01*
X131125000Y-105212500D01*
G75*
G02*
X130875000Y-104962500I0J250000D01*
G01*
X130875000Y-104037500D01*
G75*
G02*
X131125000Y-103787500I250000J0D01*
G01*
G37*
%TD.AperFunction*%
%TD*%
D10*
%TO.P,J2,1*%
%TO.N,Net-(D1-Pad1)*%
X156250000Y-101250000D03*
D11*
%TO.P,J2,2*%
%TO.N,GND*%
X158775000Y-98725000D03*
X153725000Y-98725000D03*
X153725000Y-103775000D03*
X158775000Y-103775000D03*
%TD*%
D12*
%TO.P,J3,1*%
%TO.N,ISP_MISO*%
X147000000Y-123000000D03*
D13*
%TO.P,J3,2*%
%TO.N,+3V3*%
X145730000Y-123000000D03*
%TO.P,J3,3*%
%TO.N,ISP_SCK*%
X144460000Y-123000000D03*
%TO.P,J3,4*%
%TO.N,ISP_MOSI*%
X143190000Y-123000000D03*
%TO.P,J3,5*%
%TO.N,ISP_RST*%
X141920000Y-123000000D03*
%TO.P,J3,6*%
%TO.N,GND*%
X140650000Y-123000000D03*
%TD*%
D14*
%TO.P,J4,3*%
%TO.N,Net-(J4-Pad3)*%
X129500000Y-107500000D03*
%TO.P,J4,4*%
%TO.N,Net-(J4-Pad4)*%
X129500000Y-108150000D03*
%TO.P,J4,5*%
%TO.N,GND*%
X129500000Y-108800000D03*
%TO.P,J4,1*%
%TO.N,Net-(F1-Pad2)*%
X129500000Y-106200000D03*
%TO.P,J4,2*%
%TO.N,Net-(J4-Pad2)*%
X129500000Y-106850000D03*
D15*
%TO.P,J4,6*%
%TO.N,GND*%
X129050000Y-110600000D03*
X129050000Y-104400000D03*
D16*
X126500000Y-103700000D03*
X126500000Y-111300000D03*
%TD*%
%TO.P,R1,2*%
%TO.N,+3V3*%
%TA.AperFunction,SMDPad,CuDef*%
G36*
G01*
X145325000Y-96049999D02*
X145325000Y-96950001D01*
G75*
G02*
X145075001Y-97200000I-249999J0D01*
G01*
X144424999Y-97200000D01*
G75*
G02*
X144175000Y-96950001I0J249999D01*
G01*
X144175000Y-96049999D01*
G75*
G02*
X144424999Y-95800000I249999J0D01*
G01*
X145075001Y-95800000D01*
G75*
G02*
X145325000Y-96049999I0J-249999D01*
G01*
G37*
%TD.AperFunction*%
%TO.P,R1,1*%
%TO.N,MCU_SDA*%
%TA.AperFunction,SMDPad,CuDef*%
G36*
G01*
X147375000Y-96049999D02*
X147375000Y-96950001D01*
G75*
G02*
X147125001Y-97200000I-249999J0D01*
G01*
X146474999Y-97200000D01*
G75*
G02*
X146225000Y-96950001I0J249999D01*
G01*
X146225000Y-96049999D01*
G75*
G02*
X146474999Y-95800000I249999J0D01*
G01*
X147125001Y-95800000D01*
G75*
G02*
X147375000Y-96049999I0J-249999D01*
G01*
G37*
%TD.AperFunction*%
%TD*%
%TO.P,R2,2*%
%TO.N,MCU_SCL*%
%TA.AperFunction,SMDPad,CuDef*%
G36*
G01*
X142225000Y-96950001D02*
X142225000Y-96049999D01*
G75*
G02*
X142474999Y-95800000I249999J0D01*
G01*
X143125001Y-95800000D01*
G75*
G02*
X143375000Y-96049999I0J-249999D01*
G01*
X143375000Y-96950001D01*
G75*
G02*
X143125001Y-97200000I-249999J0D01*
G01*
X142474999Y-97200000D01*
G75*
G02*
X142225000Y-96950001I0J249999D01*
G01*
G37*
%TD.AperFunction*%
%TO.P,R2,1*%
%TO.N,+3V3*%
%TA.AperFunction,SMDPad,CuDef*%
G36*
G01*
X140175000Y-96950001D02*
X140175000Y-96049999D01*
G75*
G02*
X140424999Y-95800000I249999J0D01*
G01*
X141075001Y-95800000D01*
G75*
G02*
X141325000Y-96049999I0J-249999D01*
G01*
X141325000Y-96950001D01*
G75*
G02*
X141075001Y-97200000I-249999J0D01*
G01*
X140424999Y-97200000D01*
G75*
G02*
X140175000Y-96950001I0J249999D01*
G01*
G37*
%TD.AperFunction*%
%TD*%
%TO.P,R6,2*%
%TO.N,+3V3*%
%TA.AperFunction,SMDPad,CuDef*%
G36*
G01*
X130861180Y-117275217D02*
X130224783Y-116638820D01*
G75*
G02*
X130224783Y-116285268I176776J176776D01*
G01*
X130684404Y-115825647D01*
G75*
G02*
X131037956Y-115825647I176776J-176776D01*
G01*
X131674353Y-116462044D01*
G75*
G02*
X131674353Y-116815596I-176776J-176776D01*
G01*
X131214732Y-117275217D01*
G75*
G02*
X130861180Y-117275217I-176776J176776D01*
G01*
G37*
%TD.AperFunction*%
%TO.P,R6,1*%
%TO.N,ISP_RST*%
%TA.AperFunction,SMDPad,CuDef*%
G36*
G01*
X129411612Y-118724785D02*
X128775215Y-118088388D01*
G75*
G02*
X128775215Y-117734836I176776J176776D01*
G01*
X129234836Y-117275215D01*
G75*
G02*
X129588388Y-117275215I176776J-176776D01*
G01*
X130224785Y-117911612D01*
G75*
G02*
X130224785Y-118265164I-176776J-176776D01*
G01*
X129765164Y-118724785D01*
G75*
G02*
X129411612Y-118724785I-176776J176776D01*
G01*
G37*
%TD.AperFunction*%
%TD*%
%TO.P,R7,1*%
%TO.N,Net-(R7-Pad1)*%
%TA.AperFunction,SMDPad,CuDef*%
G36*
G01*
X134224785Y-113838388D02*
X133588388Y-114474785D01*
G75*
G02*
X133234836Y-114474785I-176776J176776D01*
G01*
X132775215Y-114015164D01*
G75*
G02*
X132775215Y-113661612I176776J176776D01*
G01*
X133411612Y-113025215D01*
G75*
G02*
X133765164Y-113025215I176776J-176776D01*
G01*
X134224785Y-113484836D01*
G75*
G02*
X134224785Y-113838388I-176776J-176776D01*
G01*
G37*
%TD.AperFunction*%
%TO.P,R7,2*%
%TO.N,Net-(J4-Pad3)*%
%TA.AperFunction,SMDPad,CuDef*%
G36*
G01*
X132775217Y-112388820D02*
X132138820Y-113025217D01*
G75*
G02*
X131785268Y-113025217I-176776J176776D01*
G01*
X131325647Y-112565596D01*
G75*
G02*
X131325647Y-112212044I176776J176776D01*
G01*
X131962044Y-111575647D01*
G75*
G02*
X132315596Y-111575647I176776J-176776D01*
G01*
X132775217Y-112035268D01*
G75*
G02*
X132775217Y-112388820I-176776J-176776D01*
G01*
G37*
%TD.AperFunction*%
%TD*%
%TO.P,R8,1*%
%TO.N,Net-(J4-Pad2)*%
%TA.AperFunction,SMDPad,CuDef*%
G36*
G01*
X133075647Y-110462044D02*
X133712044Y-109825647D01*
G75*
G02*
X134065596Y-109825647I176776J-176776D01*
G01*
X134525217Y-110285268D01*
G75*
G02*
X134525217Y-110638820I-176776J-176776D01*
G01*
X133888820Y-111275217D01*
G75*
G02*
X133535268Y-111275217I-176776J176776D01*
G01*
X133075647Y-110815596D01*
G75*
G02*
X133075647Y-110462044I176776J176776D01*
G01*
G37*
%TD.AperFunction*%
%TO.P,R8,2*%
%TO.N,Net-(R8-Pad2)*%
%TA.AperFunction,SMDPad,CuDef*%
G36*
G01*
X134525215Y-111911612D02*
X135161612Y-111275215D01*
G75*
G02*
X135515164Y-111275215I176776J-176776D01*
G01*
X135974785Y-111734836D01*
G75*
G02*
X135974785Y-112088388I-176776J-176776D01*
G01*
X135338388Y-112724785D01*
G75*
G02*
X134984836Y-112724785I-176776J176776D01*
G01*
X134525215Y-112265164D01*
G75*
G02*
X134525215Y-111911612I176776J176776D01*
G01*
G37*
%TD.AperFunction*%
%TD*%
%TA.AperFunction,SMDPad,CuDef*%
D17*
%TO.P,SW1,2*%
%TO.N,GND*%
G36*
X137561683Y-113337098D02*
G01*
X138480922Y-114256337D01*
X137384907Y-115352352D01*
X136465668Y-114433113D01*
X137561683Y-113337098D01*
G37*
%TD.AperFunction*%
%TA.AperFunction,SMDPad,CuDef*%
%TO.P,SW1,1*%
%TO.N,ISP_RST*%
G36*
X140743663Y-116519078D02*
G01*
X141662902Y-117438317D01*
X140566887Y-118534332D01*
X139647648Y-117615093D01*
X140743663Y-116519078D01*
G37*
%TD.AperFunction*%
%TA.AperFunction,SMDPad,CuDef*%
G36*
X135115093Y-122147648D02*
G01*
X136034332Y-123066887D01*
X134938317Y-124162902D01*
X134019078Y-123243663D01*
X135115093Y-122147648D01*
G37*
%TD.AperFunction*%
%TA.AperFunction,SMDPad,CuDef*%
%TO.P,SW1,2*%
%TO.N,GND*%
G36*
X131933113Y-118965668D02*
G01*
X132852352Y-119884907D01*
X131756337Y-120980922D01*
X130837098Y-120061683D01*
X131933113Y-118965668D01*
G37*
%TD.AperFunction*%
%TD*%
%TA.AperFunction,SMDPad,CuDef*%
%TO.P,U3,1*%
%TO.N,Net-(U3-Pad1)*%
G36*
X135555188Y-109926866D02*
G01*
X135166280Y-109537958D01*
X136226940Y-108477298D01*
X136615848Y-108866206D01*
X135555188Y-109926866D01*
G37*
%TD.AperFunction*%
%TA.AperFunction,SMDPad,CuDef*%
%TO.P,U3,2*%
%TO.N,Net-(U3-Pad2)*%
G36*
X136120874Y-110492551D02*
G01*
X135731966Y-110103643D01*
X136792626Y-109042983D01*
X137181534Y-109431891D01*
X136120874Y-110492551D01*
G37*
%TD.AperFunction*%
%TA.AperFunction,SMDPad,CuDef*%
%TO.P,U3,3*%
%TO.N,Net-(R8-Pad2)*%
G36*
X136686559Y-111058236D02*
G01*
X136297651Y-110669328D01*
X137358311Y-109608668D01*
X137747219Y-109997576D01*
X136686559Y-111058236D01*
G37*
%TD.AperFunction*%
%TA.AperFunction,SMDPad,CuDef*%
%TO.P,U3,4*%
%TO.N,Net-(R7-Pad1)*%
G36*
X137252244Y-111623922D02*
G01*
X136863336Y-111235014D01*
X137923996Y-110174354D01*
X138312904Y-110563262D01*
X137252244Y-111623922D01*
G37*
%TD.AperFunction*%
%TA.AperFunction,SMDPad,CuDef*%
%TO.P,U3,5*%
%TO.N,GND*%
G36*
X137817930Y-112189607D02*
G01*
X137429022Y-111800699D01*
X138489682Y-110740039D01*
X138878590Y-111128947D01*
X137817930Y-112189607D01*
G37*
%TD.AperFunction*%
%TA.AperFunction,SMDPad,CuDef*%
%TO.P,U3,6*%
%TO.N,+3V3*%
G36*
X138383615Y-112755293D02*
G01*
X137994707Y-112366385D01*
X139055367Y-111305725D01*
X139444275Y-111694633D01*
X138383615Y-112755293D01*
G37*
%TD.AperFunction*%
%TA.AperFunction,SMDPad,CuDef*%
%TO.P,U3,7*%
%TO.N,VBUS*%
G36*
X138949301Y-113320978D02*
G01*
X138560393Y-112932070D01*
X139621053Y-111871410D01*
X140009961Y-112260318D01*
X138949301Y-113320978D01*
G37*
%TD.AperFunction*%
%TA.AperFunction,SMDPad,CuDef*%
%TO.P,U3,8*%
%TO.N,Net-(U3-Pad8)*%
G36*
X139514986Y-113886664D02*
G01*
X139126078Y-113497756D01*
X140186738Y-112437096D01*
X140575646Y-112826004D01*
X139514986Y-113886664D01*
G37*
%TD.AperFunction*%
%TA.AperFunction,SMDPad,CuDef*%
%TO.P,U3,9*%
%TO.N,ISP_SCK*%
G36*
X140080672Y-114452349D02*
G01*
X139691764Y-114063441D01*
X140752424Y-113002781D01*
X141141332Y-113391689D01*
X140080672Y-114452349D01*
G37*
%TD.AperFunction*%
%TA.AperFunction,SMDPad,CuDef*%
%TO.P,U3,10*%
%TO.N,ISP_MOSI*%
G36*
X140646357Y-115018034D02*
G01*
X140257449Y-114629126D01*
X141318109Y-113568466D01*
X141707017Y-113957374D01*
X140646357Y-115018034D01*
G37*
%TD.AperFunction*%
%TA.AperFunction,SMDPad,CuDef*%
%TO.P,U3,11*%
%TO.N,ISP_MISO*%
G36*
X141212042Y-115583720D02*
G01*
X140823134Y-115194812D01*
X141883794Y-114134152D01*
X142272702Y-114523060D01*
X141212042Y-115583720D01*
G37*
%TD.AperFunction*%
%TA.AperFunction,SMDPad,CuDef*%
%TO.P,U3,12*%
%TO.N,Net-(U3-Pad12)*%
G36*
X144676866Y-115194812D02*
G01*
X144287958Y-115583720D01*
X143227298Y-114523060D01*
X143616206Y-114134152D01*
X144676866Y-115194812D01*
G37*
%TD.AperFunction*%
%TA.AperFunction,SMDPad,CuDef*%
%TO.P,U3,13*%
%TO.N,ISP_RST*%
G36*
X145242551Y-114629126D02*
G01*
X144853643Y-115018034D01*
X143792983Y-113957374D01*
X144181891Y-113568466D01*
X145242551Y-114629126D01*
G37*
%TD.AperFunction*%
%TA.AperFunction,SMDPad,CuDef*%
%TO.P,U3,14*%
%TO.N,+3V3*%
G36*
X145808236Y-114063441D02*
G01*
X145419328Y-114452349D01*
X144358668Y-113391689D01*
X144747576Y-113002781D01*
X145808236Y-114063441D01*
G37*
%TD.AperFunction*%
%TA.AperFunction,SMDPad,CuDef*%
%TO.P,U3,15*%
%TO.N,GND*%
G36*
X146373922Y-113497756D02*
G01*
X145985014Y-113886664D01*
X144924354Y-112826004D01*
X145313262Y-112437096D01*
X146373922Y-113497756D01*
G37*
%TD.AperFunction*%
%TA.AperFunction,SMDPad,CuDef*%
%TO.P,U3,16*%
%TO.N,Net-(C7-Pad1)*%
G36*
X146939607Y-112932070D02*
G01*
X146550699Y-113320978D01*
X145490039Y-112260318D01*
X145878947Y-111871410D01*
X146939607Y-112932070D01*
G37*
%TD.AperFunction*%
%TA.AperFunction,SMDPad,CuDef*%
%TO.P,U3,17*%
%TO.N,Net-(C6-Pad2)*%
G36*
X147505293Y-112366385D02*
G01*
X147116385Y-112755293D01*
X146055725Y-111694633D01*
X146444633Y-111305725D01*
X147505293Y-112366385D01*
G37*
%TD.AperFunction*%
%TA.AperFunction,SMDPad,CuDef*%
%TO.P,U3,18*%
%TO.N,MCU_SCL*%
G36*
X148070978Y-111800699D02*
G01*
X147682070Y-112189607D01*
X146621410Y-111128947D01*
X147010318Y-110740039D01*
X148070978Y-111800699D01*
G37*
%TD.AperFunction*%
%TA.AperFunction,SMDPad,CuDef*%
%TO.P,U3,19*%
%TO.N,MCU_SDA*%
G36*
X148636664Y-111235014D02*
G01*
X148247756Y-111623922D01*
X147187096Y-110563262D01*
X147576004Y-110174354D01*
X148636664Y-111235014D01*
G37*
%TD.AperFunction*%
%TA.AperFunction,SMDPad,CuDef*%
%TO.P,U3,20*%
%TO.N,Net-(U3-Pad20)*%
G36*
X149202349Y-110669328D02*
G01*
X148813441Y-111058236D01*
X147752781Y-109997576D01*
X148141689Y-109608668D01*
X149202349Y-110669328D01*
G37*
%TD.AperFunction*%
%TA.AperFunction,SMDPad,CuDef*%
%TO.P,U3,21*%
%TO.N,Net-(U3-Pad21)*%
G36*
X149768034Y-110103643D02*
G01*
X149379126Y-110492551D01*
X148318466Y-109431891D01*
X148707374Y-109042983D01*
X149768034Y-110103643D01*
G37*
%TD.AperFunction*%
%TA.AperFunction,SMDPad,CuDef*%
%TO.P,U3,22*%
%TO.N,Net-(U3-Pad22)*%
G36*
X150333720Y-109537958D02*
G01*
X149944812Y-109926866D01*
X148884152Y-108866206D01*
X149273060Y-108477298D01*
X150333720Y-109537958D01*
G37*
%TD.AperFunction*%
%TA.AperFunction,SMDPad,CuDef*%
%TO.P,U3,23*%
%TO.N,GND*%
G36*
X149273060Y-107522702D02*
G01*
X148884152Y-107133794D01*
X149944812Y-106073134D01*
X150333720Y-106462042D01*
X149273060Y-107522702D01*
G37*
%TD.AperFunction*%
%TA.AperFunction,SMDPad,CuDef*%
%TO.P,U3,24*%
%TO.N,+3V3*%
G36*
X148707374Y-106957017D02*
G01*
X148318466Y-106568109D01*
X149379126Y-105507449D01*
X149768034Y-105896357D01*
X148707374Y-106957017D01*
G37*
%TD.AperFunction*%
%TA.AperFunction,SMDPad,CuDef*%
%TO.P,U3,25*%
%TO.N,Net-(U3-Pad25)*%
G36*
X148141689Y-106391332D02*
G01*
X147752781Y-106002424D01*
X148813441Y-104941764D01*
X149202349Y-105330672D01*
X148141689Y-106391332D01*
G37*
%TD.AperFunction*%
%TA.AperFunction,SMDPad,CuDef*%
%TO.P,U3,26*%
%TO.N,Net-(U3-Pad26)*%
G36*
X147576004Y-105825646D02*
G01*
X147187096Y-105436738D01*
X148247756Y-104376078D01*
X148636664Y-104764986D01*
X147576004Y-105825646D01*
G37*
%TD.AperFunction*%
%TA.AperFunction,SMDPad,CuDef*%
%TO.P,U3,27*%
%TO.N,Net-(U3-Pad27)*%
G36*
X147010318Y-105259961D02*
G01*
X146621410Y-104871053D01*
X147682070Y-103810393D01*
X148070978Y-104199301D01*
X147010318Y-105259961D01*
G37*
%TD.AperFunction*%
%TA.AperFunction,SMDPad,CuDef*%
%TO.P,U3,28*%
%TO.N,Net-(U3-Pad28)*%
G36*
X146444633Y-104694275D02*
G01*
X146055725Y-104305367D01*
X147116385Y-103244707D01*
X147505293Y-103633615D01*
X146444633Y-104694275D01*
G37*
%TD.AperFunction*%
%TA.AperFunction,SMDPad,CuDef*%
%TO.P,U3,29*%
%TO.N,Net-(U3-Pad29)*%
G36*
X145878947Y-104128590D02*
G01*
X145490039Y-103739682D01*
X146550699Y-102679022D01*
X146939607Y-103067930D01*
X145878947Y-104128590D01*
G37*
%TD.AperFunction*%
%TA.AperFunction,SMDPad,CuDef*%
%TO.P,U3,30*%
%TO.N,Net-(U3-Pad30)*%
G36*
X145313262Y-103562904D02*
G01*
X144924354Y-103173996D01*
X145985014Y-102113336D01*
X146373922Y-102502244D01*
X145313262Y-103562904D01*
G37*
%TD.AperFunction*%
%TA.AperFunction,SMDPad,CuDef*%
%TO.P,U3,31*%
%TO.N,Net-(U3-Pad31)*%
G36*
X144747576Y-102997219D02*
G01*
X144358668Y-102608311D01*
X145419328Y-101547651D01*
X145808236Y-101936559D01*
X144747576Y-102997219D01*
G37*
%TD.AperFunction*%
%TA.AperFunction,SMDPad,CuDef*%
%TO.P,U3,32*%
%TO.N,Net-(U3-Pad32)*%
G36*
X144181891Y-102431534D02*
G01*
X143792983Y-102042626D01*
X144853643Y-100981966D01*
X145242551Y-101370874D01*
X144181891Y-102431534D01*
G37*
%TD.AperFunction*%
%TA.AperFunction,SMDPad,CuDef*%
%TO.P,U3,33*%
%TO.N,Net-(U3-Pad33)*%
G36*
X143616206Y-101865848D02*
G01*
X143227298Y-101476940D01*
X144287958Y-100416280D01*
X144676866Y-100805188D01*
X143616206Y-101865848D01*
G37*
%TD.AperFunction*%
%TA.AperFunction,SMDPad,CuDef*%
%TO.P,U3,34*%
%TO.N,+3V3*%
G36*
X142272702Y-101476940D02*
G01*
X141883794Y-101865848D01*
X140823134Y-100805188D01*
X141212042Y-100416280D01*
X142272702Y-101476940D01*
G37*
%TD.AperFunction*%
%TA.AperFunction,SMDPad,CuDef*%
%TO.P,U3,35*%
%TO.N,GND*%
G36*
X141707017Y-102042626D02*
G01*
X141318109Y-102431534D01*
X140257449Y-101370874D01*
X140646357Y-100981966D01*
X141707017Y-102042626D01*
G37*
%TD.AperFunction*%
%TA.AperFunction,SMDPad,CuDef*%
%TO.P,U3,36*%
%TO.N,Net-(U3-Pad36)*%
G36*
X141141332Y-102608311D02*
G01*
X140752424Y-102997219D01*
X139691764Y-101936559D01*
X140080672Y-101547651D01*
X141141332Y-102608311D01*
G37*
%TD.AperFunction*%
%TA.AperFunction,SMDPad,CuDef*%
%TO.P,U3,37*%
%TO.N,Net-(U3-Pad37)*%
G36*
X140575646Y-103173996D02*
G01*
X140186738Y-103562904D01*
X139126078Y-102502244D01*
X139514986Y-102113336D01*
X140575646Y-103173996D01*
G37*
%TD.AperFunction*%
%TA.AperFunction,SMDPad,CuDef*%
%TO.P,U3,38*%
%TO.N,Net-(U3-Pad38)*%
G36*
X140009961Y-103739682D02*
G01*
X139621053Y-104128590D01*
X138560393Y-103067930D01*
X138949301Y-102679022D01*
X140009961Y-103739682D01*
G37*
%TD.AperFunction*%
%TA.AperFunction,SMDPad,CuDef*%
%TO.P,U3,39*%
%TO.N,Net-(U3-Pad39)*%
G36*
X139444275Y-104305367D02*
G01*
X139055367Y-104694275D01*
X137994707Y-103633615D01*
X138383615Y-103244707D01*
X139444275Y-104305367D01*
G37*
%TD.AperFunction*%
%TA.AperFunction,SMDPad,CuDef*%
%TO.P,U3,40*%
%TO.N,Net-(U3-Pad40)*%
G36*
X138878590Y-104871053D02*
G01*
X138489682Y-105259961D01*
X137429022Y-104199301D01*
X137817930Y-103810393D01*
X138878590Y-104871053D01*
G37*
%TD.AperFunction*%
%TA.AperFunction,SMDPad,CuDef*%
%TO.P,U3,41*%
%TO.N,Net-(U2-Pad4)*%
G36*
X138312904Y-105436738D02*
G01*
X137923996Y-105825646D01*
X136863336Y-104764986D01*
X137252244Y-104376078D01*
X138312904Y-105436738D01*
G37*
%TD.AperFunction*%
%TA.AperFunction,SMDPad,CuDef*%
%TO.P,U3,42*%
%TO.N,+3V3*%
G36*
X137747219Y-106002424D02*
G01*
X137358311Y-106391332D01*
X136297651Y-105330672D01*
X136686559Y-104941764D01*
X137747219Y-106002424D01*
G37*
%TD.AperFunction*%
%TA.AperFunction,SMDPad,CuDef*%
%TO.P,U3,43*%
%TO.N,GND*%
G36*
X137181534Y-106568109D02*
G01*
X136792626Y-106957017D01*
X135731966Y-105896357D01*
X136120874Y-105507449D01*
X137181534Y-106568109D01*
G37*
%TD.AperFunction*%
%TA.AperFunction,SMDPad,CuDef*%
%TO.P,U3,44*%
%TO.N,+3V3*%
G36*
X136615848Y-107133794D02*
G01*
X136226940Y-107522702D01*
X135166280Y-106462042D01*
X135555188Y-106073134D01*
X136615848Y-107133794D01*
G37*
%TD.AperFunction*%
%TD*%
D18*
%TO.P,U4,1*%
%TO.N,VBUS*%
X134325000Y-97550000D03*
%TO.P,U4,2*%
%TO.N,N/C*%
X134325000Y-98500000D03*
%TO.P,U4,3*%
%TO.N,VBUS*%
X134325000Y-99450000D03*
%TO.P,U4,4*%
%TO.N,GND*%
X136675000Y-99450000D03*
%TO.P,U4,5*%
%TO.N,+3V3*%
X136675000Y-97550000D03*
%TD*%
%TA.AperFunction,SMDPad,CuDef*%
D17*
%TO.P,Y1,1*%
%TO.N,Net-(C6-Pad2)*%
G36*
X153328427Y-110550253D02*
G01*
X155449747Y-112671573D01*
X153328427Y-114792893D01*
X151207107Y-112671573D01*
X153328427Y-110550253D01*
G37*
%TD.AperFunction*%
%TA.AperFunction,SMDPad,CuDef*%
%TO.P,Y1,2*%
%TO.N,Net-(C7-Pad1)*%
G36*
X147671573Y-116207107D02*
G01*
X149792893Y-118328427D01*
X147671573Y-120449747D01*
X145550253Y-118328427D01*
X147671573Y-116207107D01*
G37*
%TD.AperFunction*%
%TD*%
D19*
%TO.P,J1,1*%
%TO.N,GND*%
X138900000Y-93700000D03*
D20*
%TO.P,J1,2*%
%TO.N,+3V3*%
X141440000Y-93700000D03*
%TO.P,J1,3*%
%TO.N,MCU_SCL*%
X143980000Y-93700000D03*
%TO.P,J1,4*%
%TO.N,MCU_SDA*%
X146520000Y-93700000D03*
%TD*%
D21*
%TO.P,D1,1*%
%TO.N,Net-(D1-Pad1)*%
X156250000Y-106250000D03*
%TO.P,D1,2*%
%TO.N,GND*%
X156250000Y-108750000D03*
%TD*%
D22*
%TO.N,GND*%
X125750000Y-97000000D03*
X125750000Y-98000000D03*
X125750000Y-99000000D03*
X125750000Y-100000000D03*
X125750000Y-101000000D03*
X125750000Y-102000000D03*
X125750000Y-105500000D03*
X125750000Y-106500000D03*
X125750000Y-107500000D03*
X125750000Y-108500000D03*
X125750000Y-109500000D03*
X125750000Y-119500000D03*
X125750000Y-118500000D03*
X125750000Y-117500000D03*
X125750000Y-116500000D03*
X125750000Y-115500000D03*
X125750000Y-114500000D03*
X125750000Y-113500000D03*
X130500000Y-124250000D03*
X131500000Y-124250000D03*
X132500000Y-124250000D03*
X133500000Y-124250000D03*
X136750000Y-124250000D03*
X137750000Y-124250000D03*
X138750000Y-124250000D03*
X155000000Y-124250000D03*
X154000000Y-124250000D03*
X153000000Y-124250000D03*
X152000000Y-124250000D03*
X151000000Y-124250000D03*
X150000000Y-124250000D03*
X149000000Y-124250000D03*
X159750000Y-119500000D03*
X159750000Y-118500000D03*
X159750000Y-117500000D03*
X159750000Y-116500000D03*
X159750000Y-115500000D03*
X159750000Y-114500000D03*
X159750000Y-113500000D03*
X159750000Y-112500000D03*
X159750000Y-111500000D03*
X159750000Y-110500000D03*
X159750000Y-109500000D03*
X159750000Y-108500000D03*
X159750000Y-107500000D03*
X159750000Y-106500000D03*
X159750000Y-105500000D03*
X159750000Y-97000000D03*
X155000000Y-92250000D03*
X154000000Y-92250000D03*
X153000000Y-92250000D03*
X152000000Y-92250000D03*
X130500000Y-92250000D03*
X131500000Y-92250000D03*
X132500000Y-92250000D03*
X133500000Y-92250000D03*
X134500000Y-92250000D03*
X135500000Y-92250000D03*
X136500000Y-92250000D03*
X137500000Y-107250000D03*
X138250000Y-108000000D03*
X137000000Y-108000000D03*
X137750000Y-108750000D03*
X143250000Y-100250000D03*
X142250000Y-100250000D03*
X140000000Y-105500000D03*
X141000000Y-105500000D03*
X144250000Y-105500000D03*
X145250000Y-105500000D03*
X146250000Y-105500000D03*
X147000000Y-106250000D03*
X145250000Y-111250000D03*
X146000000Y-110500000D03*
X148500000Y-108000000D03*
X147750000Y-108750000D03*
X147000000Y-109500000D03*
X133250000Y-118500000D03*
X134000000Y-117750000D03*
X134750000Y-117000000D03*
X135500000Y-116250000D03*
X136250000Y-115500000D03*
X151250000Y-95500000D03*
%TO.N,+3V3*%
X138500000Y-97500000D03*
D23*
X142500000Y-110750000D03*
D22*
%TO.N,VBUS*%
X134500000Y-103250000D03*
X140500000Y-111750000D03*
%TO.N,MCU_SDA*%
X153000000Y-109500000D03*
X151250000Y-109750000D03*
%TO.N,ISP_SCK*%
X142000000Y-112750000D03*
%TO.N,ISP_RST*%
X143340715Y-115659285D03*
%TO.N,Net-(U2-Pad4)*%
X136250000Y-103750000D03*
%TD*%
D24*
%TO.N,GND*%
X136482233Y-106232233D02*
X137500000Y-107250000D01*
X136456750Y-106232233D02*
X136482233Y-106232233D01*
X137500000Y-107250000D02*
X138250000Y-108000000D01*
X141541342Y-104958658D02*
X141000000Y-105500000D01*
X141541342Y-102089098D02*
X141541342Y-104958658D01*
X141158994Y-101706750D02*
X141541342Y-102089098D01*
X140982233Y-101706750D02*
X141158994Y-101706750D01*
X144925001Y-112437743D02*
X145649138Y-113161880D01*
X144925001Y-111574999D02*
X144925001Y-112437743D01*
X145250000Y-111250000D02*
X144925001Y-111574999D01*
X138712914Y-109712914D02*
X137750000Y-108750000D01*
X138712914Y-110905715D02*
X138712914Y-109712914D01*
X138153806Y-111464823D02*
X138712914Y-110905715D01*
X126050000Y-108800000D02*
X125750000Y-108500000D01*
X129175000Y-108800000D02*
X126050000Y-108800000D01*
D25*
%TO.N,+3V3*%
X136675000Y-96125000D02*
X135800000Y-95250000D01*
X136675000Y-97550000D02*
X136675000Y-96125000D01*
X136675000Y-97550000D02*
X138450000Y-97550000D01*
X138450000Y-97550000D02*
X138500000Y-97500000D01*
D26*
X138719491Y-112030509D02*
X140000000Y-110750000D01*
X140000000Y-110750000D02*
X142500000Y-110750000D01*
X142500000Y-111144113D02*
X142500000Y-110750000D01*
X145083452Y-113727565D02*
X142500000Y-111144113D01*
X144419433Y-110750000D02*
X142500000Y-110750000D01*
X148937200Y-106232233D02*
X144419433Y-110750000D01*
X149043250Y-106232233D02*
X148937200Y-106232233D01*
X142105887Y-110750000D02*
X142500000Y-110750000D01*
X137022435Y-105666548D02*
X142105887Y-110750000D01*
D24*
X135331956Y-105730667D02*
X135955184Y-105107439D01*
X135955184Y-105107439D02*
X136463326Y-105107439D01*
X135331956Y-106238810D02*
X135331956Y-105730667D01*
X136463326Y-105107439D02*
X137022435Y-105666548D01*
X135891064Y-106797918D02*
X135331956Y-106238810D01*
X130949568Y-116550432D02*
X133199568Y-116550432D01*
X138160383Y-112589617D02*
X138719491Y-112030509D01*
X137160383Y-112589617D02*
X138160383Y-112589617D01*
X133199568Y-116550432D02*
X137160383Y-112589617D01*
D26*
X138500000Y-98093146D02*
X138500000Y-97500000D01*
X141547918Y-101141064D02*
X138500000Y-98093146D01*
X139500000Y-96500000D02*
X138500000Y-97500000D01*
X140750000Y-96500000D02*
X139500000Y-96500000D01*
D24*
X142690001Y-92449999D02*
X141440000Y-93700000D01*
X144580001Y-92449999D02*
X142690001Y-92449999D01*
X145230001Y-93099999D02*
X144580001Y-92449999D01*
X145230001Y-94300001D02*
X145230001Y-93099999D01*
X144750000Y-94780002D02*
X145230001Y-94300001D01*
X144750000Y-96500000D02*
X144750000Y-94780002D01*
D26*
X141547918Y-101141064D02*
X143250000Y-102843146D01*
X143250000Y-110000000D02*
X142500000Y-110750000D01*
X143250000Y-102843146D02*
X143250000Y-110000000D01*
D25*
%TO.N,VBUS*%
X134425000Y-101525000D02*
X134450000Y-101500000D01*
X131750000Y-101525000D02*
X134425000Y-101525000D01*
X134450000Y-99575000D02*
X134325000Y-99450000D01*
X134450000Y-101500000D02*
X134450000Y-99575000D01*
X134325000Y-99450000D02*
X133200000Y-99450000D01*
X133200000Y-99450000D02*
X132750000Y-99000000D01*
X133259998Y-97550000D02*
X134325000Y-97550000D01*
X132750000Y-98059998D02*
X133259998Y-97550000D01*
X132750000Y-99000000D02*
X132750000Y-98059998D01*
D24*
X134450000Y-101500000D02*
X134450000Y-103200000D01*
X134450000Y-103200000D02*
X134500000Y-103250000D01*
X140131371Y-111750000D02*
X139285177Y-112596194D01*
X140500000Y-111750000D02*
X140131371Y-111750000D01*
%TO.N,Net-(C6-Pad2)*%
X154070709Y-112671573D02*
X156199568Y-114800432D01*
X153328427Y-112671573D02*
X154070709Y-112671573D01*
X146780509Y-112030509D02*
X148750000Y-114000000D01*
X152000000Y-114000000D02*
X153328427Y-112671573D01*
X148750000Y-114000000D02*
X152000000Y-114000000D01*
%TO.N,Net-(C7-Pad1)*%
X147671573Y-114229705D02*
X147671573Y-118328427D01*
X146214823Y-112772955D02*
X147671573Y-114229705D01*
X146214823Y-112596194D02*
X146214823Y-112772955D01*
X147671573Y-119171573D02*
X149750000Y-121250000D01*
X147671573Y-118328427D02*
X147671573Y-119171573D01*
D26*
%TO.N,Net-(D1-Pad1)*%
X156250000Y-101250000D02*
X156250000Y-106250000D01*
%TO.N,Net-(F1-Pad2)*%
X130050000Y-106200000D02*
X131750000Y-104500000D01*
X129175000Y-106200000D02*
X130050000Y-106200000D01*
%TO.N,MCU_SCL*%
X143980000Y-95320000D02*
X142800000Y-96500000D01*
X143980000Y-93700000D02*
X143980000Y-95320000D01*
D24*
X142800000Y-97200000D02*
X152250000Y-106650000D01*
X142800000Y-96500000D02*
X142800000Y-97200000D01*
X152250000Y-106650000D02*
X152250000Y-110750000D01*
X152250000Y-110750000D02*
X150000000Y-113000000D01*
X148881371Y-113000000D02*
X147346194Y-111464823D01*
X150000000Y-113000000D02*
X148881371Y-113000000D01*
D26*
%TO.N,MCU_SDA*%
X146520000Y-96220000D02*
X146800000Y-96500000D01*
X146520000Y-93700000D02*
X146520000Y-96220000D01*
D24*
X153000000Y-106151458D02*
X153000000Y-109500000D01*
X146800000Y-96500000D02*
X146800000Y-99951458D01*
X146800000Y-99951458D02*
X153000000Y-106151458D01*
X148470988Y-111458246D02*
X147911880Y-110899138D01*
X149541754Y-111458246D02*
X148470988Y-111458246D01*
X151250000Y-109750000D02*
X149541754Y-111458246D01*
%TO.N,ISP_MISO*%
X141547918Y-114891794D02*
X141547918Y-114858936D01*
X146630001Y-119973877D02*
X141547918Y-114891794D01*
X146630001Y-122880001D02*
X146630001Y-119973877D01*
X146750000Y-123000000D02*
X146630001Y-122880001D01*
X147000000Y-123000000D02*
X146750000Y-123000000D01*
%TO.N,ISP_SCK*%
X141394113Y-112750000D02*
X140416548Y-113727565D01*
X142000000Y-112750000D02*
X141394113Y-112750000D01*
%TO.N,ISP_MOSI*%
X143190000Y-118399714D02*
X140290286Y-115500000D01*
X143190000Y-123000000D02*
X143190000Y-118399714D01*
X140290286Y-114985197D02*
X140982233Y-114293250D01*
X140290286Y-115500000D02*
X140290286Y-114985197D01*
%TO.N,ISP_RST*%
X135026705Y-123155275D02*
X132905275Y-123155275D01*
X129500000Y-119750000D02*
X129500000Y-118000000D01*
X132905275Y-123155275D02*
X129500000Y-119750000D01*
X141920000Y-118791430D02*
X141920000Y-123000000D01*
X140655275Y-117526705D02*
X141920000Y-118791430D01*
X135026705Y-123155275D02*
X140655275Y-117526705D01*
X143958659Y-113734142D02*
X143450516Y-113734142D01*
X143450516Y-113734142D02*
X142827288Y-114357370D01*
X144517767Y-114293250D02*
X143958659Y-113734142D01*
X142827288Y-114357370D02*
X142827288Y-115145858D01*
X142827288Y-115145858D02*
X143340715Y-115659285D01*
%TO.N,Net-(J4-Pad3)*%
X132050432Y-108780430D02*
X132050432Y-112300432D01*
X130770002Y-107500000D02*
X132050432Y-108780430D01*
X129175000Y-107500000D02*
X130770002Y-107500000D01*
%TO.N,Net-(J4-Pad2)*%
X129175000Y-106850000D02*
X131850000Y-106850000D01*
X133800432Y-108800432D02*
X133800432Y-110550432D01*
X131850000Y-106850000D02*
X133800432Y-108800432D01*
%TO.N,Net-(R7-Pad1)*%
X137588120Y-111040754D02*
X137588120Y-110899138D01*
X134878874Y-113750000D02*
X137588120Y-111040754D01*
X133500000Y-113750000D02*
X134878874Y-113750000D01*
%TO.N,Net-(R8-Pad2)*%
X135355887Y-112000000D02*
X137022435Y-110333452D01*
X135250000Y-112000000D02*
X135355887Y-112000000D01*
D26*
%TO.N,Net-(U2-Pad4)*%
X136250000Y-103762742D02*
X137588120Y-105100862D01*
X136250000Y-103750000D02*
X136250000Y-103762742D01*
%TD*%
D27*
%TO.N,GND*%
G36*
X141754145Y-92360550D02*
G01*
X141575426Y-92325000D01*
X141304574Y-92325000D01*
X141038927Y-92377841D01*
X140788693Y-92481491D01*
X140563489Y-92631968D01*
X140371968Y-92823489D01*
X140277117Y-92965443D01*
X140277540Y-92850000D01*
X140267403Y-92747082D01*
X140237383Y-92648119D01*
X140188633Y-92556914D01*
X140123027Y-92476973D01*
X140043086Y-92411367D01*
X139951881Y-92362617D01*
X139852918Y-92332597D01*
X139750000Y-92322460D01*
X139056250Y-92325000D01*
X138925000Y-92456250D01*
X138925000Y-93675000D01*
X138945000Y-93675000D01*
X138945000Y-93725000D01*
X138925000Y-93725000D01*
X138925000Y-94943750D01*
X139056250Y-95075000D01*
X139750000Y-95077540D01*
X139852918Y-95067403D01*
X139951881Y-95037383D01*
X140043086Y-94988633D01*
X140123027Y-94923027D01*
X140188633Y-94843086D01*
X140237383Y-94751881D01*
X140267403Y-94652918D01*
X140277540Y-94550000D01*
X140277117Y-94434557D01*
X140371968Y-94576511D01*
X140563489Y-94768032D01*
X140788693Y-94918509D01*
X141038927Y-95022159D01*
X141304574Y-95075000D01*
X141575426Y-95075000D01*
X141841073Y-95022159D01*
X142091307Y-94918509D01*
X142316511Y-94768032D01*
X142508032Y-94576511D01*
X142658509Y-94351307D01*
X142710000Y-94226996D01*
X142761491Y-94351307D01*
X142911968Y-94576511D01*
X143103489Y-94768032D01*
X143205001Y-94835860D01*
X143205001Y-94998984D01*
X142931525Y-95272460D01*
X142474999Y-95272460D01*
X142323309Y-95287400D01*
X142177448Y-95331647D01*
X142043021Y-95403499D01*
X141925196Y-95500196D01*
X141828499Y-95618021D01*
X141775000Y-95718112D01*
X141721501Y-95618021D01*
X141624804Y-95500196D01*
X141506979Y-95403499D01*
X141372552Y-95331647D01*
X141226691Y-95287400D01*
X141075001Y-95272460D01*
X140424999Y-95272460D01*
X140273309Y-95287400D01*
X140127448Y-95331647D01*
X139993021Y-95403499D01*
X139875196Y-95500196D01*
X139778499Y-95618021D01*
X139721318Y-95725000D01*
X139538063Y-95725000D01*
X139500000Y-95721251D01*
X139461937Y-95725000D01*
X139461935Y-95725000D01*
X139348074Y-95736214D01*
X139235987Y-95770216D01*
X139201985Y-95780530D01*
X139067349Y-95852494D01*
X139011524Y-95898309D01*
X138949341Y-95949341D01*
X138925076Y-95978908D01*
X138276764Y-96627221D01*
X138201673Y-96650000D01*
X137575000Y-96650000D01*
X137575000Y-96169207D01*
X137579354Y-96125000D01*
X137561977Y-95948569D01*
X137538343Y-95870659D01*
X137510514Y-95778919D01*
X137426943Y-95622568D01*
X137314475Y-95485525D01*
X137280135Y-95457343D01*
X136902540Y-95079748D01*
X136902540Y-94799999D01*
X136887600Y-94648309D01*
X136857778Y-94550000D01*
X137522460Y-94550000D01*
X137532597Y-94652918D01*
X137562617Y-94751881D01*
X137611367Y-94843086D01*
X137676973Y-94923027D01*
X137756914Y-94988633D01*
X137848119Y-95037383D01*
X137947082Y-95067403D01*
X138050000Y-95077540D01*
X138743750Y-95075000D01*
X138875000Y-94943750D01*
X138875000Y-93725000D01*
X137656250Y-93725000D01*
X137525000Y-93856250D01*
X137522460Y-94550000D01*
X136857778Y-94550000D01*
X136843353Y-94502448D01*
X136771501Y-94368021D01*
X136674804Y-94250196D01*
X136556979Y-94153499D01*
X136422552Y-94081647D01*
X136276691Y-94037400D01*
X136125001Y-94022460D01*
X135474999Y-94022460D01*
X135323309Y-94037400D01*
X135177448Y-94081647D01*
X135043021Y-94153499D01*
X134925196Y-94250196D01*
X134828499Y-94368021D01*
X134822069Y-94380050D01*
X134812383Y-94348119D01*
X134763633Y-94256914D01*
X134698027Y-94176973D01*
X134618086Y-94111367D01*
X134526881Y-94062617D01*
X134427918Y-94032597D01*
X134325000Y-94022460D01*
X133906250Y-94025000D01*
X133775000Y-94156250D01*
X133775000Y-95225000D01*
X133795000Y-95225000D01*
X133795000Y-95275000D01*
X133775000Y-95275000D01*
X133775000Y-96343750D01*
X133906250Y-96475000D01*
X134325000Y-96477540D01*
X134427918Y-96467403D01*
X134526881Y-96437383D01*
X134618086Y-96388633D01*
X134698027Y-96323027D01*
X134763633Y-96243086D01*
X134812383Y-96151881D01*
X134822069Y-96119950D01*
X134828499Y-96131979D01*
X134925196Y-96249804D01*
X135043021Y-96346501D01*
X135177448Y-96418353D01*
X135323309Y-96462600D01*
X135474999Y-96477540D01*
X135754748Y-96477540D01*
X135775001Y-96497793D01*
X135775001Y-96774629D01*
X135696914Y-96816367D01*
X135616973Y-96881973D01*
X135551367Y-96961914D01*
X135502617Y-97053119D01*
X135500000Y-97061746D01*
X135497383Y-97053119D01*
X135448633Y-96961914D01*
X135383027Y-96881973D01*
X135303086Y-96816367D01*
X135211881Y-96767617D01*
X135112918Y-96737597D01*
X135010000Y-96727460D01*
X134695354Y-96727460D01*
X134671081Y-96714486D01*
X134501431Y-96663023D01*
X134369207Y-96650000D01*
X133304204Y-96650000D01*
X133259997Y-96645646D01*
X133215791Y-96650000D01*
X133083567Y-96663023D01*
X132913917Y-96714486D01*
X132757566Y-96798057D01*
X132620523Y-96910525D01*
X132592343Y-96944863D01*
X132144861Y-97392345D01*
X132110526Y-97420523D01*
X132082348Y-97454858D01*
X132082345Y-97454861D01*
X131998057Y-97557567D01*
X131914487Y-97713917D01*
X131863023Y-97883568D01*
X131845646Y-98059998D01*
X131850001Y-98104214D01*
X131850000Y-98955793D01*
X131845646Y-99000000D01*
X131854283Y-99087695D01*
X131863023Y-99176430D01*
X131914486Y-99346080D01*
X131998057Y-99502431D01*
X132110525Y-99639475D01*
X132144865Y-99667657D01*
X132532343Y-100055135D01*
X132560525Y-100089475D01*
X132697568Y-100201943D01*
X132853919Y-100285514D01*
X133023569Y-100336977D01*
X133155793Y-100350000D01*
X133155795Y-100350000D01*
X133199999Y-100354354D01*
X133244203Y-100350000D01*
X133550001Y-100350000D01*
X133550001Y-100530897D01*
X133478499Y-100618021D01*
X133474769Y-100625000D01*
X133016969Y-100625000D01*
X132924804Y-100512696D01*
X132806978Y-100415999D01*
X132672552Y-100344147D01*
X132526691Y-100299900D01*
X132375000Y-100284960D01*
X131125000Y-100284960D01*
X130973309Y-100299900D01*
X130827448Y-100344147D01*
X130693022Y-100415999D01*
X130575196Y-100512696D01*
X130478499Y-100630522D01*
X130406647Y-100764948D01*
X130362400Y-100910809D01*
X130347460Y-101062500D01*
X130347460Y-101987500D01*
X130362400Y-102139191D01*
X130406647Y-102285052D01*
X130478499Y-102419478D01*
X130575196Y-102537304D01*
X130693022Y-102634001D01*
X130827448Y-102705853D01*
X130973309Y-102750100D01*
X131125000Y-102765040D01*
X132375000Y-102765040D01*
X132526691Y-102750100D01*
X132672552Y-102705853D01*
X132806978Y-102634001D01*
X132924804Y-102537304D01*
X133016969Y-102425000D01*
X133513806Y-102425000D01*
X133575196Y-102499804D01*
X133693021Y-102596501D01*
X133725001Y-102613594D01*
X133725001Y-102899857D01*
X133682665Y-103002064D01*
X133650000Y-103166282D01*
X133650000Y-103333718D01*
X133682665Y-103497936D01*
X133746740Y-103652626D01*
X133839762Y-103791844D01*
X133958156Y-103910238D01*
X134097374Y-104003260D01*
X134252064Y-104067335D01*
X134416282Y-104100000D01*
X134583718Y-104100000D01*
X134747936Y-104067335D01*
X134902626Y-104003260D01*
X135041844Y-103910238D01*
X135160238Y-103791844D01*
X135253260Y-103652626D01*
X135317335Y-103497936D01*
X135350000Y-103333718D01*
X135350000Y-103166282D01*
X135317335Y-103002064D01*
X135253260Y-102847374D01*
X135175000Y-102730249D01*
X135175000Y-102613594D01*
X135206979Y-102596501D01*
X135324804Y-102499804D01*
X135421501Y-102381979D01*
X135427931Y-102369950D01*
X135437617Y-102401881D01*
X135486367Y-102493086D01*
X135551973Y-102573027D01*
X135631914Y-102638633D01*
X135723119Y-102687383D01*
X135822082Y-102717403D01*
X135925000Y-102727540D01*
X136343750Y-102725000D01*
X136475000Y-102593750D01*
X136475000Y-101525000D01*
X136525000Y-101525000D01*
X136525000Y-102593750D01*
X136656250Y-102725000D01*
X137075000Y-102727540D01*
X137177918Y-102717403D01*
X137276881Y-102687383D01*
X137368086Y-102638633D01*
X137448027Y-102573027D01*
X137513633Y-102493086D01*
X137562383Y-102401881D01*
X137592403Y-102302918D01*
X137602540Y-102200000D01*
X137600000Y-101656250D01*
X137468750Y-101525000D01*
X136525000Y-101525000D01*
X136475000Y-101525000D01*
X136455000Y-101525000D01*
X136455000Y-101475000D01*
X136475000Y-101475000D01*
X136475000Y-100406250D01*
X136525000Y-100406250D01*
X136525000Y-101475000D01*
X137468750Y-101475000D01*
X137600000Y-101343750D01*
X137602540Y-100800000D01*
X137592403Y-100697082D01*
X137562383Y-100598119D01*
X137513633Y-100506914D01*
X137448027Y-100426973D01*
X137368086Y-100361367D01*
X137276881Y-100312617D01*
X137177918Y-100282597D01*
X137075000Y-100272460D01*
X136656250Y-100275000D01*
X136525000Y-100406250D01*
X136475000Y-100406250D01*
X136343750Y-100275000D01*
X135925000Y-100272460D01*
X135822082Y-100282597D01*
X135723119Y-100312617D01*
X135631914Y-100361367D01*
X135551973Y-100426973D01*
X135486367Y-100506914D01*
X135437617Y-100598119D01*
X135427931Y-100630050D01*
X135421501Y-100618021D01*
X135350000Y-100530897D01*
X135350000Y-100145132D01*
X135383027Y-100118027D01*
X135448633Y-100038086D01*
X135497383Y-99946881D01*
X135500000Y-99938254D01*
X135502617Y-99946881D01*
X135551367Y-100038086D01*
X135616973Y-100118027D01*
X135696914Y-100183633D01*
X135788119Y-100232383D01*
X135887082Y-100262403D01*
X135990000Y-100272540D01*
X136518750Y-100270000D01*
X136650000Y-100138750D01*
X136650000Y-99475000D01*
X136700000Y-99475000D01*
X136700000Y-100138750D01*
X136831250Y-100270000D01*
X137360000Y-100272540D01*
X137462918Y-100262403D01*
X137561881Y-100232383D01*
X137653086Y-100183633D01*
X137733027Y-100118027D01*
X137798633Y-100038086D01*
X137847383Y-99946881D01*
X137877403Y-99847918D01*
X137887540Y-99745000D01*
X137885000Y-99606250D01*
X137753750Y-99475000D01*
X136700000Y-99475000D01*
X136650000Y-99475000D01*
X136630000Y-99475000D01*
X136630000Y-99425000D01*
X136650000Y-99425000D01*
X136650000Y-98761250D01*
X136700000Y-98761250D01*
X136700000Y-99425000D01*
X137753750Y-99425000D01*
X137885000Y-99293750D01*
X137887540Y-99155000D01*
X137877403Y-99052082D01*
X137847383Y-98953119D01*
X137798633Y-98861914D01*
X137733027Y-98781973D01*
X137653086Y-98716367D01*
X137561881Y-98667617D01*
X137462918Y-98637597D01*
X137360000Y-98627460D01*
X136831250Y-98630000D01*
X136700000Y-98761250D01*
X136650000Y-98761250D01*
X136518750Y-98630000D01*
X135990000Y-98627460D01*
X135887082Y-98637597D01*
X135788119Y-98667617D01*
X135696914Y-98716367D01*
X135616973Y-98781973D01*
X135551367Y-98861914D01*
X135521210Y-98918334D01*
X135527403Y-98897918D01*
X135537540Y-98795000D01*
X135537540Y-98205000D01*
X135527403Y-98102082D01*
X135521210Y-98081666D01*
X135551367Y-98138086D01*
X135616973Y-98218027D01*
X135696914Y-98283633D01*
X135788119Y-98332383D01*
X135887082Y-98362403D01*
X135990000Y-98372540D01*
X136304646Y-98372540D01*
X136328919Y-98385514D01*
X136498569Y-98436977D01*
X136675000Y-98454354D01*
X136719206Y-98450000D01*
X137811981Y-98450000D01*
X137852494Y-98525796D01*
X137868785Y-98545646D01*
X137949341Y-98643805D01*
X137978918Y-98668078D01*
X140191157Y-100880318D01*
X140191157Y-100880319D01*
X140356241Y-101045403D01*
X140384501Y-101098274D01*
X140433670Y-101158187D01*
X140373758Y-101109018D01*
X140320885Y-101080757D01*
X140155802Y-100915674D01*
X139970186Y-100915674D01*
X139884421Y-100997847D01*
X139818815Y-101077789D01*
X139807937Y-101098140D01*
X139787586Y-101109018D01*
X139707645Y-101174624D01*
X139318737Y-101563532D01*
X139253131Y-101643473D01*
X139242253Y-101663824D01*
X139221900Y-101674703D01*
X139141959Y-101740309D01*
X138753051Y-102129217D01*
X138687445Y-102209158D01*
X138676566Y-102229511D01*
X138656215Y-102240389D01*
X138576274Y-102305995D01*
X138187366Y-102694903D01*
X138121760Y-102774844D01*
X138110882Y-102795195D01*
X138090529Y-102806074D01*
X138010588Y-102871680D01*
X137621680Y-103260588D01*
X137556074Y-103340529D01*
X137545195Y-103360882D01*
X137524844Y-103371760D01*
X137444903Y-103437366D01*
X137232771Y-103649498D01*
X137054606Y-103471334D01*
X137003260Y-103347374D01*
X136910238Y-103208156D01*
X136791844Y-103089762D01*
X136652626Y-102996740D01*
X136497936Y-102932665D01*
X136333718Y-102900000D01*
X136166282Y-102900000D01*
X136002064Y-102932665D01*
X135847374Y-102996740D01*
X135708156Y-103089762D01*
X135589762Y-103208156D01*
X135496740Y-103347374D01*
X135432665Y-103502064D01*
X135400000Y-103666282D01*
X135400000Y-103833718D01*
X135432665Y-103997936D01*
X135496740Y-104152626D01*
X135589762Y-104291844D01*
X135708156Y-104410238D01*
X135723095Y-104420220D01*
X135676396Y-104434386D01*
X135553641Y-104500001D01*
X135550447Y-104501708D01*
X135467709Y-104569609D01*
X135467707Y-104569611D01*
X135440052Y-104592307D01*
X135417356Y-104619962D01*
X134844479Y-105192840D01*
X134816825Y-105215535D01*
X134794128Y-105243191D01*
X134794126Y-105243193D01*
X134780290Y-105260052D01*
X134726225Y-105325930D01*
X134658903Y-105451879D01*
X134617447Y-105588542D01*
X134606956Y-105695060D01*
X134606956Y-105695070D01*
X134603450Y-105730667D01*
X134606956Y-105766264D01*
X134606956Y-106203213D01*
X134603450Y-106238810D01*
X134606956Y-106274407D01*
X134606956Y-106274416D01*
X134617447Y-106380934D01*
X134639551Y-106453803D01*
X134638740Y-106462042D01*
X134648877Y-106564960D01*
X134678897Y-106663923D01*
X134727647Y-106755128D01*
X134793253Y-106835069D01*
X135853913Y-107895729D01*
X135933854Y-107961335D01*
X136006191Y-108000000D01*
X135933854Y-108038665D01*
X135853913Y-108104271D01*
X134793253Y-109164931D01*
X134727647Y-109244872D01*
X134678897Y-109336077D01*
X134648877Y-109435040D01*
X134638740Y-109537958D01*
X134648877Y-109640876D01*
X134658456Y-109672453D01*
X134525432Y-109539429D01*
X134525432Y-108836028D01*
X134528938Y-108800431D01*
X134525432Y-108764834D01*
X134525432Y-108764825D01*
X134514941Y-108658307D01*
X134473485Y-108521644D01*
X134406163Y-108395695D01*
X134338262Y-108312957D01*
X134338255Y-108312950D01*
X134315563Y-108285300D01*
X134287914Y-108262609D01*
X132387832Y-106362528D01*
X132365132Y-106334868D01*
X132254737Y-106244269D01*
X132128788Y-106176947D01*
X131992125Y-106135491D01*
X131885607Y-106125000D01*
X131885597Y-106125000D01*
X131850000Y-106121494D01*
X131814403Y-106125000D01*
X131221014Y-106125000D01*
X131605975Y-105740040D01*
X132375000Y-105740040D01*
X132526691Y-105725100D01*
X132672552Y-105680853D01*
X132806978Y-105609001D01*
X132924804Y-105512304D01*
X133021501Y-105394478D01*
X133093353Y-105260052D01*
X133137600Y-105114191D01*
X133152540Y-104962500D01*
X133152540Y-104037500D01*
X133137600Y-103885809D01*
X133093353Y-103739948D01*
X133021501Y-103605522D01*
X132924804Y-103487696D01*
X132806978Y-103390999D01*
X132672552Y-103319147D01*
X132526691Y-103274900D01*
X132375000Y-103259960D01*
X131125000Y-103259960D01*
X130973309Y-103274900D01*
X130827448Y-103319147D01*
X130693022Y-103390999D01*
X130575196Y-103487696D01*
X130478499Y-103605522D01*
X130406647Y-103739948D01*
X130376146Y-103840495D01*
X130377540Y-103350000D01*
X130367403Y-103247082D01*
X130337383Y-103148119D01*
X130288633Y-103056914D01*
X130223027Y-102976973D01*
X130143086Y-102911367D01*
X130051881Y-102862617D01*
X129952918Y-102832597D01*
X129850000Y-102822460D01*
X129206250Y-102825000D01*
X129075000Y-102956250D01*
X129075000Y-104375000D01*
X129095000Y-104375000D01*
X129095000Y-104425000D01*
X129075000Y-104425000D01*
X129075000Y-104445000D01*
X129025000Y-104445000D01*
X129025000Y-104425000D01*
X129005000Y-104425000D01*
X129005000Y-104375000D01*
X129025000Y-104375000D01*
X129025000Y-102956250D01*
X128893750Y-102825000D01*
X128250000Y-102822460D01*
X128147082Y-102832597D01*
X128048119Y-102862617D01*
X127977197Y-102900526D01*
X127977540Y-102800000D01*
X127967403Y-102697082D01*
X127937383Y-102598119D01*
X127888633Y-102506914D01*
X127823027Y-102426973D01*
X127743086Y-102361367D01*
X127651881Y-102312617D01*
X127552918Y-102282597D01*
X127450000Y-102272460D01*
X126656250Y-102275000D01*
X126525000Y-102406250D01*
X126525000Y-103675000D01*
X126545000Y-103675000D01*
X126545000Y-103725000D01*
X126525000Y-103725000D01*
X126525000Y-104993750D01*
X126656250Y-105125000D01*
X127450000Y-105127540D01*
X127552918Y-105117403D01*
X127651881Y-105087383D01*
X127723599Y-105049049D01*
X127722460Y-105450000D01*
X127732597Y-105552918D01*
X127762617Y-105651881D01*
X127811367Y-105743086D01*
X127876973Y-105823027D01*
X127956914Y-105888633D01*
X127982103Y-105902097D01*
X127972460Y-106000000D01*
X127972460Y-106400000D01*
X127982597Y-106502918D01*
X127989295Y-106525000D01*
X127982597Y-106547082D01*
X127972460Y-106650000D01*
X127972460Y-107050000D01*
X127982597Y-107152918D01*
X127989295Y-107175000D01*
X127982597Y-107197082D01*
X127972460Y-107300000D01*
X127972460Y-107700000D01*
X127982597Y-107802918D01*
X127989295Y-107825000D01*
X127982597Y-107847082D01*
X127972460Y-107950000D01*
X127972460Y-108350000D01*
X127982597Y-108452918D01*
X127989295Y-108475000D01*
X127982597Y-108497082D01*
X127972460Y-108600000D01*
X127975000Y-108643750D01*
X128106250Y-108775000D01*
X128190302Y-108775000D01*
X128206914Y-108788633D01*
X128274952Y-108825000D01*
X128106250Y-108825000D01*
X127975000Y-108956250D01*
X127972460Y-109000000D01*
X127982103Y-109097903D01*
X127956914Y-109111367D01*
X127876973Y-109176973D01*
X127811367Y-109256914D01*
X127762617Y-109348119D01*
X127732597Y-109447082D01*
X127722460Y-109550000D01*
X127723599Y-109950951D01*
X127651881Y-109912617D01*
X127552918Y-109882597D01*
X127450000Y-109872460D01*
X126656250Y-109875000D01*
X126525000Y-110006250D01*
X126525000Y-111275000D01*
X126545000Y-111275000D01*
X126545000Y-111325000D01*
X126525000Y-111325000D01*
X126525000Y-112593750D01*
X126656250Y-112725000D01*
X127450000Y-112727540D01*
X127552918Y-112717403D01*
X127651881Y-112687383D01*
X127743086Y-112638633D01*
X127823027Y-112573027D01*
X127888633Y-112493086D01*
X127937383Y-112401881D01*
X127967403Y-112302918D01*
X127977540Y-112200000D01*
X127977197Y-112099474D01*
X128048119Y-112137383D01*
X128147082Y-112167403D01*
X128250000Y-112177540D01*
X128893750Y-112175000D01*
X129025000Y-112043750D01*
X129025000Y-110625000D01*
X129075000Y-110625000D01*
X129075000Y-112043750D01*
X129206250Y-112175000D01*
X129850000Y-112177540D01*
X129952918Y-112167403D01*
X130051881Y-112137383D01*
X130143086Y-112088633D01*
X130223027Y-112023027D01*
X130288633Y-111943086D01*
X130337383Y-111851881D01*
X130367403Y-111752918D01*
X130377540Y-111650000D01*
X130375000Y-110756250D01*
X130243750Y-110625000D01*
X129075000Y-110625000D01*
X129025000Y-110625000D01*
X129005000Y-110625000D01*
X129005000Y-110575000D01*
X129025000Y-110575000D01*
X129025000Y-110555000D01*
X129075000Y-110555000D01*
X129075000Y-110575000D01*
X130243750Y-110575000D01*
X130375000Y-110443750D01*
X130377540Y-109550000D01*
X130375291Y-109527165D01*
X130500000Y-109527540D01*
X130602918Y-109517403D01*
X130701881Y-109487383D01*
X130793086Y-109438633D01*
X130873027Y-109373027D01*
X130938633Y-109293086D01*
X130987383Y-109201881D01*
X131017403Y-109102918D01*
X131027540Y-109000000D01*
X131025000Y-108956250D01*
X130893750Y-108825000D01*
X130725048Y-108825000D01*
X130793086Y-108788633D01*
X130809698Y-108775000D01*
X130893750Y-108775000D01*
X130956724Y-108712026D01*
X131325432Y-109080735D01*
X131325433Y-111466204D01*
X130952620Y-111839017D01*
X130855923Y-111956842D01*
X130784071Y-112091269D01*
X130739824Y-112237130D01*
X130724884Y-112388820D01*
X130739824Y-112540510D01*
X130784071Y-112686371D01*
X130855923Y-112820798D01*
X130952620Y-112938623D01*
X131412241Y-113398244D01*
X131530066Y-113494941D01*
X131664493Y-113566793D01*
X131810354Y-113611040D01*
X131962044Y-113625980D01*
X132113734Y-113611040D01*
X132222337Y-113578095D01*
X132189392Y-113686698D01*
X132174452Y-113838388D01*
X132189392Y-113990078D01*
X132233639Y-114135939D01*
X132305491Y-114270366D01*
X132402188Y-114388191D01*
X132861809Y-114847812D01*
X132979634Y-114944509D01*
X133114061Y-115016361D01*
X133259922Y-115060608D01*
X133411612Y-115075548D01*
X133563302Y-115060608D01*
X133707974Y-115016722D01*
X132899264Y-115825432D01*
X131783795Y-115825432D01*
X131410983Y-115452620D01*
X131293158Y-115355923D01*
X131158731Y-115284071D01*
X131012870Y-115239824D01*
X130861180Y-115224884D01*
X130709490Y-115239824D01*
X130563629Y-115284071D01*
X130429202Y-115355923D01*
X130311377Y-115452620D01*
X129851756Y-115912241D01*
X129755059Y-116030066D01*
X129683207Y-116164493D01*
X129638960Y-116310354D01*
X129624020Y-116462044D01*
X129638960Y-116613734D01*
X129671905Y-116722337D01*
X129563302Y-116689392D01*
X129411612Y-116674452D01*
X129259922Y-116689392D01*
X129114061Y-116733639D01*
X128979634Y-116805491D01*
X128861809Y-116902188D01*
X128402188Y-117361809D01*
X128305491Y-117479634D01*
X128233639Y-117614061D01*
X128189392Y-117759922D01*
X128174452Y-117911612D01*
X128189392Y-118063302D01*
X128233639Y-118209163D01*
X128305491Y-118343590D01*
X128402188Y-118461415D01*
X128775001Y-118834228D01*
X128775000Y-119714403D01*
X128771494Y-119750000D01*
X128775000Y-119785597D01*
X128775000Y-119785606D01*
X128785491Y-119892124D01*
X128826947Y-120028787D01*
X128894269Y-120154736D01*
X128984868Y-120265131D01*
X129012524Y-120287828D01*
X132367447Y-123642752D01*
X132390143Y-123670407D01*
X132417798Y-123693103D01*
X132417800Y-123693105D01*
X132460938Y-123728507D01*
X132500538Y-123761006D01*
X132626487Y-123828328D01*
X132763150Y-123869784D01*
X132869668Y-123880275D01*
X132869677Y-123880275D01*
X132905274Y-123883781D01*
X132940871Y-123880275D01*
X133909636Y-123880275D01*
X134479361Y-124450000D01*
X125550000Y-124450000D01*
X125550000Y-122325178D01*
X125725000Y-122325178D01*
X125725000Y-122674822D01*
X125793213Y-123017748D01*
X125927016Y-123340778D01*
X126121268Y-123631496D01*
X126368504Y-123878732D01*
X126659222Y-124072984D01*
X126982252Y-124206787D01*
X127325178Y-124275000D01*
X127674822Y-124275000D01*
X128017748Y-124206787D01*
X128340778Y-124072984D01*
X128631496Y-123878732D01*
X128878732Y-123631496D01*
X129072984Y-123340778D01*
X129206787Y-123017748D01*
X129275000Y-122674822D01*
X129275000Y-122325178D01*
X129206787Y-121982252D01*
X129072984Y-121659222D01*
X128878732Y-121368504D01*
X128631496Y-121121268D01*
X128340778Y-120927016D01*
X128017748Y-120793213D01*
X127674822Y-120725000D01*
X127325178Y-120725000D01*
X126982252Y-120793213D01*
X126659222Y-120927016D01*
X126368504Y-121121268D01*
X126121268Y-121368504D01*
X125927016Y-121659222D01*
X125793213Y-121982252D01*
X125725000Y-122325178D01*
X125550000Y-122325178D01*
X125550000Y-112727540D01*
X126343750Y-112725000D01*
X126475000Y-112593750D01*
X126475000Y-111325000D01*
X126455000Y-111325000D01*
X126455000Y-111275000D01*
X126475000Y-111275000D01*
X126475000Y-110006250D01*
X126343750Y-109875000D01*
X125550000Y-109872460D01*
X125550000Y-105127540D01*
X126343750Y-105125000D01*
X126475000Y-104993750D01*
X126475000Y-103725000D01*
X126455000Y-103725000D01*
X126455000Y-103675000D01*
X126475000Y-103675000D01*
X126475000Y-102406250D01*
X126343750Y-102275000D01*
X125550000Y-102272460D01*
X125550000Y-95950000D01*
X132647460Y-95950000D01*
X132657597Y-96052918D01*
X132687617Y-96151881D01*
X132736367Y-96243086D01*
X132801973Y-96323027D01*
X132881914Y-96388633D01*
X132973119Y-96437383D01*
X133072082Y-96467403D01*
X133175000Y-96477540D01*
X133593750Y-96475000D01*
X133725000Y-96343750D01*
X133725000Y-95275000D01*
X132781250Y-95275000D01*
X132650000Y-95406250D01*
X132647460Y-95950000D01*
X125550000Y-95950000D01*
X125550000Y-93825178D01*
X125725000Y-93825178D01*
X125725000Y-94174822D01*
X125793213Y-94517748D01*
X125927016Y-94840778D01*
X126121268Y-95131496D01*
X126368504Y-95378732D01*
X126659222Y-95572984D01*
X126982252Y-95706787D01*
X127325178Y-95775000D01*
X127674822Y-95775000D01*
X128017748Y-95706787D01*
X128340778Y-95572984D01*
X128631496Y-95378732D01*
X128878732Y-95131496D01*
X129072984Y-94840778D01*
X129193427Y-94550000D01*
X132647460Y-94550000D01*
X132650000Y-95093750D01*
X132781250Y-95225000D01*
X133725000Y-95225000D01*
X133725000Y-94156250D01*
X133593750Y-94025000D01*
X133175000Y-94022460D01*
X133072082Y-94032597D01*
X132973119Y-94062617D01*
X132881914Y-94111367D01*
X132801973Y-94176973D01*
X132736367Y-94256914D01*
X132687617Y-94348119D01*
X132657597Y-94447082D01*
X132647460Y-94550000D01*
X129193427Y-94550000D01*
X129206787Y-94517748D01*
X129275000Y-94174822D01*
X129275000Y-93825178D01*
X129206787Y-93482252D01*
X129072984Y-93159222D01*
X128878732Y-92868504D01*
X128860228Y-92850000D01*
X137522460Y-92850000D01*
X137525000Y-93543750D01*
X137656250Y-93675000D01*
X138875000Y-93675000D01*
X138875000Y-92456250D01*
X138743750Y-92325000D01*
X138050000Y-92322460D01*
X137947082Y-92332597D01*
X137848119Y-92362617D01*
X137756914Y-92411367D01*
X137676973Y-92476973D01*
X137611367Y-92556914D01*
X137562617Y-92648119D01*
X137532597Y-92747082D01*
X137522460Y-92850000D01*
X128860228Y-92850000D01*
X128631496Y-92621268D01*
X128340778Y-92427016D01*
X128017748Y-92293213D01*
X127674822Y-92225000D01*
X127325178Y-92225000D01*
X126982252Y-92293213D01*
X126659222Y-92427016D01*
X126368504Y-92621268D01*
X126121268Y-92868504D01*
X125927016Y-93159222D01*
X125793213Y-93482252D01*
X125725000Y-93825178D01*
X125550000Y-93825178D01*
X125550000Y-92050000D01*
X142064695Y-92050000D01*
X141754145Y-92360550D01*
G37*
X141754145Y-92360550D02*
X141575426Y-92325000D01*
X141304574Y-92325000D01*
X141038927Y-92377841D01*
X140788693Y-92481491D01*
X140563489Y-92631968D01*
X140371968Y-92823489D01*
X140277117Y-92965443D01*
X140277540Y-92850000D01*
X140267403Y-92747082D01*
X140237383Y-92648119D01*
X140188633Y-92556914D01*
X140123027Y-92476973D01*
X140043086Y-92411367D01*
X139951881Y-92362617D01*
X139852918Y-92332597D01*
X139750000Y-92322460D01*
X139056250Y-92325000D01*
X138925000Y-92456250D01*
X138925000Y-93675000D01*
X138945000Y-93675000D01*
X138945000Y-93725000D01*
X138925000Y-93725000D01*
X138925000Y-94943750D01*
X139056250Y-95075000D01*
X139750000Y-95077540D01*
X139852918Y-95067403D01*
X139951881Y-95037383D01*
X140043086Y-94988633D01*
X140123027Y-94923027D01*
X140188633Y-94843086D01*
X140237383Y-94751881D01*
X140267403Y-94652918D01*
X140277540Y-94550000D01*
X140277117Y-94434557D01*
X140371968Y-94576511D01*
X140563489Y-94768032D01*
X140788693Y-94918509D01*
X141038927Y-95022159D01*
X141304574Y-95075000D01*
X141575426Y-95075000D01*
X141841073Y-95022159D01*
X142091307Y-94918509D01*
X142316511Y-94768032D01*
X142508032Y-94576511D01*
X142658509Y-94351307D01*
X142710000Y-94226996D01*
X142761491Y-94351307D01*
X142911968Y-94576511D01*
X143103489Y-94768032D01*
X143205001Y-94835860D01*
X143205001Y-94998984D01*
X142931525Y-95272460D01*
X142474999Y-95272460D01*
X142323309Y-95287400D01*
X142177448Y-95331647D01*
X142043021Y-95403499D01*
X141925196Y-95500196D01*
X141828499Y-95618021D01*
X141775000Y-95718112D01*
X141721501Y-95618021D01*
X141624804Y-95500196D01*
X141506979Y-95403499D01*
X141372552Y-95331647D01*
X141226691Y-95287400D01*
X141075001Y-95272460D01*
X140424999Y-95272460D01*
X140273309Y-95287400D01*
X140127448Y-95331647D01*
X139993021Y-95403499D01*
X139875196Y-95500196D01*
X139778499Y-95618021D01*
X139721318Y-95725000D01*
X139538063Y-95725000D01*
X139500000Y-95721251D01*
X139461937Y-95725000D01*
X139461935Y-95725000D01*
X139348074Y-95736214D01*
X139235987Y-95770216D01*
X139201985Y-95780530D01*
X139067349Y-95852494D01*
X139011524Y-95898309D01*
X138949341Y-95949341D01*
X138925076Y-95978908D01*
X138276764Y-96627221D01*
X138201673Y-96650000D01*
X137575000Y-96650000D01*
X137575000Y-96169207D01*
X137579354Y-96125000D01*
X137561977Y-95948569D01*
X137538343Y-95870659D01*
X137510514Y-95778919D01*
X137426943Y-95622568D01*
X137314475Y-95485525D01*
X137280135Y-95457343D01*
X136902540Y-95079748D01*
X136902540Y-94799999D01*
X136887600Y-94648309D01*
X136857778Y-94550000D01*
X137522460Y-94550000D01*
X137532597Y-94652918D01*
X137562617Y-94751881D01*
X137611367Y-94843086D01*
X137676973Y-94923027D01*
X137756914Y-94988633D01*
X137848119Y-95037383D01*
X137947082Y-95067403D01*
X138050000Y-95077540D01*
X138743750Y-95075000D01*
X138875000Y-94943750D01*
X138875000Y-93725000D01*
X137656250Y-93725000D01*
X137525000Y-93856250D01*
X137522460Y-94550000D01*
X136857778Y-94550000D01*
X136843353Y-94502448D01*
X136771501Y-94368021D01*
X136674804Y-94250196D01*
X136556979Y-94153499D01*
X136422552Y-94081647D01*
X136276691Y-94037400D01*
X136125001Y-94022460D01*
X135474999Y-94022460D01*
X135323309Y-94037400D01*
X135177448Y-94081647D01*
X135043021Y-94153499D01*
X134925196Y-94250196D01*
X134828499Y-94368021D01*
X134822069Y-94380050D01*
X134812383Y-94348119D01*
X134763633Y-94256914D01*
X134698027Y-94176973D01*
X134618086Y-94111367D01*
X134526881Y-94062617D01*
X134427918Y-94032597D01*
X134325000Y-94022460D01*
X133906250Y-94025000D01*
X133775000Y-94156250D01*
X133775000Y-95225000D01*
X133795000Y-95225000D01*
X133795000Y-95275000D01*
X133775000Y-95275000D01*
X133775000Y-96343750D01*
X133906250Y-96475000D01*
X134325000Y-96477540D01*
X134427918Y-96467403D01*
X134526881Y-96437383D01*
X134618086Y-96388633D01*
X134698027Y-96323027D01*
X134763633Y-96243086D01*
X134812383Y-96151881D01*
X134822069Y-96119950D01*
X134828499Y-96131979D01*
X134925196Y-96249804D01*
X135043021Y-96346501D01*
X135177448Y-96418353D01*
X135323309Y-96462600D01*
X135474999Y-96477540D01*
X135754748Y-96477540D01*
X135775001Y-96497793D01*
X135775001Y-96774629D01*
X135696914Y-96816367D01*
X135616973Y-96881973D01*
X135551367Y-96961914D01*
X135502617Y-97053119D01*
X135500000Y-97061746D01*
X135497383Y-97053119D01*
X135448633Y-96961914D01*
X135383027Y-96881973D01*
X135303086Y-96816367D01*
X135211881Y-96767617D01*
X135112918Y-96737597D01*
X135010000Y-96727460D01*
X134695354Y-96727460D01*
X134671081Y-96714486D01*
X134501431Y-96663023D01*
X134369207Y-96650000D01*
X133304204Y-96650000D01*
X133259997Y-96645646D01*
X133215791Y-96650000D01*
X133083567Y-96663023D01*
X132913917Y-96714486D01*
X132757566Y-96798057D01*
X132620523Y-96910525D01*
X132592343Y-96944863D01*
X132144861Y-97392345D01*
X132110526Y-97420523D01*
X132082348Y-97454858D01*
X132082345Y-97454861D01*
X131998057Y-97557567D01*
X131914487Y-97713917D01*
X131863023Y-97883568D01*
X131845646Y-98059998D01*
X131850001Y-98104214D01*
X131850000Y-98955793D01*
X131845646Y-99000000D01*
X131854283Y-99087695D01*
X131863023Y-99176430D01*
X131914486Y-99346080D01*
X131998057Y-99502431D01*
X132110525Y-99639475D01*
X132144865Y-99667657D01*
X132532343Y-100055135D01*
X132560525Y-100089475D01*
X132697568Y-100201943D01*
X132853919Y-100285514D01*
X133023569Y-100336977D01*
X133155793Y-100350000D01*
X133155795Y-100350000D01*
X133199999Y-100354354D01*
X133244203Y-100350000D01*
X133550001Y-100350000D01*
X133550001Y-100530897D01*
X133478499Y-100618021D01*
X133474769Y-100625000D01*
X133016969Y-100625000D01*
X132924804Y-100512696D01*
X132806978Y-100415999D01*
X132672552Y-100344147D01*
X132526691Y-100299900D01*
X132375000Y-100284960D01*
X131125000Y-100284960D01*
X130973309Y-100299900D01*
X130827448Y-100344147D01*
X130693022Y-100415999D01*
X130575196Y-100512696D01*
X130478499Y-100630522D01*
X130406647Y-100764948D01*
X130362400Y-100910809D01*
X130347460Y-101062500D01*
X130347460Y-101987500D01*
X130362400Y-102139191D01*
X130406647Y-102285052D01*
X130478499Y-102419478D01*
X130575196Y-102537304D01*
X130693022Y-102634001D01*
X130827448Y-102705853D01*
X130973309Y-102750100D01*
X131125000Y-102765040D01*
X132375000Y-102765040D01*
X132526691Y-102750100D01*
X132672552Y-102705853D01*
X132806978Y-102634001D01*
X132924804Y-102537304D01*
X133016969Y-102425000D01*
X133513806Y-102425000D01*
X133575196Y-102499804D01*
X133693021Y-102596501D01*
X133725001Y-102613594D01*
X133725001Y-102899857D01*
X133682665Y-103002064D01*
X133650000Y-103166282D01*
X133650000Y-103333718D01*
X133682665Y-103497936D01*
X133746740Y-103652626D01*
X133839762Y-103791844D01*
X133958156Y-103910238D01*
X134097374Y-104003260D01*
X134252064Y-104067335D01*
X134416282Y-104100000D01*
X134583718Y-104100000D01*
X134747936Y-104067335D01*
X134902626Y-104003260D01*
X135041844Y-103910238D01*
X135160238Y-103791844D01*
X135253260Y-103652626D01*
X135317335Y-103497936D01*
X135350000Y-103333718D01*
X135350000Y-103166282D01*
X135317335Y-103002064D01*
X135253260Y-102847374D01*
X135175000Y-102730249D01*
X135175000Y-102613594D01*
X135206979Y-102596501D01*
X135324804Y-102499804D01*
X135421501Y-102381979D01*
X135427931Y-102369950D01*
X135437617Y-102401881D01*
X135486367Y-102493086D01*
X135551973Y-102573027D01*
X135631914Y-102638633D01*
X135723119Y-102687383D01*
X135822082Y-102717403D01*
X135925000Y-102727540D01*
X136343750Y-102725000D01*
X136475000Y-102593750D01*
X136475000Y-101525000D01*
X136525000Y-101525000D01*
X136525000Y-102593750D01*
X136656250Y-102725000D01*
X137075000Y-102727540D01*
X137177918Y-102717403D01*
X137276881Y-102687383D01*
X137368086Y-102638633D01*
X137448027Y-102573027D01*
X137513633Y-102493086D01*
X137562383Y-102401881D01*
X137592403Y-102302918D01*
X137602540Y-102200000D01*
X137600000Y-101656250D01*
X137468750Y-101525000D01*
X136525000Y-101525000D01*
X136475000Y-101525000D01*
X136455000Y-101525000D01*
X136455000Y-101475000D01*
X136475000Y-101475000D01*
X136475000Y-100406250D01*
X136525000Y-100406250D01*
X136525000Y-101475000D01*
X137468750Y-101475000D01*
X137600000Y-101343750D01*
X137602540Y-100800000D01*
X137592403Y-100697082D01*
X137562383Y-100598119D01*
X137513633Y-100506914D01*
X137448027Y-100426973D01*
X137368086Y-100361367D01*
X137276881Y-100312617D01*
X137177918Y-100282597D01*
X137075000Y-100272460D01*
X136656250Y-100275000D01*
X136525000Y-100406250D01*
X136475000Y-100406250D01*
X136343750Y-100275000D01*
X135925000Y-100272460D01*
X135822082Y-100282597D01*
X135723119Y-100312617D01*
X135631914Y-100361367D01*
X135551973Y-100426973D01*
X135486367Y-100506914D01*
X135437617Y-100598119D01*
X135427931Y-100630050D01*
X135421501Y-100618021D01*
X135350000Y-100530897D01*
X135350000Y-100145132D01*
X135383027Y-100118027D01*
X135448633Y-100038086D01*
X135497383Y-99946881D01*
X135500000Y-99938254D01*
X135502617Y-99946881D01*
X135551367Y-100038086D01*
X135616973Y-100118027D01*
X135696914Y-100183633D01*
X135788119Y-100232383D01*
X135887082Y-100262403D01*
X135990000Y-100272540D01*
X136518750Y-100270000D01*
X136650000Y-100138750D01*
X136650000Y-99475000D01*
X136700000Y-99475000D01*
X136700000Y-100138750D01*
X136831250Y-100270000D01*
X137360000Y-100272540D01*
X137462918Y-100262403D01*
X137561881Y-100232383D01*
X137653086Y-100183633D01*
X137733027Y-100118027D01*
X137798633Y-100038086D01*
X137847383Y-99946881D01*
X137877403Y-99847918D01*
X137887540Y-99745000D01*
X137885000Y-99606250D01*
X137753750Y-99475000D01*
X136700000Y-99475000D01*
X136650000Y-99475000D01*
X136630000Y-99475000D01*
X136630000Y-99425000D01*
X136650000Y-99425000D01*
X136650000Y-98761250D01*
X136700000Y-98761250D01*
X136700000Y-99425000D01*
X137753750Y-99425000D01*
X137885000Y-99293750D01*
X137887540Y-99155000D01*
X137877403Y-99052082D01*
X137847383Y-98953119D01*
X137798633Y-98861914D01*
X137733027Y-98781973D01*
X137653086Y-98716367D01*
X137561881Y-98667617D01*
X137462918Y-98637597D01*
X137360000Y-98627460D01*
X136831250Y-98630000D01*
X136700000Y-98761250D01*
X136650000Y-98761250D01*
X136518750Y-98630000D01*
X135990000Y-98627460D01*
X135887082Y-98637597D01*
X135788119Y-98667617D01*
X135696914Y-98716367D01*
X135616973Y-98781973D01*
X135551367Y-98861914D01*
X135521210Y-98918334D01*
X135527403Y-98897918D01*
X135537540Y-98795000D01*
X135537540Y-98205000D01*
X135527403Y-98102082D01*
X135521210Y-98081666D01*
X135551367Y-98138086D01*
X135616973Y-98218027D01*
X135696914Y-98283633D01*
X135788119Y-98332383D01*
X135887082Y-98362403D01*
X135990000Y-98372540D01*
X136304646Y-98372540D01*
X136328919Y-98385514D01*
X136498569Y-98436977D01*
X136675000Y-98454354D01*
X136719206Y-98450000D01*
X137811981Y-98450000D01*
X137852494Y-98525796D01*
X137868785Y-98545646D01*
X137949341Y-98643805D01*
X137978918Y-98668078D01*
X140191157Y-100880318D01*
X140191157Y-100880319D01*
X140356241Y-101045403D01*
X140384501Y-101098274D01*
X140433670Y-101158187D01*
X140373758Y-101109018D01*
X140320885Y-101080757D01*
X140155802Y-100915674D01*
X139970186Y-100915674D01*
X139884421Y-100997847D01*
X139818815Y-101077789D01*
X139807937Y-101098140D01*
X139787586Y-101109018D01*
X139707645Y-101174624D01*
X139318737Y-101563532D01*
X139253131Y-101643473D01*
X139242253Y-101663824D01*
X139221900Y-101674703D01*
X139141959Y-101740309D01*
X138753051Y-102129217D01*
X138687445Y-102209158D01*
X138676566Y-102229511D01*
X138656215Y-102240389D01*
X138576274Y-102305995D01*
X138187366Y-102694903D01*
X138121760Y-102774844D01*
X138110882Y-102795195D01*
X138090529Y-102806074D01*
X138010588Y-102871680D01*
X137621680Y-103260588D01*
X137556074Y-103340529D01*
X137545195Y-103360882D01*
X137524844Y-103371760D01*
X137444903Y-103437366D01*
X137232771Y-103649498D01*
X137054606Y-103471334D01*
X137003260Y-103347374D01*
X136910238Y-103208156D01*
X136791844Y-103089762D01*
X136652626Y-102996740D01*
X136497936Y-102932665D01*
X136333718Y-102900000D01*
X136166282Y-102900000D01*
X136002064Y-102932665D01*
X135847374Y-102996740D01*
X135708156Y-103089762D01*
X135589762Y-103208156D01*
X135496740Y-103347374D01*
X135432665Y-103502064D01*
X135400000Y-103666282D01*
X135400000Y-103833718D01*
X135432665Y-103997936D01*
X135496740Y-104152626D01*
X135589762Y-104291844D01*
X135708156Y-104410238D01*
X135723095Y-104420220D01*
X135676396Y-104434386D01*
X135553641Y-104500001D01*
X135550447Y-104501708D01*
X135467709Y-104569609D01*
X135467707Y-104569611D01*
X135440052Y-104592307D01*
X135417356Y-104619962D01*
X134844479Y-105192840D01*
X134816825Y-105215535D01*
X134794128Y-105243191D01*
X134794126Y-105243193D01*
X134780290Y-105260052D01*
X134726225Y-105325930D01*
X134658903Y-105451879D01*
X134617447Y-105588542D01*
X134606956Y-105695060D01*
X134606956Y-105695070D01*
X134603450Y-105730667D01*
X134606956Y-105766264D01*
X134606956Y-106203213D01*
X134603450Y-106238810D01*
X134606956Y-106274407D01*
X134606956Y-106274416D01*
X134617447Y-106380934D01*
X134639551Y-106453803D01*
X134638740Y-106462042D01*
X134648877Y-106564960D01*
X134678897Y-106663923D01*
X134727647Y-106755128D01*
X134793253Y-106835069D01*
X135853913Y-107895729D01*
X135933854Y-107961335D01*
X136006191Y-108000000D01*
X135933854Y-108038665D01*
X135853913Y-108104271D01*
X134793253Y-109164931D01*
X134727647Y-109244872D01*
X134678897Y-109336077D01*
X134648877Y-109435040D01*
X134638740Y-109537958D01*
X134648877Y-109640876D01*
X134658456Y-109672453D01*
X134525432Y-109539429D01*
X134525432Y-108836028D01*
X134528938Y-108800431D01*
X134525432Y-108764834D01*
X134525432Y-108764825D01*
X134514941Y-108658307D01*
X134473485Y-108521644D01*
X134406163Y-108395695D01*
X134338262Y-108312957D01*
X134338255Y-108312950D01*
X134315563Y-108285300D01*
X134287914Y-108262609D01*
X132387832Y-106362528D01*
X132365132Y-106334868D01*
X132254737Y-106244269D01*
X132128788Y-106176947D01*
X131992125Y-106135491D01*
X131885607Y-106125000D01*
X131885597Y-106125000D01*
X131850000Y-106121494D01*
X131814403Y-106125000D01*
X131221014Y-106125000D01*
X131605975Y-105740040D01*
X132375000Y-105740040D01*
X132526691Y-105725100D01*
X132672552Y-105680853D01*
X132806978Y-105609001D01*
X132924804Y-105512304D01*
X133021501Y-105394478D01*
X133093353Y-105260052D01*
X133137600Y-105114191D01*
X133152540Y-104962500D01*
X133152540Y-104037500D01*
X133137600Y-103885809D01*
X133093353Y-103739948D01*
X133021501Y-103605522D01*
X132924804Y-103487696D01*
X132806978Y-103390999D01*
X132672552Y-103319147D01*
X132526691Y-103274900D01*
X132375000Y-103259960D01*
X131125000Y-103259960D01*
X130973309Y-103274900D01*
X130827448Y-103319147D01*
X130693022Y-103390999D01*
X130575196Y-103487696D01*
X130478499Y-103605522D01*
X130406647Y-103739948D01*
X130376146Y-103840495D01*
X130377540Y-103350000D01*
X130367403Y-103247082D01*
X130337383Y-103148119D01*
X130288633Y-103056914D01*
X130223027Y-102976973D01*
X130143086Y-102911367D01*
X130051881Y-102862617D01*
X129952918Y-102832597D01*
X129850000Y-102822460D01*
X129206250Y-102825000D01*
X129075000Y-102956250D01*
X129075000Y-104375000D01*
X129095000Y-104375000D01*
X129095000Y-104425000D01*
X129075000Y-104425000D01*
X129075000Y-104445000D01*
X129025000Y-104445000D01*
X129025000Y-104425000D01*
X129005000Y-104425000D01*
X129005000Y-104375000D01*
X129025000Y-104375000D01*
X129025000Y-102956250D01*
X128893750Y-102825000D01*
X128250000Y-102822460D01*
X128147082Y-102832597D01*
X128048119Y-102862617D01*
X127977197Y-102900526D01*
X127977540Y-102800000D01*
X127967403Y-102697082D01*
X127937383Y-102598119D01*
X127888633Y-102506914D01*
X127823027Y-102426973D01*
X127743086Y-102361367D01*
X127651881Y-102312617D01*
X127552918Y-102282597D01*
X127450000Y-102272460D01*
X126656250Y-102275000D01*
X126525000Y-102406250D01*
X126525000Y-103675000D01*
X126545000Y-103675000D01*
X126545000Y-103725000D01*
X126525000Y-103725000D01*
X126525000Y-104993750D01*
X126656250Y-105125000D01*
X127450000Y-105127540D01*
X127552918Y-105117403D01*
X127651881Y-105087383D01*
X127723599Y-105049049D01*
X127722460Y-105450000D01*
X127732597Y-105552918D01*
X127762617Y-105651881D01*
X127811367Y-105743086D01*
X127876973Y-105823027D01*
X127956914Y-105888633D01*
X127982103Y-105902097D01*
X127972460Y-106000000D01*
X127972460Y-106400000D01*
X127982597Y-106502918D01*
X127989295Y-106525000D01*
X127982597Y-106547082D01*
X127972460Y-106650000D01*
X127972460Y-107050000D01*
X127982597Y-107152918D01*
X127989295Y-107175000D01*
X127982597Y-107197082D01*
X127972460Y-107300000D01*
X127972460Y-107700000D01*
X127982597Y-107802918D01*
X127989295Y-107825000D01*
X127982597Y-107847082D01*
X127972460Y-107950000D01*
X127972460Y-108350000D01*
X127982597Y-108452918D01*
X127989295Y-108475000D01*
X127982597Y-108497082D01*
X127972460Y-108600000D01*
X127975000Y-108643750D01*
X128106250Y-108775000D01*
X128190302Y-108775000D01*
X128206914Y-108788633D01*
X128274952Y-108825000D01*
X128106250Y-108825000D01*
X127975000Y-108956250D01*
X127972460Y-109000000D01*
X127982103Y-109097903D01*
X127956914Y-109111367D01*
X127876973Y-109176973D01*
X127811367Y-109256914D01*
X127762617Y-109348119D01*
X127732597Y-109447082D01*
X127722460Y-109550000D01*
X127723599Y-109950951D01*
X127651881Y-109912617D01*
X127552918Y-109882597D01*
X127450000Y-109872460D01*
X126656250Y-109875000D01*
X126525000Y-110006250D01*
X126525000Y-111275000D01*
X126545000Y-111275000D01*
X126545000Y-111325000D01*
X126525000Y-111325000D01*
X126525000Y-112593750D01*
X126656250Y-112725000D01*
X127450000Y-112727540D01*
X127552918Y-112717403D01*
X127651881Y-112687383D01*
X127743086Y-112638633D01*
X127823027Y-112573027D01*
X127888633Y-112493086D01*
X127937383Y-112401881D01*
X127967403Y-112302918D01*
X127977540Y-112200000D01*
X127977197Y-112099474D01*
X128048119Y-112137383D01*
X128147082Y-112167403D01*
X128250000Y-112177540D01*
X128893750Y-112175000D01*
X129025000Y-112043750D01*
X129025000Y-110625000D01*
X129075000Y-110625000D01*
X129075000Y-112043750D01*
X129206250Y-112175000D01*
X129850000Y-112177540D01*
X129952918Y-112167403D01*
X130051881Y-112137383D01*
X130143086Y-112088633D01*
X130223027Y-112023027D01*
X130288633Y-111943086D01*
X130337383Y-111851881D01*
X130367403Y-111752918D01*
X130377540Y-111650000D01*
X130375000Y-110756250D01*
X130243750Y-110625000D01*
X129075000Y-110625000D01*
X129025000Y-110625000D01*
X129005000Y-110625000D01*
X129005000Y-110575000D01*
X129025000Y-110575000D01*
X129025000Y-110555000D01*
X129075000Y-110555000D01*
X129075000Y-110575000D01*
X130243750Y-110575000D01*
X130375000Y-110443750D01*
X130377540Y-109550000D01*
X130375291Y-109527165D01*
X130500000Y-109527540D01*
X130602918Y-109517403D01*
X130701881Y-109487383D01*
X130793086Y-109438633D01*
X130873027Y-109373027D01*
X130938633Y-109293086D01*
X130987383Y-109201881D01*
X131017403Y-109102918D01*
X131027540Y-109000000D01*
X131025000Y-108956250D01*
X130893750Y-108825000D01*
X130725048Y-108825000D01*
X130793086Y-108788633D01*
X130809698Y-108775000D01*
X130893750Y-108775000D01*
X130956724Y-108712026D01*
X131325432Y-109080735D01*
X131325433Y-111466204D01*
X130952620Y-111839017D01*
X130855923Y-111956842D01*
X130784071Y-112091269D01*
X130739824Y-112237130D01*
X130724884Y-112388820D01*
X130739824Y-112540510D01*
X130784071Y-112686371D01*
X130855923Y-112820798D01*
X130952620Y-112938623D01*
X131412241Y-113398244D01*
X131530066Y-113494941D01*
X131664493Y-113566793D01*
X131810354Y-113611040D01*
X131962044Y-113625980D01*
X132113734Y-113611040D01*
X132222337Y-113578095D01*
X132189392Y-113686698D01*
X132174452Y-113838388D01*
X132189392Y-113990078D01*
X132233639Y-114135939D01*
X132305491Y-114270366D01*
X132402188Y-114388191D01*
X132861809Y-114847812D01*
X132979634Y-114944509D01*
X133114061Y-115016361D01*
X133259922Y-115060608D01*
X133411612Y-115075548D01*
X133563302Y-115060608D01*
X133707974Y-115016722D01*
X132899264Y-115825432D01*
X131783795Y-115825432D01*
X131410983Y-115452620D01*
X131293158Y-115355923D01*
X131158731Y-115284071D01*
X131012870Y-115239824D01*
X130861180Y-115224884D01*
X130709490Y-115239824D01*
X130563629Y-115284071D01*
X130429202Y-115355923D01*
X130311377Y-115452620D01*
X129851756Y-115912241D01*
X129755059Y-116030066D01*
X129683207Y-116164493D01*
X129638960Y-116310354D01*
X129624020Y-116462044D01*
X129638960Y-116613734D01*
X129671905Y-116722337D01*
X129563302Y-116689392D01*
X129411612Y-116674452D01*
X129259922Y-116689392D01*
X129114061Y-116733639D01*
X128979634Y-116805491D01*
X128861809Y-116902188D01*
X128402188Y-117361809D01*
X128305491Y-117479634D01*
X128233639Y-117614061D01*
X128189392Y-117759922D01*
X128174452Y-117911612D01*
X128189392Y-118063302D01*
X128233639Y-118209163D01*
X128305491Y-118343590D01*
X128402188Y-118461415D01*
X128775001Y-118834228D01*
X128775000Y-119714403D01*
X128771494Y-119750000D01*
X128775000Y-119785597D01*
X128775000Y-119785606D01*
X128785491Y-119892124D01*
X128826947Y-120028787D01*
X128894269Y-120154736D01*
X128984868Y-120265131D01*
X129012524Y-120287828D01*
X132367447Y-123642752D01*
X132390143Y-123670407D01*
X132417798Y-123693103D01*
X132417800Y-123693105D01*
X132460938Y-123728507D01*
X132500538Y-123761006D01*
X132626487Y-123828328D01*
X132763150Y-123869784D01*
X132869668Y-123880275D01*
X132869677Y-123880275D01*
X132905274Y-123883781D01*
X132940871Y-123880275D01*
X133909636Y-123880275D01*
X134479361Y-124450000D01*
X125550000Y-124450000D01*
X125550000Y-122325178D01*
X125725000Y-122325178D01*
X125725000Y-122674822D01*
X125793213Y-123017748D01*
X125927016Y-123340778D01*
X126121268Y-123631496D01*
X126368504Y-123878732D01*
X126659222Y-124072984D01*
X126982252Y-124206787D01*
X127325178Y-124275000D01*
X127674822Y-124275000D01*
X128017748Y-124206787D01*
X128340778Y-124072984D01*
X128631496Y-123878732D01*
X128878732Y-123631496D01*
X129072984Y-123340778D01*
X129206787Y-123017748D01*
X129275000Y-122674822D01*
X129275000Y-122325178D01*
X129206787Y-121982252D01*
X129072984Y-121659222D01*
X128878732Y-121368504D01*
X128631496Y-121121268D01*
X128340778Y-120927016D01*
X128017748Y-120793213D01*
X127674822Y-120725000D01*
X127325178Y-120725000D01*
X126982252Y-120793213D01*
X126659222Y-120927016D01*
X126368504Y-121121268D01*
X126121268Y-121368504D01*
X125927016Y-121659222D01*
X125793213Y-121982252D01*
X125725000Y-122325178D01*
X125550000Y-122325178D01*
X125550000Y-112727540D01*
X126343750Y-112725000D01*
X126475000Y-112593750D01*
X126475000Y-111325000D01*
X126455000Y-111325000D01*
X126455000Y-111275000D01*
X126475000Y-111275000D01*
X126475000Y-110006250D01*
X126343750Y-109875000D01*
X125550000Y-109872460D01*
X125550000Y-105127540D01*
X126343750Y-105125000D01*
X126475000Y-104993750D01*
X126475000Y-103725000D01*
X126455000Y-103725000D01*
X126455000Y-103675000D01*
X126475000Y-103675000D01*
X126475000Y-102406250D01*
X126343750Y-102275000D01*
X125550000Y-102272460D01*
X125550000Y-95950000D01*
X132647460Y-95950000D01*
X132657597Y-96052918D01*
X132687617Y-96151881D01*
X132736367Y-96243086D01*
X132801973Y-96323027D01*
X132881914Y-96388633D01*
X132973119Y-96437383D01*
X133072082Y-96467403D01*
X133175000Y-96477540D01*
X133593750Y-96475000D01*
X133725000Y-96343750D01*
X133725000Y-95275000D01*
X132781250Y-95275000D01*
X132650000Y-95406250D01*
X132647460Y-95950000D01*
X125550000Y-95950000D01*
X125550000Y-93825178D01*
X125725000Y-93825178D01*
X125725000Y-94174822D01*
X125793213Y-94517748D01*
X125927016Y-94840778D01*
X126121268Y-95131496D01*
X126368504Y-95378732D01*
X126659222Y-95572984D01*
X126982252Y-95706787D01*
X127325178Y-95775000D01*
X127674822Y-95775000D01*
X128017748Y-95706787D01*
X128340778Y-95572984D01*
X128631496Y-95378732D01*
X128878732Y-95131496D01*
X129072984Y-94840778D01*
X129193427Y-94550000D01*
X132647460Y-94550000D01*
X132650000Y-95093750D01*
X132781250Y-95225000D01*
X133725000Y-95225000D01*
X133725000Y-94156250D01*
X133593750Y-94025000D01*
X133175000Y-94022460D01*
X133072082Y-94032597D01*
X132973119Y-94062617D01*
X132881914Y-94111367D01*
X132801973Y-94176973D01*
X132736367Y-94256914D01*
X132687617Y-94348119D01*
X132657597Y-94447082D01*
X132647460Y-94550000D01*
X129193427Y-94550000D01*
X129206787Y-94517748D01*
X129275000Y-94174822D01*
X129275000Y-93825178D01*
X129206787Y-93482252D01*
X129072984Y-93159222D01*
X128878732Y-92868504D01*
X128860228Y-92850000D01*
X137522460Y-92850000D01*
X137525000Y-93543750D01*
X137656250Y-93675000D01*
X138875000Y-93675000D01*
X138875000Y-92456250D01*
X138743750Y-92325000D01*
X138050000Y-92322460D01*
X137947082Y-92332597D01*
X137848119Y-92362617D01*
X137756914Y-92411367D01*
X137676973Y-92476973D01*
X137611367Y-92556914D01*
X137562617Y-92648119D01*
X137532597Y-92747082D01*
X137522460Y-92850000D01*
X128860228Y-92850000D01*
X128631496Y-92621268D01*
X128340778Y-92427016D01*
X128017748Y-92293213D01*
X127674822Y-92225000D01*
X127325178Y-92225000D01*
X126982252Y-92293213D01*
X126659222Y-92427016D01*
X126368504Y-92621268D01*
X126121268Y-92868504D01*
X125927016Y-93159222D01*
X125793213Y-93482252D01*
X125725000Y-93825178D01*
X125550000Y-93825178D01*
X125550000Y-92050000D01*
X142064695Y-92050000D01*
X141754145Y-92360550D01*
G36*
X159950001Y-97695632D02*
G01*
X159872097Y-97663259D01*
X158810355Y-98725000D01*
X159872097Y-99786741D01*
X159950001Y-99754368D01*
X159950001Y-102745632D01*
X159872097Y-102713259D01*
X158810355Y-103775000D01*
X159872097Y-104836741D01*
X159950001Y-104804368D01*
X159950000Y-124450000D01*
X135397273Y-124450000D01*
X136407359Y-123439914D01*
X136472965Y-123359973D01*
X136521715Y-123268768D01*
X136547128Y-123184990D01*
X139641831Y-123184990D01*
X139697292Y-123378119D01*
X139789365Y-123556718D01*
X139914512Y-123713922D01*
X140067923Y-123843691D01*
X140243703Y-123941037D01*
X140435097Y-124002220D01*
X140465010Y-124008168D01*
X140625000Y-123893400D01*
X140625000Y-123025000D01*
X139756554Y-123025000D01*
X139641831Y-123184990D01*
X136547128Y-123184990D01*
X136551735Y-123169805D01*
X136561872Y-123066887D01*
X136551735Y-122963969D01*
X136521715Y-122865006D01*
X136494992Y-122815010D01*
X139641831Y-122815010D01*
X139756554Y-122975000D01*
X140625000Y-122975000D01*
X140625000Y-122106600D01*
X140465010Y-121991832D01*
X140435097Y-121997780D01*
X140243703Y-122058963D01*
X140067923Y-122156309D01*
X139914512Y-122286078D01*
X139789365Y-122443282D01*
X139697292Y-122621881D01*
X139641831Y-122815010D01*
X136494992Y-122815010D01*
X136472965Y-122773801D01*
X136455168Y-122752116D01*
X140252116Y-118955169D01*
X140273801Y-118972965D01*
X140365006Y-119021715D01*
X140463969Y-119051735D01*
X140566887Y-119061872D01*
X140669805Y-119051735D01*
X140768768Y-119021715D01*
X140859973Y-118972965D01*
X140939914Y-118907359D01*
X140975269Y-118872004D01*
X141195000Y-119091735D01*
X141195001Y-122135776D01*
X141056297Y-122058963D01*
X140864903Y-121997780D01*
X140834990Y-121991832D01*
X140675000Y-122106600D01*
X140675000Y-122975000D01*
X140695000Y-122975000D01*
X140695000Y-123025000D01*
X140675000Y-123025000D01*
X140675000Y-123893400D01*
X140834990Y-124008168D01*
X140864903Y-124002220D01*
X141056297Y-123941037D01*
X141232077Y-123843691D01*
X141278699Y-123804254D01*
X141434480Y-123908344D01*
X141621018Y-123985610D01*
X141819046Y-124025000D01*
X142020954Y-124025000D01*
X142218982Y-123985610D01*
X142405520Y-123908344D01*
X142555000Y-123808465D01*
X142704480Y-123908344D01*
X142891018Y-123985610D01*
X143089046Y-124025000D01*
X143290954Y-124025000D01*
X143488982Y-123985610D01*
X143675520Y-123908344D01*
X143825000Y-123808465D01*
X143974480Y-123908344D01*
X144161018Y-123985610D01*
X144359046Y-124025000D01*
X144560954Y-124025000D01*
X144758982Y-123985610D01*
X144945520Y-123908344D01*
X145095000Y-123808465D01*
X145244480Y-123908344D01*
X145431018Y-123985610D01*
X145629046Y-124025000D01*
X145830954Y-124025000D01*
X146028982Y-123985610D01*
X146185273Y-123920873D01*
X146206914Y-123938633D01*
X146298119Y-123987383D01*
X146397082Y-124017403D01*
X146500000Y-124027540D01*
X147500000Y-124027540D01*
X147602918Y-124017403D01*
X147701881Y-123987383D01*
X147793086Y-123938633D01*
X147873027Y-123873027D01*
X147938633Y-123793086D01*
X147987383Y-123701881D01*
X148017403Y-123602918D01*
X148027540Y-123500000D01*
X148027540Y-122500000D01*
X148017403Y-122397082D01*
X147987383Y-122298119D01*
X147938633Y-122206914D01*
X147873027Y-122126973D01*
X147793086Y-122061367D01*
X147701881Y-122012617D01*
X147602918Y-121982597D01*
X147500000Y-121972460D01*
X147355001Y-121972460D01*
X147355001Y-120869106D01*
X147378487Y-120888380D01*
X147469692Y-120937130D01*
X147568655Y-120967150D01*
X147671573Y-120977287D01*
X147774491Y-120967150D01*
X147873454Y-120937130D01*
X147964659Y-120888380D01*
X148044600Y-120822774D01*
X148171035Y-120696339D01*
X148449918Y-120975223D01*
X148439392Y-121009922D01*
X148424452Y-121161612D01*
X148439392Y-121313302D01*
X148483639Y-121459163D01*
X148555491Y-121593590D01*
X148652188Y-121711415D01*
X149288585Y-122347812D01*
X149406410Y-122444509D01*
X149540837Y-122516361D01*
X149686698Y-122560608D01*
X149838388Y-122575548D01*
X149990078Y-122560608D01*
X150135939Y-122516361D01*
X150270366Y-122444509D01*
X150388191Y-122347812D01*
X150410825Y-122325178D01*
X156225000Y-122325178D01*
X156225000Y-122674822D01*
X156293213Y-123017748D01*
X156427016Y-123340778D01*
X156621268Y-123631496D01*
X156868504Y-123878732D01*
X157159222Y-124072984D01*
X157482252Y-124206787D01*
X157825178Y-124275000D01*
X158174822Y-124275000D01*
X158517748Y-124206787D01*
X158840778Y-124072984D01*
X159131496Y-123878732D01*
X159378732Y-123631496D01*
X159572984Y-123340778D01*
X159706787Y-123017748D01*
X159775000Y-122674822D01*
X159775000Y-122325178D01*
X159706787Y-121982252D01*
X159572984Y-121659222D01*
X159378732Y-121368504D01*
X159131496Y-121121268D01*
X158840778Y-120927016D01*
X158517748Y-120793213D01*
X158174822Y-120725000D01*
X157825178Y-120725000D01*
X157482252Y-120793213D01*
X157159222Y-120927016D01*
X156868504Y-121121268D01*
X156621268Y-121368504D01*
X156427016Y-121659222D01*
X156293213Y-121982252D01*
X156225000Y-122325178D01*
X150410825Y-122325178D01*
X150847812Y-121888191D01*
X150944509Y-121770366D01*
X151016361Y-121635939D01*
X151060608Y-121490078D01*
X151075548Y-121338388D01*
X151060608Y-121186698D01*
X151056649Y-121173647D01*
X151086076Y-121189376D01*
X151185039Y-121219397D01*
X151287956Y-121229533D01*
X151390874Y-121219397D01*
X151489837Y-121189376D01*
X151581042Y-121140626D01*
X151660983Y-121075020D01*
X151955288Y-120777123D01*
X151955288Y-120591508D01*
X151199568Y-119835787D01*
X151185426Y-119849930D01*
X151150071Y-119814575D01*
X151164213Y-119800432D01*
X151234923Y-119800432D01*
X151990644Y-120556152D01*
X152176259Y-120556152D01*
X152474156Y-120261847D01*
X152539762Y-120181906D01*
X152588512Y-120090701D01*
X152618533Y-119991738D01*
X152628669Y-119888820D01*
X152618533Y-119785903D01*
X152588512Y-119686940D01*
X152539762Y-119595735D01*
X152474156Y-119515793D01*
X152087871Y-119133100D01*
X151902255Y-119133100D01*
X151234923Y-119800432D01*
X151164213Y-119800432D01*
X150408492Y-119044712D01*
X150222877Y-119044712D01*
X149924980Y-119339017D01*
X149859374Y-119418958D01*
X149810624Y-119510163D01*
X149780603Y-119609126D01*
X149770467Y-119712044D01*
X149780603Y-119814961D01*
X149810624Y-119913924D01*
X149826353Y-119943351D01*
X149813302Y-119939392D01*
X149661612Y-119924452D01*
X149509922Y-119939392D01*
X149475223Y-119949918D01*
X149196339Y-119671035D01*
X150043633Y-118823741D01*
X150443848Y-118823741D01*
X150443848Y-119009356D01*
X151199568Y-119765077D01*
X151866900Y-119097745D01*
X151866900Y-118912129D01*
X151484207Y-118525844D01*
X151404265Y-118460238D01*
X151313060Y-118411488D01*
X151214097Y-118381467D01*
X151111180Y-118371331D01*
X151008262Y-118381467D01*
X150909299Y-118411488D01*
X150818094Y-118460238D01*
X150738153Y-118525844D01*
X150443848Y-118823741D01*
X150043633Y-118823741D01*
X150165920Y-118701454D01*
X150231526Y-118621513D01*
X150280276Y-118530308D01*
X150310296Y-118431345D01*
X150320433Y-118328427D01*
X150310296Y-118225509D01*
X150280276Y-118126546D01*
X150231526Y-118035341D01*
X150165920Y-117955400D01*
X149163207Y-116952687D01*
X154082668Y-116952687D01*
X154082668Y-117138303D01*
X154465361Y-117524588D01*
X154545303Y-117590194D01*
X154636508Y-117638944D01*
X154735471Y-117668965D01*
X154838388Y-117679101D01*
X154941306Y-117668965D01*
X155040269Y-117638944D01*
X155131474Y-117590194D01*
X155211415Y-117524588D01*
X155505720Y-117226691D01*
X155505720Y-117041076D01*
X154750000Y-116285355D01*
X154082668Y-116952687D01*
X149163207Y-116952687D01*
X148396573Y-116186053D01*
X148396573Y-116161612D01*
X153320899Y-116161612D01*
X153331035Y-116264529D01*
X153361056Y-116363492D01*
X153409806Y-116454697D01*
X153475412Y-116534639D01*
X153861697Y-116917332D01*
X154047313Y-116917332D01*
X154714645Y-116250000D01*
X153958924Y-115494280D01*
X153773309Y-115494280D01*
X153475412Y-115788585D01*
X153409806Y-115868526D01*
X153361056Y-115959731D01*
X153331035Y-116058694D01*
X153320899Y-116161612D01*
X148396573Y-116161612D01*
X148396573Y-114633157D01*
X148471212Y-114673053D01*
X148607875Y-114714509D01*
X148714393Y-114725000D01*
X148714403Y-114725000D01*
X148750000Y-114728506D01*
X148785597Y-114725000D01*
X151964403Y-114725000D01*
X152000000Y-114728506D01*
X152035597Y-114725000D01*
X152035607Y-114725000D01*
X152142125Y-114714509D01*
X152278788Y-114673053D01*
X152398529Y-114609049D01*
X152955400Y-115165920D01*
X153035341Y-115231526D01*
X153126546Y-115280276D01*
X153225509Y-115310296D01*
X153328427Y-115320433D01*
X153431345Y-115310296D01*
X153530308Y-115280276D01*
X153621513Y-115231526D01*
X153701454Y-115165920D01*
X154620603Y-114246771D01*
X154899486Y-114525655D01*
X154888960Y-114560354D01*
X154874020Y-114712044D01*
X154888960Y-114863734D01*
X154892919Y-114876785D01*
X154863492Y-114861056D01*
X154764529Y-114831035D01*
X154661612Y-114820899D01*
X154558694Y-114831035D01*
X154459731Y-114861056D01*
X154368526Y-114909806D01*
X154288585Y-114975412D01*
X153994280Y-115273309D01*
X153994280Y-115458924D01*
X154750000Y-116214645D01*
X154764143Y-116200503D01*
X154799498Y-116235858D01*
X154785355Y-116250000D01*
X155541076Y-117005720D01*
X155726691Y-117005720D01*
X156024588Y-116711415D01*
X156090194Y-116631474D01*
X156138944Y-116540269D01*
X156168965Y-116441306D01*
X156179101Y-116338388D01*
X156168965Y-116235471D01*
X156138944Y-116136508D01*
X156123215Y-116107081D01*
X156136266Y-116111040D01*
X156287956Y-116125980D01*
X156439646Y-116111040D01*
X156585507Y-116066793D01*
X156719934Y-115994941D01*
X156837759Y-115898244D01*
X157297380Y-115438623D01*
X157394077Y-115320798D01*
X157465929Y-115186371D01*
X157510176Y-115040510D01*
X157525116Y-114888820D01*
X157510176Y-114737130D01*
X157465929Y-114591269D01*
X157394077Y-114456842D01*
X157297380Y-114339017D01*
X156660983Y-113702620D01*
X156543158Y-113605923D01*
X156408731Y-113534071D01*
X156262870Y-113489824D01*
X156111180Y-113474884D01*
X155959490Y-113489824D01*
X155924791Y-113500350D01*
X155645907Y-113221467D01*
X155822774Y-113044600D01*
X155888380Y-112964659D01*
X155937130Y-112873454D01*
X155967150Y-112774491D01*
X155977287Y-112671573D01*
X155967150Y-112568655D01*
X155937130Y-112469692D01*
X155888380Y-112378487D01*
X155822774Y-112298546D01*
X153701454Y-110177226D01*
X153621513Y-110111620D01*
X153601278Y-110100804D01*
X153660238Y-110041844D01*
X153753260Y-109902626D01*
X153817335Y-109747936D01*
X153850000Y-109583718D01*
X153850000Y-109416282D01*
X153817335Y-109252064D01*
X153816481Y-109250000D01*
X155222460Y-109250000D01*
X155232597Y-109352918D01*
X155262617Y-109451881D01*
X155311367Y-109543086D01*
X155376973Y-109623027D01*
X155456914Y-109688633D01*
X155548119Y-109737383D01*
X155647082Y-109767403D01*
X155750000Y-109777540D01*
X156093750Y-109775000D01*
X156225000Y-109643750D01*
X156225000Y-108775000D01*
X156275000Y-108775000D01*
X156275000Y-109643750D01*
X156406250Y-109775000D01*
X156750000Y-109777540D01*
X156852918Y-109767403D01*
X156951881Y-109737383D01*
X157043086Y-109688633D01*
X157123027Y-109623027D01*
X157188633Y-109543086D01*
X157237383Y-109451881D01*
X157267403Y-109352918D01*
X157277540Y-109250000D01*
X157275000Y-108906250D01*
X157143750Y-108775000D01*
X156275000Y-108775000D01*
X156225000Y-108775000D01*
X155356250Y-108775000D01*
X155225000Y-108906250D01*
X155222460Y-109250000D01*
X153816481Y-109250000D01*
X153753260Y-109097374D01*
X153725000Y-109055080D01*
X153725000Y-108250000D01*
X155222460Y-108250000D01*
X155225000Y-108593750D01*
X155356250Y-108725000D01*
X156225000Y-108725000D01*
X156225000Y-107856250D01*
X156275000Y-107856250D01*
X156275000Y-108725000D01*
X157143750Y-108725000D01*
X157275000Y-108593750D01*
X157277540Y-108250000D01*
X157267403Y-108147082D01*
X157237383Y-108048119D01*
X157188633Y-107956914D01*
X157123027Y-107876973D01*
X157043086Y-107811367D01*
X156951881Y-107762617D01*
X156852918Y-107732597D01*
X156750000Y-107722460D01*
X156406250Y-107725000D01*
X156275000Y-107856250D01*
X156225000Y-107856250D01*
X156093750Y-107725000D01*
X155750000Y-107722460D01*
X155647082Y-107732597D01*
X155548119Y-107762617D01*
X155456914Y-107811367D01*
X155376973Y-107876973D01*
X155311367Y-107956914D01*
X155262617Y-108048119D01*
X155232597Y-108147082D01*
X155222460Y-108250000D01*
X153725000Y-108250000D01*
X153725000Y-106187054D01*
X153728506Y-106151457D01*
X153725000Y-106115860D01*
X153725000Y-106115851D01*
X153714509Y-106009333D01*
X153673053Y-105872670D01*
X153605731Y-105746721D01*
X153586820Y-105723678D01*
X153537830Y-105663983D01*
X153537823Y-105663976D01*
X153515131Y-105636326D01*
X153487482Y-105613635D01*
X153219581Y-105345734D01*
X153362305Y-105392828D01*
X153684896Y-105432500D01*
X154009029Y-105408476D01*
X154322247Y-105321678D01*
X154612513Y-105175441D01*
X154679202Y-105130880D01*
X154786741Y-104872097D01*
X153725000Y-103810355D01*
X153710858Y-103824498D01*
X153675502Y-103789142D01*
X153689645Y-103775000D01*
X153760355Y-103775000D01*
X154822097Y-104836741D01*
X155080880Y-104729202D01*
X155240983Y-104446348D01*
X155342828Y-104137695D01*
X155382500Y-103815104D01*
X155358476Y-103490971D01*
X155271678Y-103177753D01*
X155125441Y-102887487D01*
X155080880Y-102820798D01*
X154822097Y-102713259D01*
X153760355Y-103775000D01*
X153689645Y-103775000D01*
X152627903Y-102713259D01*
X152369120Y-102820798D01*
X152209017Y-103103652D01*
X152107172Y-103412305D01*
X152067500Y-103734896D01*
X152091524Y-104059029D01*
X152152342Y-104278495D01*
X150551750Y-102677903D01*
X152663259Y-102677903D01*
X153725000Y-103739645D01*
X154786741Y-102677903D01*
X154679202Y-102419120D01*
X154396348Y-102259017D01*
X154087695Y-102157172D01*
X153765104Y-102117500D01*
X153440971Y-102141524D01*
X153127753Y-102228322D01*
X152837487Y-102374559D01*
X152770798Y-102419120D01*
X152663259Y-102677903D01*
X150551750Y-102677903D01*
X148973648Y-101099801D01*
X154725000Y-101099801D01*
X154725000Y-101400199D01*
X154783605Y-101694826D01*
X154898562Y-101972358D01*
X155065455Y-102222131D01*
X155277869Y-102434545D01*
X155475000Y-102566264D01*
X155475001Y-105301699D01*
X155456914Y-105311367D01*
X155376973Y-105376973D01*
X155311367Y-105456914D01*
X155262617Y-105548119D01*
X155232597Y-105647082D01*
X155222460Y-105750000D01*
X155222460Y-106750000D01*
X155232597Y-106852918D01*
X155262617Y-106951881D01*
X155311367Y-107043086D01*
X155376973Y-107123027D01*
X155456914Y-107188633D01*
X155548119Y-107237383D01*
X155647082Y-107267403D01*
X155750000Y-107277540D01*
X156750000Y-107277540D01*
X156852918Y-107267403D01*
X156951881Y-107237383D01*
X157043086Y-107188633D01*
X157123027Y-107123027D01*
X157188633Y-107043086D01*
X157237383Y-106951881D01*
X157267403Y-106852918D01*
X157277540Y-106750000D01*
X157277540Y-105750000D01*
X157267403Y-105647082D01*
X157237383Y-105548119D01*
X157188633Y-105456914D01*
X157123027Y-105376973D01*
X157043086Y-105311367D01*
X157025000Y-105301700D01*
X157025000Y-104872097D01*
X157713259Y-104872097D01*
X157820798Y-105130880D01*
X158103652Y-105290983D01*
X158412305Y-105392828D01*
X158734896Y-105432500D01*
X159059029Y-105408476D01*
X159372247Y-105321678D01*
X159662513Y-105175441D01*
X159729202Y-105130880D01*
X159836741Y-104872097D01*
X158775000Y-103810355D01*
X157713259Y-104872097D01*
X157025000Y-104872097D01*
X157025000Y-103734896D01*
X157117500Y-103734896D01*
X157141524Y-104059029D01*
X157228322Y-104372247D01*
X157374559Y-104662513D01*
X157419120Y-104729202D01*
X157677903Y-104836741D01*
X158739645Y-103775000D01*
X157677903Y-102713259D01*
X157419120Y-102820798D01*
X157259017Y-103103652D01*
X157157172Y-103412305D01*
X157117500Y-103734896D01*
X157025000Y-103734896D01*
X157025000Y-102677903D01*
X157713259Y-102677903D01*
X158775000Y-103739645D01*
X159836741Y-102677903D01*
X159729202Y-102419120D01*
X159446348Y-102259017D01*
X159137695Y-102157172D01*
X158815104Y-102117500D01*
X158490971Y-102141524D01*
X158177753Y-102228322D01*
X157887487Y-102374559D01*
X157820798Y-102419120D01*
X157713259Y-102677903D01*
X157025000Y-102677903D01*
X157025000Y-102566264D01*
X157222131Y-102434545D01*
X157434545Y-102222131D01*
X157601438Y-101972358D01*
X157716395Y-101694826D01*
X157775000Y-101400199D01*
X157775000Y-101099801D01*
X157716395Y-100805174D01*
X157601438Y-100527642D01*
X157434545Y-100277869D01*
X157222131Y-100065455D01*
X156972358Y-99898562D01*
X156787755Y-99822097D01*
X157713259Y-99822097D01*
X157820798Y-100080880D01*
X158103652Y-100240983D01*
X158412305Y-100342828D01*
X158734896Y-100382500D01*
X159059029Y-100358476D01*
X159372247Y-100271678D01*
X159662513Y-100125441D01*
X159729202Y-100080880D01*
X159836741Y-99822097D01*
X158775000Y-98760355D01*
X157713259Y-99822097D01*
X156787755Y-99822097D01*
X156694826Y-99783605D01*
X156400199Y-99725000D01*
X156099801Y-99725000D01*
X155805174Y-99783605D01*
X155527642Y-99898562D01*
X155277869Y-100065455D01*
X155065455Y-100277869D01*
X154898562Y-100527642D01*
X154783605Y-100805174D01*
X154725000Y-101099801D01*
X148973648Y-101099801D01*
X147695944Y-99822097D01*
X152663259Y-99822097D01*
X152770798Y-100080880D01*
X153053652Y-100240983D01*
X153362305Y-100342828D01*
X153684896Y-100382500D01*
X154009029Y-100358476D01*
X154322247Y-100271678D01*
X154612513Y-100125441D01*
X154679202Y-100080880D01*
X154786741Y-99822097D01*
X153725000Y-98760355D01*
X152663259Y-99822097D01*
X147695944Y-99822097D01*
X147525000Y-99651154D01*
X147525000Y-98684896D01*
X152067500Y-98684896D01*
X152091524Y-99009029D01*
X152178322Y-99322247D01*
X152324559Y-99612513D01*
X152369120Y-99679202D01*
X152627903Y-99786741D01*
X153689645Y-98725000D01*
X153760355Y-98725000D01*
X154822097Y-99786741D01*
X155080880Y-99679202D01*
X155240983Y-99396348D01*
X155342828Y-99087695D01*
X155382500Y-98765104D01*
X155376556Y-98684896D01*
X157117500Y-98684896D01*
X157141524Y-99009029D01*
X157228322Y-99322247D01*
X157374559Y-99612513D01*
X157419120Y-99679202D01*
X157677903Y-99786741D01*
X158739645Y-98725000D01*
X157677903Y-97663259D01*
X157419120Y-97770798D01*
X157259017Y-98053652D01*
X157157172Y-98362305D01*
X157117500Y-98684896D01*
X155376556Y-98684896D01*
X155358476Y-98440971D01*
X155271678Y-98127753D01*
X155125441Y-97837487D01*
X155080880Y-97770798D01*
X154822097Y-97663259D01*
X153760355Y-98725000D01*
X153689645Y-98725000D01*
X152627903Y-97663259D01*
X152369120Y-97770798D01*
X152209017Y-98053652D01*
X152107172Y-98362305D01*
X152067500Y-98684896D01*
X147525000Y-98684896D01*
X147525000Y-97627903D01*
X152663259Y-97627903D01*
X153725000Y-98689645D01*
X154786741Y-97627903D01*
X157713259Y-97627903D01*
X158775000Y-98689645D01*
X159836741Y-97627903D01*
X159729202Y-97369120D01*
X159446348Y-97209017D01*
X159137695Y-97107172D01*
X158815104Y-97067500D01*
X158490971Y-97091524D01*
X158177753Y-97178322D01*
X157887487Y-97324559D01*
X157820798Y-97369120D01*
X157713259Y-97627903D01*
X154786741Y-97627903D01*
X154679202Y-97369120D01*
X154396348Y-97209017D01*
X154087695Y-97107172D01*
X153765104Y-97067500D01*
X153440971Y-97091524D01*
X153127753Y-97178322D01*
X152837487Y-97324559D01*
X152770798Y-97369120D01*
X152663259Y-97627903D01*
X147525000Y-97627903D01*
X147525000Y-97613594D01*
X147556979Y-97596501D01*
X147674804Y-97499804D01*
X147771501Y-97381979D01*
X147843353Y-97247552D01*
X147887600Y-97101691D01*
X147902540Y-96950001D01*
X147902540Y-96049999D01*
X147887600Y-95898309D01*
X147843353Y-95752448D01*
X147771501Y-95618021D01*
X147674804Y-95500196D01*
X147556979Y-95403499D01*
X147422552Y-95331647D01*
X147295000Y-95292954D01*
X147295000Y-94835860D01*
X147396511Y-94768032D01*
X147588032Y-94576511D01*
X147738509Y-94351307D01*
X147842159Y-94101073D01*
X147895000Y-93835426D01*
X147895000Y-93825178D01*
X156225000Y-93825178D01*
X156225000Y-94174822D01*
X156293213Y-94517748D01*
X156427016Y-94840778D01*
X156621268Y-95131496D01*
X156868504Y-95378732D01*
X157159222Y-95572984D01*
X157482252Y-95706787D01*
X157825178Y-95775000D01*
X158174822Y-95775000D01*
X158517748Y-95706787D01*
X158840778Y-95572984D01*
X159131496Y-95378732D01*
X159378732Y-95131496D01*
X159572984Y-94840778D01*
X159706787Y-94517748D01*
X159775000Y-94174822D01*
X159775000Y-93825178D01*
X159706787Y-93482252D01*
X159572984Y-93159222D01*
X159378732Y-92868504D01*
X159131496Y-92621268D01*
X158840778Y-92427016D01*
X158517748Y-92293213D01*
X158174822Y-92225000D01*
X157825178Y-92225000D01*
X157482252Y-92293213D01*
X157159222Y-92427016D01*
X156868504Y-92621268D01*
X156621268Y-92868504D01*
X156427016Y-93159222D01*
X156293213Y-93482252D01*
X156225000Y-93825178D01*
X147895000Y-93825178D01*
X147895000Y-93564574D01*
X147842159Y-93298927D01*
X147738509Y-93048693D01*
X147588032Y-92823489D01*
X147396511Y-92631968D01*
X147171307Y-92481491D01*
X146921073Y-92377841D01*
X146655426Y-92325000D01*
X146384574Y-92325000D01*
X146118927Y-92377841D01*
X145868693Y-92481491D01*
X145731152Y-92573393D01*
X145717478Y-92562171D01*
X145205306Y-92050000D01*
X159950001Y-92050000D01*
X159950001Y-97695632D01*
G37*
X159950001Y-97695632D02*
X159872097Y-97663259D01*
X158810355Y-98725000D01*
X159872097Y-99786741D01*
X159950001Y-99754368D01*
X159950001Y-102745632D01*
X159872097Y-102713259D01*
X158810355Y-103775000D01*
X159872097Y-104836741D01*
X159950001Y-104804368D01*
X159950000Y-124450000D01*
X135397273Y-124450000D01*
X136407359Y-123439914D01*
X136472965Y-123359973D01*
X136521715Y-123268768D01*
X136547128Y-123184990D01*
X139641831Y-123184990D01*
X139697292Y-123378119D01*
X139789365Y-123556718D01*
X139914512Y-123713922D01*
X140067923Y-123843691D01*
X140243703Y-123941037D01*
X140435097Y-124002220D01*
X140465010Y-124008168D01*
X140625000Y-123893400D01*
X140625000Y-123025000D01*
X139756554Y-123025000D01*
X139641831Y-123184990D01*
X136547128Y-123184990D01*
X136551735Y-123169805D01*
X136561872Y-123066887D01*
X136551735Y-122963969D01*
X136521715Y-122865006D01*
X136494992Y-122815010D01*
X139641831Y-122815010D01*
X139756554Y-122975000D01*
X140625000Y-122975000D01*
X140625000Y-122106600D01*
X140465010Y-121991832D01*
X140435097Y-121997780D01*
X140243703Y-122058963D01*
X140067923Y-122156309D01*
X139914512Y-122286078D01*
X139789365Y-122443282D01*
X139697292Y-122621881D01*
X139641831Y-122815010D01*
X136494992Y-122815010D01*
X136472965Y-122773801D01*
X136455168Y-122752116D01*
X140252116Y-118955169D01*
X140273801Y-118972965D01*
X140365006Y-119021715D01*
X140463969Y-119051735D01*
X140566887Y-119061872D01*
X140669805Y-119051735D01*
X140768768Y-119021715D01*
X140859973Y-118972965D01*
X140939914Y-118907359D01*
X140975269Y-118872004D01*
X141195000Y-119091735D01*
X141195001Y-122135776D01*
X141056297Y-122058963D01*
X140864903Y-121997780D01*
X140834990Y-121991832D01*
X140675000Y-122106600D01*
X140675000Y-122975000D01*
X140695000Y-122975000D01*
X140695000Y-123025000D01*
X140675000Y-123025000D01*
X140675000Y-123893400D01*
X140834990Y-124008168D01*
X140864903Y-124002220D01*
X141056297Y-123941037D01*
X141232077Y-123843691D01*
X141278699Y-123804254D01*
X141434480Y-123908344D01*
X141621018Y-123985610D01*
X141819046Y-124025000D01*
X142020954Y-124025000D01*
X142218982Y-123985610D01*
X142405520Y-123908344D01*
X142555000Y-123808465D01*
X142704480Y-123908344D01*
X142891018Y-123985610D01*
X143089046Y-124025000D01*
X143290954Y-124025000D01*
X143488982Y-123985610D01*
X143675520Y-123908344D01*
X143825000Y-123808465D01*
X143974480Y-123908344D01*
X144161018Y-123985610D01*
X144359046Y-124025000D01*
X144560954Y-124025000D01*
X144758982Y-123985610D01*
X144945520Y-123908344D01*
X145095000Y-123808465D01*
X145244480Y-123908344D01*
X145431018Y-123985610D01*
X145629046Y-124025000D01*
X145830954Y-124025000D01*
X146028982Y-123985610D01*
X146185273Y-123920873D01*
X146206914Y-123938633D01*
X146298119Y-123987383D01*
X146397082Y-124017403D01*
X146500000Y-124027540D01*
X147500000Y-124027540D01*
X147602918Y-124017403D01*
X147701881Y-123987383D01*
X147793086Y-123938633D01*
X147873027Y-123873027D01*
X147938633Y-123793086D01*
X147987383Y-123701881D01*
X148017403Y-123602918D01*
X148027540Y-123500000D01*
X148027540Y-122500000D01*
X148017403Y-122397082D01*
X147987383Y-122298119D01*
X147938633Y-122206914D01*
X147873027Y-122126973D01*
X147793086Y-122061367D01*
X147701881Y-122012617D01*
X147602918Y-121982597D01*
X147500000Y-121972460D01*
X147355001Y-121972460D01*
X147355001Y-120869106D01*
X147378487Y-120888380D01*
X147469692Y-120937130D01*
X147568655Y-120967150D01*
X147671573Y-120977287D01*
X147774491Y-120967150D01*
X147873454Y-120937130D01*
X147964659Y-120888380D01*
X148044600Y-120822774D01*
X148171035Y-120696339D01*
X148449918Y-120975223D01*
X148439392Y-121009922D01*
X148424452Y-121161612D01*
X148439392Y-121313302D01*
X148483639Y-121459163D01*
X148555491Y-121593590D01*
X148652188Y-121711415D01*
X149288585Y-122347812D01*
X149406410Y-122444509D01*
X149540837Y-122516361D01*
X149686698Y-122560608D01*
X149838388Y-122575548D01*
X149990078Y-122560608D01*
X150135939Y-122516361D01*
X150270366Y-122444509D01*
X150388191Y-122347812D01*
X150410825Y-122325178D01*
X156225000Y-122325178D01*
X156225000Y-122674822D01*
X156293213Y-123017748D01*
X156427016Y-123340778D01*
X156621268Y-123631496D01*
X156868504Y-123878732D01*
X157159222Y-124072984D01*
X157482252Y-124206787D01*
X157825178Y-124275000D01*
X158174822Y-124275000D01*
X158517748Y-124206787D01*
X158840778Y-124072984D01*
X159131496Y-123878732D01*
X159378732Y-123631496D01*
X159572984Y-123340778D01*
X159706787Y-123017748D01*
X159775000Y-122674822D01*
X159775000Y-122325178D01*
X159706787Y-121982252D01*
X159572984Y-121659222D01*
X159378732Y-121368504D01*
X159131496Y-121121268D01*
X158840778Y-120927016D01*
X158517748Y-120793213D01*
X158174822Y-120725000D01*
X157825178Y-120725000D01*
X157482252Y-120793213D01*
X157159222Y-120927016D01*
X156868504Y-121121268D01*
X156621268Y-121368504D01*
X156427016Y-121659222D01*
X156293213Y-121982252D01*
X156225000Y-122325178D01*
X150410825Y-122325178D01*
X150847812Y-121888191D01*
X150944509Y-121770366D01*
X151016361Y-121635939D01*
X151060608Y-121490078D01*
X151075548Y-121338388D01*
X151060608Y-121186698D01*
X151056649Y-121173647D01*
X151086076Y-121189376D01*
X151185039Y-121219397D01*
X151287956Y-121229533D01*
X151390874Y-121219397D01*
X151489837Y-121189376D01*
X151581042Y-121140626D01*
X151660983Y-121075020D01*
X151955288Y-120777123D01*
X151955288Y-120591508D01*
X151199568Y-119835787D01*
X151185426Y-119849930D01*
X151150071Y-119814575D01*
X151164213Y-119800432D01*
X151234923Y-119800432D01*
X151990644Y-120556152D01*
X152176259Y-120556152D01*
X152474156Y-120261847D01*
X152539762Y-120181906D01*
X152588512Y-120090701D01*
X152618533Y-119991738D01*
X152628669Y-119888820D01*
X152618533Y-119785903D01*
X152588512Y-119686940D01*
X152539762Y-119595735D01*
X152474156Y-119515793D01*
X152087871Y-119133100D01*
X151902255Y-119133100D01*
X151234923Y-119800432D01*
X151164213Y-119800432D01*
X150408492Y-119044712D01*
X150222877Y-119044712D01*
X149924980Y-119339017D01*
X149859374Y-119418958D01*
X149810624Y-119510163D01*
X149780603Y-119609126D01*
X149770467Y-119712044D01*
X149780603Y-119814961D01*
X149810624Y-119913924D01*
X149826353Y-119943351D01*
X149813302Y-119939392D01*
X149661612Y-119924452D01*
X149509922Y-119939392D01*
X149475223Y-119949918D01*
X149196339Y-119671035D01*
X150043633Y-118823741D01*
X150443848Y-118823741D01*
X150443848Y-119009356D01*
X151199568Y-119765077D01*
X151866900Y-119097745D01*
X151866900Y-118912129D01*
X151484207Y-118525844D01*
X151404265Y-118460238D01*
X151313060Y-118411488D01*
X151214097Y-118381467D01*
X151111180Y-118371331D01*
X151008262Y-118381467D01*
X150909299Y-118411488D01*
X150818094Y-118460238D01*
X150738153Y-118525844D01*
X150443848Y-118823741D01*
X150043633Y-118823741D01*
X150165920Y-118701454D01*
X150231526Y-118621513D01*
X150280276Y-118530308D01*
X150310296Y-118431345D01*
X150320433Y-118328427D01*
X150310296Y-118225509D01*
X150280276Y-118126546D01*
X150231526Y-118035341D01*
X150165920Y-117955400D01*
X149163207Y-116952687D01*
X154082668Y-116952687D01*
X154082668Y-117138303D01*
X154465361Y-117524588D01*
X154545303Y-117590194D01*
X154636508Y-117638944D01*
X154735471Y-117668965D01*
X154838388Y-117679101D01*
X154941306Y-117668965D01*
X155040269Y-117638944D01*
X155131474Y-117590194D01*
X155211415Y-117524588D01*
X155505720Y-117226691D01*
X155505720Y-117041076D01*
X154750000Y-116285355D01*
X154082668Y-116952687D01*
X149163207Y-116952687D01*
X148396573Y-116186053D01*
X148396573Y-116161612D01*
X153320899Y-116161612D01*
X153331035Y-116264529D01*
X153361056Y-116363492D01*
X153409806Y-116454697D01*
X153475412Y-116534639D01*
X153861697Y-116917332D01*
X154047313Y-116917332D01*
X154714645Y-116250000D01*
X153958924Y-115494280D01*
X153773309Y-115494280D01*
X153475412Y-115788585D01*
X153409806Y-115868526D01*
X153361056Y-115959731D01*
X153331035Y-116058694D01*
X153320899Y-116161612D01*
X148396573Y-116161612D01*
X148396573Y-114633157D01*
X148471212Y-114673053D01*
X148607875Y-114714509D01*
X148714393Y-114725000D01*
X148714403Y-114725000D01*
X148750000Y-114728506D01*
X148785597Y-114725000D01*
X151964403Y-114725000D01*
X152000000Y-114728506D01*
X152035597Y-114725000D01*
X152035607Y-114725000D01*
X152142125Y-114714509D01*
X152278788Y-114673053D01*
X152398529Y-114609049D01*
X152955400Y-115165920D01*
X153035341Y-115231526D01*
X153126546Y-115280276D01*
X153225509Y-115310296D01*
X153328427Y-115320433D01*
X153431345Y-115310296D01*
X153530308Y-115280276D01*
X153621513Y-115231526D01*
X153701454Y-115165920D01*
X154620603Y-114246771D01*
X154899486Y-114525655D01*
X154888960Y-114560354D01*
X154874020Y-114712044D01*
X154888960Y-114863734D01*
X154892919Y-114876785D01*
X154863492Y-114861056D01*
X154764529Y-114831035D01*
X154661612Y-114820899D01*
X154558694Y-114831035D01*
X154459731Y-114861056D01*
X154368526Y-114909806D01*
X154288585Y-114975412D01*
X153994280Y-115273309D01*
X153994280Y-115458924D01*
X154750000Y-116214645D01*
X154764143Y-116200503D01*
X154799498Y-116235858D01*
X154785355Y-116250000D01*
X155541076Y-117005720D01*
X155726691Y-117005720D01*
X156024588Y-116711415D01*
X156090194Y-116631474D01*
X156138944Y-116540269D01*
X156168965Y-116441306D01*
X156179101Y-116338388D01*
X156168965Y-116235471D01*
X156138944Y-116136508D01*
X156123215Y-116107081D01*
X156136266Y-116111040D01*
X156287956Y-116125980D01*
X156439646Y-116111040D01*
X156585507Y-116066793D01*
X156719934Y-115994941D01*
X156837759Y-115898244D01*
X157297380Y-115438623D01*
X157394077Y-115320798D01*
X157465929Y-115186371D01*
X157510176Y-115040510D01*
X157525116Y-114888820D01*
X157510176Y-114737130D01*
X157465929Y-114591269D01*
X157394077Y-114456842D01*
X157297380Y-114339017D01*
X156660983Y-113702620D01*
X156543158Y-113605923D01*
X156408731Y-113534071D01*
X156262870Y-113489824D01*
X156111180Y-113474884D01*
X155959490Y-113489824D01*
X155924791Y-113500350D01*
X155645907Y-113221467D01*
X155822774Y-113044600D01*
X155888380Y-112964659D01*
X155937130Y-112873454D01*
X155967150Y-112774491D01*
X155977287Y-112671573D01*
X155967150Y-112568655D01*
X155937130Y-112469692D01*
X155888380Y-112378487D01*
X155822774Y-112298546D01*
X153701454Y-110177226D01*
X153621513Y-110111620D01*
X153601278Y-110100804D01*
X153660238Y-110041844D01*
X153753260Y-109902626D01*
X153817335Y-109747936D01*
X153850000Y-109583718D01*
X153850000Y-109416282D01*
X153817335Y-109252064D01*
X153816481Y-109250000D01*
X155222460Y-109250000D01*
X155232597Y-109352918D01*
X155262617Y-109451881D01*
X155311367Y-109543086D01*
X155376973Y-109623027D01*
X155456914Y-109688633D01*
X155548119Y-109737383D01*
X155647082Y-109767403D01*
X155750000Y-109777540D01*
X156093750Y-109775000D01*
X156225000Y-109643750D01*
X156225000Y-108775000D01*
X156275000Y-108775000D01*
X156275000Y-109643750D01*
X156406250Y-109775000D01*
X156750000Y-109777540D01*
X156852918Y-109767403D01*
X156951881Y-109737383D01*
X157043086Y-109688633D01*
X157123027Y-109623027D01*
X157188633Y-109543086D01*
X157237383Y-109451881D01*
X157267403Y-109352918D01*
X157277540Y-109250000D01*
X157275000Y-108906250D01*
X157143750Y-108775000D01*
X156275000Y-108775000D01*
X156225000Y-108775000D01*
X155356250Y-108775000D01*
X155225000Y-108906250D01*
X155222460Y-109250000D01*
X153816481Y-109250000D01*
X153753260Y-109097374D01*
X153725000Y-109055080D01*
X153725000Y-108250000D01*
X155222460Y-108250000D01*
X155225000Y-108593750D01*
X155356250Y-108725000D01*
X156225000Y-108725000D01*
X156225000Y-107856250D01*
X156275000Y-107856250D01*
X156275000Y-108725000D01*
X157143750Y-108725000D01*
X157275000Y-108593750D01*
X157277540Y-108250000D01*
X157267403Y-108147082D01*
X157237383Y-108048119D01*
X157188633Y-107956914D01*
X157123027Y-107876973D01*
X157043086Y-107811367D01*
X156951881Y-107762617D01*
X156852918Y-107732597D01*
X156750000Y-107722460D01*
X156406250Y-107725000D01*
X156275000Y-107856250D01*
X156225000Y-107856250D01*
X156093750Y-107725000D01*
X155750000Y-107722460D01*
X155647082Y-107732597D01*
X155548119Y-107762617D01*
X155456914Y-107811367D01*
X155376973Y-107876973D01*
X155311367Y-107956914D01*
X155262617Y-108048119D01*
X155232597Y-108147082D01*
X155222460Y-108250000D01*
X153725000Y-108250000D01*
X153725000Y-106187054D01*
X153728506Y-106151457D01*
X153725000Y-106115860D01*
X153725000Y-106115851D01*
X153714509Y-106009333D01*
X153673053Y-105872670D01*
X153605731Y-105746721D01*
X153586820Y-105723678D01*
X153537830Y-105663983D01*
X153537823Y-105663976D01*
X153515131Y-105636326D01*
X153487482Y-105613635D01*
X153219581Y-105345734D01*
X153362305Y-105392828D01*
X153684896Y-105432500D01*
X154009029Y-105408476D01*
X154322247Y-105321678D01*
X154612513Y-105175441D01*
X154679202Y-105130880D01*
X154786741Y-104872097D01*
X153725000Y-103810355D01*
X153710858Y-103824498D01*
X153675502Y-103789142D01*
X153689645Y-103775000D01*
X153760355Y-103775000D01*
X154822097Y-104836741D01*
X155080880Y-104729202D01*
X155240983Y-104446348D01*
X155342828Y-104137695D01*
X155382500Y-103815104D01*
X155358476Y-103490971D01*
X155271678Y-103177753D01*
X155125441Y-102887487D01*
X155080880Y-102820798D01*
X154822097Y-102713259D01*
X153760355Y-103775000D01*
X153689645Y-103775000D01*
X152627903Y-102713259D01*
X152369120Y-102820798D01*
X152209017Y-103103652D01*
X152107172Y-103412305D01*
X152067500Y-103734896D01*
X152091524Y-104059029D01*
X152152342Y-104278495D01*
X150551750Y-102677903D01*
X152663259Y-102677903D01*
X153725000Y-103739645D01*
X154786741Y-102677903D01*
X154679202Y-102419120D01*
X154396348Y-102259017D01*
X154087695Y-102157172D01*
X153765104Y-102117500D01*
X153440971Y-102141524D01*
X153127753Y-102228322D01*
X152837487Y-102374559D01*
X152770798Y-102419120D01*
X152663259Y-102677903D01*
X150551750Y-102677903D01*
X148973648Y-101099801D01*
X154725000Y-101099801D01*
X154725000Y-101400199D01*
X154783605Y-101694826D01*
X154898562Y-101972358D01*
X155065455Y-102222131D01*
X155277869Y-102434545D01*
X155475000Y-102566264D01*
X155475001Y-105301699D01*
X155456914Y-105311367D01*
X155376973Y-105376973D01*
X155311367Y-105456914D01*
X155262617Y-105548119D01*
X155232597Y-105647082D01*
X155222460Y-105750000D01*
X155222460Y-106750000D01*
X155232597Y-106852918D01*
X155262617Y-106951881D01*
X155311367Y-107043086D01*
X155376973Y-107123027D01*
X155456914Y-107188633D01*
X155548119Y-107237383D01*
X155647082Y-107267403D01*
X155750000Y-107277540D01*
X156750000Y-107277540D01*
X156852918Y-107267403D01*
X156951881Y-107237383D01*
X157043086Y-107188633D01*
X157123027Y-107123027D01*
X157188633Y-107043086D01*
X157237383Y-106951881D01*
X157267403Y-106852918D01*
X157277540Y-106750000D01*
X157277540Y-105750000D01*
X157267403Y-105647082D01*
X157237383Y-105548119D01*
X157188633Y-105456914D01*
X157123027Y-105376973D01*
X157043086Y-105311367D01*
X157025000Y-105301700D01*
X157025000Y-104872097D01*
X157713259Y-104872097D01*
X157820798Y-105130880D01*
X158103652Y-105290983D01*
X158412305Y-105392828D01*
X158734896Y-105432500D01*
X159059029Y-105408476D01*
X159372247Y-105321678D01*
X159662513Y-105175441D01*
X159729202Y-105130880D01*
X159836741Y-104872097D01*
X158775000Y-103810355D01*
X157713259Y-104872097D01*
X157025000Y-104872097D01*
X157025000Y-103734896D01*
X157117500Y-103734896D01*
X157141524Y-104059029D01*
X157228322Y-104372247D01*
X157374559Y-104662513D01*
X157419120Y-104729202D01*
X157677903Y-104836741D01*
X158739645Y-103775000D01*
X157677903Y-102713259D01*
X157419120Y-102820798D01*
X157259017Y-103103652D01*
X157157172Y-103412305D01*
X157117500Y-103734896D01*
X157025000Y-103734896D01*
X157025000Y-102677903D01*
X157713259Y-102677903D01*
X158775000Y-103739645D01*
X159836741Y-102677903D01*
X159729202Y-102419120D01*
X159446348Y-102259017D01*
X159137695Y-102157172D01*
X158815104Y-102117500D01*
X158490971Y-102141524D01*
X158177753Y-102228322D01*
X157887487Y-102374559D01*
X157820798Y-102419120D01*
X157713259Y-102677903D01*
X157025000Y-102677903D01*
X157025000Y-102566264D01*
X157222131Y-102434545D01*
X157434545Y-102222131D01*
X157601438Y-101972358D01*
X157716395Y-101694826D01*
X157775000Y-101400199D01*
X157775000Y-101099801D01*
X157716395Y-100805174D01*
X157601438Y-100527642D01*
X157434545Y-100277869D01*
X157222131Y-100065455D01*
X156972358Y-99898562D01*
X156787755Y-99822097D01*
X157713259Y-99822097D01*
X157820798Y-100080880D01*
X158103652Y-100240983D01*
X158412305Y-100342828D01*
X158734896Y-100382500D01*
X159059029Y-100358476D01*
X159372247Y-100271678D01*
X159662513Y-100125441D01*
X159729202Y-100080880D01*
X159836741Y-99822097D01*
X158775000Y-98760355D01*
X157713259Y-99822097D01*
X156787755Y-99822097D01*
X156694826Y-99783605D01*
X156400199Y-99725000D01*
X156099801Y-99725000D01*
X155805174Y-99783605D01*
X155527642Y-99898562D01*
X155277869Y-100065455D01*
X155065455Y-100277869D01*
X154898562Y-100527642D01*
X154783605Y-100805174D01*
X154725000Y-101099801D01*
X148973648Y-101099801D01*
X147695944Y-99822097D01*
X152663259Y-99822097D01*
X152770798Y-100080880D01*
X153053652Y-100240983D01*
X153362305Y-100342828D01*
X153684896Y-100382500D01*
X154009029Y-100358476D01*
X154322247Y-100271678D01*
X154612513Y-100125441D01*
X154679202Y-100080880D01*
X154786741Y-99822097D01*
X153725000Y-98760355D01*
X152663259Y-99822097D01*
X147695944Y-99822097D01*
X147525000Y-99651154D01*
X147525000Y-98684896D01*
X152067500Y-98684896D01*
X152091524Y-99009029D01*
X152178322Y-99322247D01*
X152324559Y-99612513D01*
X152369120Y-99679202D01*
X152627903Y-99786741D01*
X153689645Y-98725000D01*
X153760355Y-98725000D01*
X154822097Y-99786741D01*
X155080880Y-99679202D01*
X155240983Y-99396348D01*
X155342828Y-99087695D01*
X155382500Y-98765104D01*
X155376556Y-98684896D01*
X157117500Y-98684896D01*
X157141524Y-99009029D01*
X157228322Y-99322247D01*
X157374559Y-99612513D01*
X157419120Y-99679202D01*
X157677903Y-99786741D01*
X158739645Y-98725000D01*
X157677903Y-97663259D01*
X157419120Y-97770798D01*
X157259017Y-98053652D01*
X157157172Y-98362305D01*
X157117500Y-98684896D01*
X155376556Y-98684896D01*
X155358476Y-98440971D01*
X155271678Y-98127753D01*
X155125441Y-97837487D01*
X155080880Y-97770798D01*
X154822097Y-97663259D01*
X153760355Y-98725000D01*
X153689645Y-98725000D01*
X152627903Y-97663259D01*
X152369120Y-97770798D01*
X152209017Y-98053652D01*
X152107172Y-98362305D01*
X152067500Y-98684896D01*
X147525000Y-98684896D01*
X147525000Y-97627903D01*
X152663259Y-97627903D01*
X153725000Y-98689645D01*
X154786741Y-97627903D01*
X157713259Y-97627903D01*
X158775000Y-98689645D01*
X159836741Y-97627903D01*
X159729202Y-97369120D01*
X159446348Y-97209017D01*
X159137695Y-97107172D01*
X158815104Y-97067500D01*
X158490971Y-97091524D01*
X158177753Y-97178322D01*
X157887487Y-97324559D01*
X157820798Y-97369120D01*
X157713259Y-97627903D01*
X154786741Y-97627903D01*
X154679202Y-97369120D01*
X154396348Y-97209017D01*
X154087695Y-97107172D01*
X153765104Y-97067500D01*
X153440971Y-97091524D01*
X153127753Y-97178322D01*
X152837487Y-97324559D01*
X152770798Y-97369120D01*
X152663259Y-97627903D01*
X147525000Y-97627903D01*
X147525000Y-97613594D01*
X147556979Y-97596501D01*
X147674804Y-97499804D01*
X147771501Y-97381979D01*
X147843353Y-97247552D01*
X147887600Y-97101691D01*
X147902540Y-96950001D01*
X147902540Y-96049999D01*
X147887600Y-95898309D01*
X147843353Y-95752448D01*
X147771501Y-95618021D01*
X147674804Y-95500196D01*
X147556979Y-95403499D01*
X147422552Y-95331647D01*
X147295000Y-95292954D01*
X147295000Y-94835860D01*
X147396511Y-94768032D01*
X147588032Y-94576511D01*
X147738509Y-94351307D01*
X147842159Y-94101073D01*
X147895000Y-93835426D01*
X147895000Y-93825178D01*
X156225000Y-93825178D01*
X156225000Y-94174822D01*
X156293213Y-94517748D01*
X156427016Y-94840778D01*
X156621268Y-95131496D01*
X156868504Y-95378732D01*
X157159222Y-95572984D01*
X157482252Y-95706787D01*
X157825178Y-95775000D01*
X158174822Y-95775000D01*
X158517748Y-95706787D01*
X158840778Y-95572984D01*
X159131496Y-95378732D01*
X159378732Y-95131496D01*
X159572984Y-94840778D01*
X159706787Y-94517748D01*
X159775000Y-94174822D01*
X159775000Y-93825178D01*
X159706787Y-93482252D01*
X159572984Y-93159222D01*
X159378732Y-92868504D01*
X159131496Y-92621268D01*
X158840778Y-92427016D01*
X158517748Y-92293213D01*
X158174822Y-92225000D01*
X157825178Y-92225000D01*
X157482252Y-92293213D01*
X157159222Y-92427016D01*
X156868504Y-92621268D01*
X156621268Y-92868504D01*
X156427016Y-93159222D01*
X156293213Y-93482252D01*
X156225000Y-93825178D01*
X147895000Y-93825178D01*
X147895000Y-93564574D01*
X147842159Y-93298927D01*
X147738509Y-93048693D01*
X147588032Y-92823489D01*
X147396511Y-92631968D01*
X147171307Y-92481491D01*
X146921073Y-92377841D01*
X146655426Y-92325000D01*
X146384574Y-92325000D01*
X146118927Y-92377841D01*
X145868693Y-92481491D01*
X145731152Y-92573393D01*
X145717478Y-92562171D01*
X145205306Y-92050000D01*
X159950001Y-92050000D01*
X159950001Y-97695632D01*
G36*
X139141959Y-114259691D02*
G01*
X139221900Y-114325297D01*
X139242253Y-114336176D01*
X139253131Y-114356527D01*
X139318737Y-114436468D01*
X139610587Y-114728318D01*
X139575777Y-114843072D01*
X139565286Y-114949590D01*
X139565286Y-114949600D01*
X139561780Y-114985197D01*
X139565286Y-115020794D01*
X139565286Y-115464403D01*
X139561780Y-115500000D01*
X139565286Y-115535597D01*
X139565286Y-115535606D01*
X139575777Y-115642124D01*
X139599317Y-115719724D01*
X139617233Y-115778787D01*
X139684555Y-115904736D01*
X139734309Y-115965361D01*
X139775154Y-116015131D01*
X139802810Y-116037828D01*
X140140834Y-116375853D01*
X139274621Y-117242066D01*
X139209015Y-117322007D01*
X139160265Y-117413212D01*
X139130245Y-117512175D01*
X139120108Y-117615093D01*
X139130245Y-117718011D01*
X139160265Y-117816974D01*
X139209015Y-117908179D01*
X139226811Y-117929864D01*
X135429864Y-121726812D01*
X135408179Y-121709015D01*
X135316974Y-121660265D01*
X135218011Y-121630245D01*
X135115093Y-121620108D01*
X135012175Y-121630245D01*
X134913212Y-121660265D01*
X134822007Y-121709015D01*
X134742066Y-121774621D01*
X134086412Y-122430275D01*
X133205580Y-122430275D01*
X132129303Y-121353999D01*
X132129364Y-121353949D01*
X132565090Y-120914631D01*
X132565090Y-120729015D01*
X131844725Y-120008650D01*
X131830583Y-120022793D01*
X131795227Y-119987437D01*
X131809370Y-119973295D01*
X131880080Y-119973295D01*
X132600445Y-120693660D01*
X132786061Y-120693660D01*
X133225379Y-120257934D01*
X133290985Y-120177992D01*
X133339735Y-120086787D01*
X133369756Y-119987824D01*
X133379892Y-119884907D01*
X133369756Y-119781989D01*
X133339735Y-119683026D01*
X133290985Y-119591821D01*
X133225379Y-119511880D01*
X132874449Y-119164542D01*
X132688834Y-119164542D01*
X131880080Y-119973295D01*
X131809370Y-119973295D01*
X131089005Y-119252930D01*
X130903389Y-119252930D01*
X130464071Y-119688656D01*
X130464021Y-119688717D01*
X130225000Y-119449696D01*
X130225000Y-119031959D01*
X131124360Y-119031959D01*
X131124360Y-119217575D01*
X131844725Y-119937940D01*
X132653478Y-119129186D01*
X132653478Y-118943571D01*
X132306140Y-118592641D01*
X132226199Y-118527035D01*
X132134994Y-118478285D01*
X132036031Y-118448264D01*
X131933113Y-118438128D01*
X131830196Y-118448264D01*
X131731233Y-118478285D01*
X131640028Y-118527035D01*
X131560086Y-118592641D01*
X131124360Y-119031959D01*
X130225000Y-119031959D01*
X130225000Y-119011003D01*
X130597812Y-118638191D01*
X130694509Y-118520366D01*
X130766361Y-118385939D01*
X130810608Y-118240078D01*
X130825548Y-118088388D01*
X130810608Y-117936698D01*
X130777663Y-117828095D01*
X130886266Y-117861040D01*
X131037956Y-117875980D01*
X131189646Y-117861040D01*
X131335507Y-117816793D01*
X131469934Y-117744941D01*
X131587759Y-117648244D01*
X131960571Y-117275432D01*
X133163971Y-117275432D01*
X133199568Y-117278938D01*
X133235165Y-117275432D01*
X133235175Y-117275432D01*
X133341693Y-117264941D01*
X133478356Y-117223485D01*
X133604305Y-117156163D01*
X133714700Y-117065564D01*
X133737400Y-117037904D01*
X135586470Y-115188834D01*
X136664542Y-115188834D01*
X136664542Y-115374449D01*
X137011880Y-115725379D01*
X137091821Y-115790985D01*
X137183026Y-115839735D01*
X137281989Y-115869756D01*
X137384907Y-115879892D01*
X137487824Y-115869756D01*
X137586787Y-115839735D01*
X137677992Y-115790985D01*
X137757934Y-115725379D01*
X138193660Y-115286061D01*
X138193660Y-115100445D01*
X137473295Y-114380080D01*
X136664542Y-115188834D01*
X135586470Y-115188834D01*
X136036983Y-114738321D01*
X136092641Y-114806140D01*
X136443571Y-115153478D01*
X136629186Y-115153478D01*
X137437940Y-114344725D01*
X137423798Y-114330583D01*
X137459153Y-114295228D01*
X137473295Y-114309370D01*
X137487437Y-114295227D01*
X137522793Y-114330583D01*
X137508650Y-114344725D01*
X138229015Y-115065090D01*
X138414631Y-115065090D01*
X138853949Y-114629364D01*
X138919555Y-114549422D01*
X138968305Y-114458217D01*
X138998326Y-114359254D01*
X139008462Y-114256337D01*
X138998326Y-114153419D01*
X138982057Y-114099789D01*
X139141959Y-114259691D01*
G37*
X139141959Y-114259691D02*
X139221900Y-114325297D01*
X139242253Y-114336176D01*
X139253131Y-114356527D01*
X139318737Y-114436468D01*
X139610587Y-114728318D01*
X139575777Y-114843072D01*
X139565286Y-114949590D01*
X139565286Y-114949600D01*
X139561780Y-114985197D01*
X139565286Y-115020794D01*
X139565286Y-115464403D01*
X139561780Y-115500000D01*
X139565286Y-115535597D01*
X139565286Y-115535606D01*
X139575777Y-115642124D01*
X139599317Y-115719724D01*
X139617233Y-115778787D01*
X139684555Y-115904736D01*
X139734309Y-115965361D01*
X139775154Y-116015131D01*
X139802810Y-116037828D01*
X140140834Y-116375853D01*
X139274621Y-117242066D01*
X139209015Y-117322007D01*
X139160265Y-117413212D01*
X139130245Y-117512175D01*
X139120108Y-117615093D01*
X139130245Y-117718011D01*
X139160265Y-117816974D01*
X139209015Y-117908179D01*
X139226811Y-117929864D01*
X135429864Y-121726812D01*
X135408179Y-121709015D01*
X135316974Y-121660265D01*
X135218011Y-121630245D01*
X135115093Y-121620108D01*
X135012175Y-121630245D01*
X134913212Y-121660265D01*
X134822007Y-121709015D01*
X134742066Y-121774621D01*
X134086412Y-122430275D01*
X133205580Y-122430275D01*
X132129303Y-121353999D01*
X132129364Y-121353949D01*
X132565090Y-120914631D01*
X132565090Y-120729015D01*
X131844725Y-120008650D01*
X131830583Y-120022793D01*
X131795227Y-119987437D01*
X131809370Y-119973295D01*
X131880080Y-119973295D01*
X132600445Y-120693660D01*
X132786061Y-120693660D01*
X133225379Y-120257934D01*
X133290985Y-120177992D01*
X133339735Y-120086787D01*
X133369756Y-119987824D01*
X133379892Y-119884907D01*
X133369756Y-119781989D01*
X133339735Y-119683026D01*
X133290985Y-119591821D01*
X133225379Y-119511880D01*
X132874449Y-119164542D01*
X132688834Y-119164542D01*
X131880080Y-119973295D01*
X131809370Y-119973295D01*
X131089005Y-119252930D01*
X130903389Y-119252930D01*
X130464071Y-119688656D01*
X130464021Y-119688717D01*
X130225000Y-119449696D01*
X130225000Y-119031959D01*
X131124360Y-119031959D01*
X131124360Y-119217575D01*
X131844725Y-119937940D01*
X132653478Y-119129186D01*
X132653478Y-118943571D01*
X132306140Y-118592641D01*
X132226199Y-118527035D01*
X132134994Y-118478285D01*
X132036031Y-118448264D01*
X131933113Y-118438128D01*
X131830196Y-118448264D01*
X131731233Y-118478285D01*
X131640028Y-118527035D01*
X131560086Y-118592641D01*
X131124360Y-119031959D01*
X130225000Y-119031959D01*
X130225000Y-119011003D01*
X130597812Y-118638191D01*
X130694509Y-118520366D01*
X130766361Y-118385939D01*
X130810608Y-118240078D01*
X130825548Y-118088388D01*
X130810608Y-117936698D01*
X130777663Y-117828095D01*
X130886266Y-117861040D01*
X131037956Y-117875980D01*
X131189646Y-117861040D01*
X131335507Y-117816793D01*
X131469934Y-117744941D01*
X131587759Y-117648244D01*
X131960571Y-117275432D01*
X133163971Y-117275432D01*
X133199568Y-117278938D01*
X133235165Y-117275432D01*
X133235175Y-117275432D01*
X133341693Y-117264941D01*
X133478356Y-117223485D01*
X133604305Y-117156163D01*
X133714700Y-117065564D01*
X133737400Y-117037904D01*
X135586470Y-115188834D01*
X136664542Y-115188834D01*
X136664542Y-115374449D01*
X137011880Y-115725379D01*
X137091821Y-115790985D01*
X137183026Y-115839735D01*
X137281989Y-115869756D01*
X137384907Y-115879892D01*
X137487824Y-115869756D01*
X137586787Y-115839735D01*
X137677992Y-115790985D01*
X137757934Y-115725379D01*
X138193660Y-115286061D01*
X138193660Y-115100445D01*
X137473295Y-114380080D01*
X136664542Y-115188834D01*
X135586470Y-115188834D01*
X136036983Y-114738321D01*
X136092641Y-114806140D01*
X136443571Y-115153478D01*
X136629186Y-115153478D01*
X137437940Y-114344725D01*
X137423798Y-114330583D01*
X137459153Y-114295228D01*
X137473295Y-114309370D01*
X137487437Y-114295227D01*
X137522793Y-114330583D01*
X137508650Y-114344725D01*
X138229015Y-115065090D01*
X138414631Y-115065090D01*
X138853949Y-114629364D01*
X138919555Y-114549422D01*
X138968305Y-114458217D01*
X138998326Y-114359254D01*
X139008462Y-114256337D01*
X138998326Y-114153419D01*
X138982057Y-114099789D01*
X139141959Y-114259691D01*
G36*
X151525000Y-106950305D02*
G01*
X151525001Y-108943876D01*
X151497936Y-108932665D01*
X151333718Y-108900000D01*
X151166282Y-108900000D01*
X151002064Y-108932665D01*
X150847374Y-108996740D01*
X150708156Y-109089762D01*
X150669867Y-109128051D01*
X149646087Y-108104271D01*
X149566146Y-108038665D01*
X149493810Y-108000000D01*
X149566145Y-107961336D01*
X149646087Y-107895730D01*
X150064136Y-107474089D01*
X150064136Y-107288473D01*
X149608936Y-106833273D01*
X148817860Y-107624349D01*
X148817860Y-107809965D01*
X148900033Y-107895730D01*
X148979975Y-107961336D01*
X149052311Y-108000000D01*
X148979974Y-108038665D01*
X148900033Y-108104271D01*
X148511125Y-108493179D01*
X148445519Y-108573120D01*
X148434641Y-108593471D01*
X148414288Y-108604350D01*
X148334347Y-108669956D01*
X147945439Y-109058864D01*
X147879833Y-109138805D01*
X147868955Y-109159157D01*
X147848603Y-109170035D01*
X147768662Y-109235641D01*
X147379754Y-109624549D01*
X147314148Y-109704490D01*
X147303269Y-109724843D01*
X147282918Y-109735721D01*
X147202977Y-109801327D01*
X146814069Y-110190235D01*
X146748463Y-110270176D01*
X146737585Y-110290527D01*
X146717232Y-110301406D01*
X146637291Y-110367012D01*
X146248383Y-110755920D01*
X146182777Y-110835861D01*
X146171898Y-110856214D01*
X146151547Y-110867092D01*
X146071606Y-110932698D01*
X145682698Y-111321606D01*
X145617092Y-111401547D01*
X145606214Y-111421898D01*
X145585861Y-111432777D01*
X145505920Y-111498383D01*
X145117012Y-111887291D01*
X145051406Y-111967232D01*
X145040527Y-111987585D01*
X145020177Y-111998462D01*
X144940235Y-112064068D01*
X144858062Y-112149833D01*
X144858062Y-112335449D01*
X145023146Y-112500533D01*
X145051406Y-112553404D01*
X145100577Y-112613319D01*
X145040662Y-112564148D01*
X144987791Y-112535888D01*
X144822707Y-112370804D01*
X144822706Y-112370804D01*
X143976901Y-111525000D01*
X144381370Y-111525000D01*
X144419433Y-111528749D01*
X144457496Y-111525000D01*
X144457498Y-111525000D01*
X144571359Y-111513786D01*
X144717447Y-111469470D01*
X144852083Y-111397506D01*
X144970092Y-111300659D01*
X144994365Y-111271082D01*
X148676454Y-107588994D01*
X148782505Y-107588994D01*
X148947589Y-107423910D01*
X149000460Y-107395650D01*
X149080401Y-107330044D01*
X149642552Y-106767894D01*
X149658434Y-106783776D01*
X149644291Y-106797918D01*
X150099491Y-107253118D01*
X150285107Y-107253118D01*
X150706748Y-106835069D01*
X150772354Y-106755127D01*
X150821104Y-106663923D01*
X150851124Y-106564960D01*
X150861260Y-106462042D01*
X150851124Y-106359125D01*
X150821104Y-106260162D01*
X150805312Y-106230617D01*
X151525000Y-106950305D01*
G37*
X151525000Y-106950305D02*
X151525001Y-108943876D01*
X151497936Y-108932665D01*
X151333718Y-108900000D01*
X151166282Y-108900000D01*
X151002064Y-108932665D01*
X150847374Y-108996740D01*
X150708156Y-109089762D01*
X150669867Y-109128051D01*
X149646087Y-108104271D01*
X149566146Y-108038665D01*
X149493810Y-108000000D01*
X149566145Y-107961336D01*
X149646087Y-107895730D01*
X150064136Y-107474089D01*
X150064136Y-107288473D01*
X149608936Y-106833273D01*
X148817860Y-107624349D01*
X148817860Y-107809965D01*
X148900033Y-107895730D01*
X148979975Y-107961336D01*
X149052311Y-108000000D01*
X148979974Y-108038665D01*
X148900033Y-108104271D01*
X148511125Y-108493179D01*
X148445519Y-108573120D01*
X148434641Y-108593471D01*
X148414288Y-108604350D01*
X148334347Y-108669956D01*
X147945439Y-109058864D01*
X147879833Y-109138805D01*
X147868955Y-109159157D01*
X147848603Y-109170035D01*
X147768662Y-109235641D01*
X147379754Y-109624549D01*
X147314148Y-109704490D01*
X147303269Y-109724843D01*
X147282918Y-109735721D01*
X147202977Y-109801327D01*
X146814069Y-110190235D01*
X146748463Y-110270176D01*
X146737585Y-110290527D01*
X146717232Y-110301406D01*
X146637291Y-110367012D01*
X146248383Y-110755920D01*
X146182777Y-110835861D01*
X146171898Y-110856214D01*
X146151547Y-110867092D01*
X146071606Y-110932698D01*
X145682698Y-111321606D01*
X145617092Y-111401547D01*
X145606214Y-111421898D01*
X145585861Y-111432777D01*
X145505920Y-111498383D01*
X145117012Y-111887291D01*
X145051406Y-111967232D01*
X145040527Y-111987585D01*
X145020177Y-111998462D01*
X144940235Y-112064068D01*
X144858062Y-112149833D01*
X144858062Y-112335449D01*
X145023146Y-112500533D01*
X145051406Y-112553404D01*
X145100577Y-112613319D01*
X145040662Y-112564148D01*
X144987791Y-112535888D01*
X144822707Y-112370804D01*
X144822706Y-112370804D01*
X143976901Y-111525000D01*
X144381370Y-111525000D01*
X144419433Y-111528749D01*
X144457496Y-111525000D01*
X144457498Y-111525000D01*
X144571359Y-111513786D01*
X144717447Y-111469470D01*
X144852083Y-111397506D01*
X144970092Y-111300659D01*
X144994365Y-111271082D01*
X148676454Y-107588994D01*
X148782505Y-107588994D01*
X148947589Y-107423910D01*
X149000460Y-107395650D01*
X149080401Y-107330044D01*
X149642552Y-106767894D01*
X149658434Y-106783776D01*
X149644291Y-106797918D01*
X150099491Y-107253118D01*
X150285107Y-107253118D01*
X150706748Y-106835069D01*
X150772354Y-106755127D01*
X150821104Y-106663923D01*
X150851124Y-106564960D01*
X150861260Y-106462042D01*
X150851124Y-106359125D01*
X150821104Y-106260162D01*
X150805312Y-106230617D01*
X151525000Y-106950305D01*
G36*
X137065225Y-106829965D02*
G01*
X137118098Y-106858226D01*
X137283181Y-107023309D01*
X137283182Y-107023309D01*
X140234872Y-109975000D01*
X140038062Y-109975000D01*
X139999999Y-109971251D01*
X139961936Y-109975000D01*
X139961935Y-109975000D01*
X139848074Y-109986214D01*
X139701986Y-110030530D01*
X139641482Y-110062870D01*
X139567349Y-110102494D01*
X139524888Y-110137342D01*
X139449341Y-110199341D01*
X139425072Y-110228913D01*
X138980238Y-110673747D01*
X138980237Y-110673747D01*
X138815152Y-110838832D01*
X138762281Y-110867092D01*
X138702366Y-110916263D01*
X138751537Y-110856348D01*
X138779797Y-110803477D01*
X138944882Y-110638392D01*
X138944882Y-110452776D01*
X138862709Y-110367011D01*
X138782767Y-110301405D01*
X138762414Y-110290526D01*
X138751537Y-110270176D01*
X138685931Y-110190235D01*
X138297023Y-109801327D01*
X138217082Y-109735721D01*
X138196731Y-109724843D01*
X138185852Y-109704490D01*
X138120246Y-109624549D01*
X137731338Y-109235641D01*
X137651397Y-109170035D01*
X137631045Y-109159157D01*
X137620167Y-109138805D01*
X137554561Y-109058864D01*
X137165653Y-108669956D01*
X137085712Y-108604350D01*
X137065359Y-108593471D01*
X137054481Y-108573120D01*
X136988875Y-108493179D01*
X136599967Y-108104271D01*
X136520026Y-108038665D01*
X136447689Y-108000000D01*
X136520026Y-107961335D01*
X136599967Y-107895729D01*
X136988875Y-107506821D01*
X137054481Y-107426880D01*
X137065358Y-107406530D01*
X137085711Y-107395651D01*
X137165653Y-107330045D01*
X137247826Y-107244280D01*
X137247826Y-107058664D01*
X137082741Y-106893579D01*
X137054481Y-106840708D01*
X137005312Y-106780796D01*
X137065225Y-106829965D01*
G37*
X137065225Y-106829965D02*
X137118098Y-106858226D01*
X137283181Y-107023309D01*
X137283182Y-107023309D01*
X140234872Y-109975000D01*
X140038062Y-109975000D01*
X139999999Y-109971251D01*
X139961936Y-109975000D01*
X139961935Y-109975000D01*
X139848074Y-109986214D01*
X139701986Y-110030530D01*
X139641482Y-110062870D01*
X139567349Y-110102494D01*
X139524888Y-110137342D01*
X139449341Y-110199341D01*
X139425072Y-110228913D01*
X138980238Y-110673747D01*
X138980237Y-110673747D01*
X138815152Y-110838832D01*
X138762281Y-110867092D01*
X138702366Y-110916263D01*
X138751537Y-110856348D01*
X138779797Y-110803477D01*
X138944882Y-110638392D01*
X138944882Y-110452776D01*
X138862709Y-110367011D01*
X138782767Y-110301405D01*
X138762414Y-110290526D01*
X138751537Y-110270176D01*
X138685931Y-110190235D01*
X138297023Y-109801327D01*
X138217082Y-109735721D01*
X138196731Y-109724843D01*
X138185852Y-109704490D01*
X138120246Y-109624549D01*
X137731338Y-109235641D01*
X137651397Y-109170035D01*
X137631045Y-109159157D01*
X137620167Y-109138805D01*
X137554561Y-109058864D01*
X137165653Y-108669956D01*
X137085712Y-108604350D01*
X137065359Y-108593471D01*
X137054481Y-108573120D01*
X136988875Y-108493179D01*
X136599967Y-108104271D01*
X136520026Y-108038665D01*
X136447689Y-108000000D01*
X136520026Y-107961335D01*
X136599967Y-107895729D01*
X136988875Y-107506821D01*
X137054481Y-107426880D01*
X137065358Y-107406530D01*
X137085711Y-107395651D01*
X137165653Y-107330045D01*
X137247826Y-107244280D01*
X137247826Y-107058664D01*
X137082741Y-106893579D01*
X137054481Y-106840708D01*
X137005312Y-106780796D01*
X137065225Y-106829965D01*
G36*
X144374549Y-103370246D02*
G01*
X144454490Y-103435852D01*
X144474843Y-103446731D01*
X144485721Y-103467082D01*
X144551327Y-103547023D01*
X144940235Y-103935931D01*
X145020176Y-104001537D01*
X145040527Y-104012415D01*
X145051406Y-104032768D01*
X145117012Y-104112709D01*
X145505920Y-104501617D01*
X145585861Y-104567223D01*
X145606214Y-104578102D01*
X145617092Y-104598453D01*
X145682698Y-104678394D01*
X146071606Y-105067302D01*
X146151547Y-105132908D01*
X146171898Y-105143786D01*
X146182777Y-105164139D01*
X146248383Y-105244080D01*
X146637291Y-105632988D01*
X146717232Y-105698594D01*
X146737585Y-105709473D01*
X146748463Y-105729824D01*
X146814069Y-105809765D01*
X147202977Y-106198673D01*
X147282918Y-106264279D01*
X147303269Y-106275157D01*
X147314148Y-106295510D01*
X147379754Y-106375451D01*
X147538861Y-106534558D01*
X144098419Y-109975000D01*
X144026287Y-109975000D01*
X144025000Y-109961938D01*
X144025000Y-103020697D01*
X144374549Y-103370246D01*
G37*
X144374549Y-103370246D02*
X144454490Y-103435852D01*
X144474843Y-103446731D01*
X144485721Y-103467082D01*
X144551327Y-103547023D01*
X144940235Y-103935931D01*
X145020176Y-104001537D01*
X145040527Y-104012415D01*
X145051406Y-104032768D01*
X145117012Y-104112709D01*
X145505920Y-104501617D01*
X145585861Y-104567223D01*
X145606214Y-104578102D01*
X145617092Y-104598453D01*
X145682698Y-104678394D01*
X146071606Y-105067302D01*
X146151547Y-105132908D01*
X146171898Y-105143786D01*
X146182777Y-105164139D01*
X146248383Y-105244080D01*
X146637291Y-105632988D01*
X146717232Y-105698594D01*
X146737585Y-105709473D01*
X146748463Y-105729824D01*
X146814069Y-105809765D01*
X147202977Y-106198673D01*
X147282918Y-106264279D01*
X147303269Y-106275157D01*
X147314148Y-106295510D01*
X147379754Y-106375451D01*
X147538861Y-106534558D01*
X144098419Y-109975000D01*
X144026287Y-109975000D01*
X144025000Y-109961938D01*
X144025000Y-103020697D01*
X144374549Y-103370246D01*
G36*
X141590708Y-102304481D02*
G01*
X141643579Y-102332741D01*
X141808664Y-102497826D01*
X141808665Y-102497826D01*
X142475000Y-103164162D01*
X142475001Y-109678984D01*
X142340963Y-109813023D01*
X142277540Y-109825638D01*
X138473799Y-106021897D01*
X138685931Y-105809765D01*
X138751537Y-105729824D01*
X138762415Y-105709473D01*
X138782768Y-105698594D01*
X138862709Y-105632988D01*
X139251617Y-105244080D01*
X139317223Y-105164139D01*
X139328102Y-105143786D01*
X139348453Y-105132908D01*
X139428394Y-105067302D01*
X139817302Y-104678394D01*
X139882908Y-104598453D01*
X139893786Y-104578102D01*
X139914139Y-104567223D01*
X139994080Y-104501617D01*
X140382988Y-104112709D01*
X140448594Y-104032768D01*
X140459473Y-104012415D01*
X140479824Y-104001537D01*
X140559765Y-103935931D01*
X140948673Y-103547023D01*
X141014279Y-103467082D01*
X141025157Y-103446731D01*
X141045510Y-103435852D01*
X141125451Y-103370246D01*
X141514359Y-102981338D01*
X141579965Y-102901397D01*
X141590843Y-102881046D01*
X141611194Y-102870168D01*
X141691136Y-102804562D01*
X141773309Y-102718797D01*
X141773309Y-102533181D01*
X141608226Y-102368098D01*
X141579965Y-102315225D01*
X141530796Y-102255312D01*
X141590708Y-102304481D01*
G37*
X141590708Y-102304481D02*
X141643579Y-102332741D01*
X141808664Y-102497826D01*
X141808665Y-102497826D01*
X142475000Y-103164162D01*
X142475001Y-109678984D01*
X142340963Y-109813023D01*
X142277540Y-109825638D01*
X138473799Y-106021897D01*
X138685931Y-105809765D01*
X138751537Y-105729824D01*
X138762415Y-105709473D01*
X138782768Y-105698594D01*
X138862709Y-105632988D01*
X139251617Y-105244080D01*
X139317223Y-105164139D01*
X139328102Y-105143786D01*
X139348453Y-105132908D01*
X139428394Y-105067302D01*
X139817302Y-104678394D01*
X139882908Y-104598453D01*
X139893786Y-104578102D01*
X139914139Y-104567223D01*
X139994080Y-104501617D01*
X140382988Y-104112709D01*
X140448594Y-104032768D01*
X140459473Y-104012415D01*
X140479824Y-104001537D01*
X140559765Y-103935931D01*
X140948673Y-103547023D01*
X141014279Y-103467082D01*
X141025157Y-103446731D01*
X141045510Y-103435852D01*
X141125451Y-103370246D01*
X141514359Y-102981338D01*
X141579965Y-102901397D01*
X141590843Y-102881046D01*
X141611194Y-102870168D01*
X141691136Y-102804562D01*
X141773309Y-102718797D01*
X141773309Y-102533181D01*
X141608226Y-102368098D01*
X141579965Y-102315225D01*
X141530796Y-102255312D01*
X141590708Y-102304481D01*
G36*
X141828499Y-97381979D02*
G01*
X141925196Y-97499804D01*
X142043021Y-97596501D01*
X142177448Y-97668353D01*
X142269360Y-97696235D01*
X142284869Y-97715132D01*
X142312523Y-97737827D01*
X144519386Y-99944690D01*
X144489839Y-99928897D01*
X144390876Y-99898877D01*
X144287958Y-99888740D01*
X144185040Y-99898877D01*
X144086077Y-99928897D01*
X143994872Y-99977647D01*
X143914931Y-100043253D01*
X142854271Y-101103913D01*
X142788665Y-101183854D01*
X142753156Y-101250287D01*
X142739597Y-101236728D01*
X142711335Y-101183854D01*
X142645729Y-101103913D01*
X141585069Y-100043253D01*
X141505128Y-99977647D01*
X141452254Y-99949385D01*
X139338641Y-97835773D01*
X139372779Y-97723236D01*
X139756045Y-97339970D01*
X139778499Y-97381979D01*
X139875196Y-97499804D01*
X139993021Y-97596501D01*
X140127448Y-97668353D01*
X140273309Y-97712600D01*
X140424999Y-97727540D01*
X141075001Y-97727540D01*
X141226691Y-97712600D01*
X141372552Y-97668353D01*
X141506979Y-97596501D01*
X141624804Y-97499804D01*
X141721501Y-97381979D01*
X141775000Y-97281888D01*
X141828499Y-97381979D01*
G37*
X141828499Y-97381979D02*
X141925196Y-97499804D01*
X142043021Y-97596501D01*
X142177448Y-97668353D01*
X142269360Y-97696235D01*
X142284869Y-97715132D01*
X142312523Y-97737827D01*
X144519386Y-99944690D01*
X144489839Y-99928897D01*
X144390876Y-99898877D01*
X144287958Y-99888740D01*
X144185040Y-99898877D01*
X144086077Y-99928897D01*
X143994872Y-99977647D01*
X143914931Y-100043253D01*
X142854271Y-101103913D01*
X142788665Y-101183854D01*
X142753156Y-101250287D01*
X142739597Y-101236728D01*
X142711335Y-101183854D01*
X142645729Y-101103913D01*
X141585069Y-100043253D01*
X141505128Y-99977647D01*
X141452254Y-99949385D01*
X139338641Y-97835773D01*
X139372779Y-97723236D01*
X139756045Y-97339970D01*
X139778499Y-97381979D01*
X139875196Y-97499804D01*
X139993021Y-97596501D01*
X140127448Y-97668353D01*
X140273309Y-97712600D01*
X140424999Y-97727540D01*
X141075001Y-97727540D01*
X141226691Y-97712600D01*
X141372552Y-97668353D01*
X141506979Y-97596501D01*
X141624804Y-97499804D01*
X141721501Y-97381979D01*
X141775000Y-97281888D01*
X141828499Y-97381979D01*
%TD*%
M02*
