M48
; DRILL file {KiCad (5.1.6)-1} date 08/28/20 19:49:56
; FORMAT={-:-/ absolute / inch / decimal}
; #@! TF.CreationDate,2020-08-28T19:49:56-05:00
; #@! TF.GenerationSoftware,Kicad,Pcbnew,(5.1.6)-1
; #@! TF.FileFunction,Plated,1,2,PTH
FMAT,2
INCH
T1C0.0138
T2C0.0217
T3C0.0276
T4C0.0394
T5C0.0492
T6C0.0591
%
G90
G05
T1
X4.9508Y-3.8189
X4.9508Y-3.8583
X4.9508Y-3.8976
X4.9508Y-3.937
X4.9508Y-3.9764
X4.9508Y-4.0157
X4.9508Y-4.1535
X4.9508Y-4.1929
X4.9508Y-4.2323
X4.9508Y-4.2717
X4.9508Y-4.311
X4.9508Y-4.4685
X4.9508Y-4.5079
X4.9508Y-4.5472
X4.9508Y-4.5866
X4.9508Y-4.626
X4.9508Y-4.6654
X4.9508Y-4.7047
X5.1378Y-3.6319
X5.1378Y-4.8917
X5.1772Y-3.6319
X5.1772Y-4.8917
X5.2165Y-3.6319
X5.2165Y-4.8917
X5.2461Y-4.6654
X5.2559Y-3.6319
X5.2559Y-4.8917
X5.2756Y-4.6358
X5.2953Y-3.6319
X5.2953Y-4.065
X5.3051Y-4.6063
X5.3346Y-3.6319
X5.3346Y-4.5768
X5.3642Y-4.0846
X5.3642Y-4.5472
X5.374Y-3.6319
X5.3839Y-4.8917
X5.3937Y-4.252
X5.4134Y-4.2224
X5.4232Y-4.2815
X5.4232Y-4.8917
X5.4429Y-4.252
X5.4528Y-3.8386
X5.4626Y-4.8917
X5.5118Y-4.1535
X5.5315Y-4.3996
X5.5512Y-4.1535
X5.5906Y-4.439
X5.6004Y-3.9469
X5.6398Y-3.9469
X5.6433Y-4.5535
X5.6791Y-4.1535
X5.7185Y-4.1535
X5.7185Y-4.3799
X5.748Y-4.3504
X5.7579Y-4.1535
X5.7874Y-4.1831
X5.7874Y-4.311
X5.8169Y-4.2815
X5.8465Y-4.252
X5.8661Y-4.8917
X5.9055Y-4.8917
X5.9449Y-4.8917
X5.9547Y-3.7598
X5.9547Y-4.3209
X5.9843Y-3.6319
X5.9843Y-4.8917
X6.0236Y-3.6319
X6.0236Y-4.311
X6.0236Y-4.8917
X6.063Y-3.6319
X6.063Y-4.8917
X6.1024Y-3.6319
X6.1024Y-4.8917
X6.2894Y-3.8189
X6.2894Y-4.1535
X6.2894Y-4.1929
X6.2894Y-4.2323
X6.2894Y-4.2717
X6.2894Y-4.311
X6.2894Y-4.3504
X6.2894Y-4.3898
X6.2894Y-4.4291
X6.2894Y-4.4685
X6.2894Y-4.5079
X6.2894Y-4.5472
X6.2894Y-4.5866
X6.2894Y-4.626
X6.2894Y-4.6654
X6.2894Y-4.7047
T2
X5.6102Y-4.3602
T3
X5.5374Y-4.8425
X5.5874Y-4.8425
X5.6374Y-4.8425
X5.6874Y-4.8425
X5.7374Y-4.8425
X5.7874Y-4.8425
T4
X5.4685Y-3.689
X5.5685Y-3.689
X5.6685Y-3.689
X5.7685Y-3.689
T5
X6.1516Y-3.9862
T6
X6.0522Y-3.8868
X6.0522Y-4.0856
X6.251Y-3.8868
X6.251Y-4.0856
T0
M30
