%TF.GenerationSoftware,KiCad,Pcbnew,(5.1.6)-1*%
%TF.CreationDate,2020-09-15T00:55:32-05:00*%
%TF.ProjectId,nrg-control-box,6e72672d-636f-46e7-9472-6f6c2d626f78,B*%
%TF.SameCoordinates,Original*%
%TF.FileFunction,Soldermask,Bot*%
%TF.FilePolarity,Negative*%
%FSLAX46Y46*%
G04 Gerber Fmt 4.6, Leading zero omitted, Abs format (unit mm)*
G04 Created by KiCad (PCBNEW (5.1.6)-1) date 2020-09-15 00:55:32*
%MOMM*%
%LPD*%
G01*
G04 APERTURE LIST*
%ADD10C,2.600000*%
%ADD11R,1.100000X1.100000*%
%ADD12C,2.100000*%
%ADD13C,2.350000*%
%ADD14O,1.100000X1.100000*%
%ADD15R,0.750000X1.160000*%
%ADD16R,1.160000X0.750000*%
%ADD17R,1.800000X1.800000*%
%ADD18O,1.800000X1.800000*%
G04 APERTURE END LIST*
D10*
%TO.C,REF\u002A\u002A*%
X158000000Y-122500000D03*
%TD*%
%TO.C,REF\u002A\u002A*%
X158000000Y-94000000D03*
%TD*%
%TO.C,REF\u002A\u002A*%
X127500000Y-94000000D03*
%TD*%
%TO.C,REF\u002A\u002A*%
X127500000Y-122500000D03*
%TD*%
%TO.C,C1*%
G36*
G01*
X149228262Y-97625000D02*
X148271738Y-97625000D01*
G75*
G02*
X148000000Y-97353262I0J271738D01*
G01*
X148000000Y-96646738D01*
G75*
G02*
X148271738Y-96375000I271738J0D01*
G01*
X149228262Y-96375000D01*
G75*
G02*
X149500000Y-96646738I0J-271738D01*
G01*
X149500000Y-97353262D01*
G75*
G02*
X149228262Y-97625000I-271738J0D01*
G01*
G37*
G36*
G01*
X149228262Y-99675000D02*
X148271738Y-99675000D01*
G75*
G02*
X148000000Y-99403262I0J271738D01*
G01*
X148000000Y-98696738D01*
G75*
G02*
X148271738Y-98425000I271738J0D01*
G01*
X149228262Y-98425000D01*
G75*
G02*
X149500000Y-98696738I0J-271738D01*
G01*
X149500000Y-99403262D01*
G75*
G02*
X149228262Y-99675000I-271738J0D01*
G01*
G37*
%TD*%
%TO.C,C2*%
G36*
G01*
X145021738Y-106350000D02*
X145978262Y-106350000D01*
G75*
G02*
X146250000Y-106621738I0J-271738D01*
G01*
X146250000Y-107328262D01*
G75*
G02*
X145978262Y-107600000I-271738J0D01*
G01*
X145021738Y-107600000D01*
G75*
G02*
X144750000Y-107328262I0J271738D01*
G01*
X144750000Y-106621738D01*
G75*
G02*
X145021738Y-106350000I271738J0D01*
G01*
G37*
G36*
G01*
X145021738Y-108400000D02*
X145978262Y-108400000D01*
G75*
G02*
X146250000Y-108671738I0J-271738D01*
G01*
X146250000Y-109378262D01*
G75*
G02*
X145978262Y-109650000I-271738J0D01*
G01*
X145021738Y-109650000D01*
G75*
G02*
X144750000Y-109378262I0J271738D01*
G01*
X144750000Y-108671738D01*
G75*
G02*
X145021738Y-108400000I271738J0D01*
G01*
G37*
%TD*%
%TO.C,C3*%
G36*
G01*
X143228262Y-109675000D02*
X142271738Y-109675000D01*
G75*
G02*
X142000000Y-109403262I0J271738D01*
G01*
X142000000Y-108696738D01*
G75*
G02*
X142271738Y-108425000I271738J0D01*
G01*
X143228262Y-108425000D01*
G75*
G02*
X143500000Y-108696738I0J-271738D01*
G01*
X143500000Y-109403262D01*
G75*
G02*
X143228262Y-109675000I-271738J0D01*
G01*
G37*
G36*
G01*
X143228262Y-107625000D02*
X142271738Y-107625000D01*
G75*
G02*
X142000000Y-107353262I0J271738D01*
G01*
X142000000Y-106646738D01*
G75*
G02*
X142271738Y-106375000I271738J0D01*
G01*
X143228262Y-106375000D01*
G75*
G02*
X143500000Y-106646738I0J-271738D01*
G01*
X143500000Y-107353262D01*
G75*
G02*
X143228262Y-107625000I-271738J0D01*
G01*
G37*
%TD*%
%TO.C,C4*%
G36*
G01*
X139521738Y-108425000D02*
X140478262Y-108425000D01*
G75*
G02*
X140750000Y-108696738I0J-271738D01*
G01*
X140750000Y-109403262D01*
G75*
G02*
X140478262Y-109675000I-271738J0D01*
G01*
X139521738Y-109675000D01*
G75*
G02*
X139250000Y-109403262I0J271738D01*
G01*
X139250000Y-108696738D01*
G75*
G02*
X139521738Y-108425000I271738J0D01*
G01*
G37*
G36*
G01*
X139521738Y-106375000D02*
X140478262Y-106375000D01*
G75*
G02*
X140750000Y-106646738I0J-271738D01*
G01*
X140750000Y-107353262D01*
G75*
G02*
X140478262Y-107625000I-271738J0D01*
G01*
X139521738Y-107625000D01*
G75*
G02*
X139250000Y-107353262I0J271738D01*
G01*
X139250000Y-106646738D01*
G75*
G02*
X139521738Y-106375000I271738J0D01*
G01*
G37*
%TD*%
D11*
%TO.C,D2*%
X151250000Y-99250000D03*
X151250000Y-96750000D03*
%TD*%
D12*
%TO.C,J2*%
X156250000Y-101250000D03*
D13*
X158775000Y-98725000D03*
X153725000Y-98725000D03*
X153725000Y-103775000D03*
X158775000Y-103775000D03*
%TD*%
D11*
%TO.C,J3*%
X147000000Y-123000000D03*
D14*
X145730000Y-123000000D03*
X144460000Y-123000000D03*
X143190000Y-123000000D03*
X141920000Y-123000000D03*
X140650000Y-123000000D03*
%TD*%
%TO.C,R3*%
G36*
G01*
X148125000Y-101728262D02*
X148125000Y-100771738D01*
G75*
G02*
X148396738Y-100500000I271738J0D01*
G01*
X149103262Y-100500000D01*
G75*
G02*
X149375000Y-100771738I0J-271738D01*
G01*
X149375000Y-101728262D01*
G75*
G02*
X149103262Y-102000000I-271738J0D01*
G01*
X148396738Y-102000000D01*
G75*
G02*
X148125000Y-101728262I0J271738D01*
G01*
G37*
G36*
G01*
X150175000Y-101728262D02*
X150175000Y-100771738D01*
G75*
G02*
X150446738Y-100500000I271738J0D01*
G01*
X151153262Y-100500000D01*
G75*
G02*
X151425000Y-100771738I0J-271738D01*
G01*
X151425000Y-101728262D01*
G75*
G02*
X151153262Y-102000000I-271738J0D01*
G01*
X150446738Y-102000000D01*
G75*
G02*
X150175000Y-101728262I0J271738D01*
G01*
G37*
%TD*%
%TO.C,R4*%
G36*
G01*
X144125000Y-101728262D02*
X144125000Y-100771738D01*
G75*
G02*
X144396738Y-100500000I271738J0D01*
G01*
X145103262Y-100500000D01*
G75*
G02*
X145375000Y-100771738I0J-271738D01*
G01*
X145375000Y-101728262D01*
G75*
G02*
X145103262Y-102000000I-271738J0D01*
G01*
X144396738Y-102000000D01*
G75*
G02*
X144125000Y-101728262I0J271738D01*
G01*
G37*
G36*
G01*
X146175000Y-101728262D02*
X146175000Y-100771738D01*
G75*
G02*
X146446738Y-100500000I271738J0D01*
G01*
X147153262Y-100500000D01*
G75*
G02*
X147425000Y-100771738I0J-271738D01*
G01*
X147425000Y-101728262D01*
G75*
G02*
X147153262Y-102000000I-271738J0D01*
G01*
X146446738Y-102000000D01*
G75*
G02*
X146175000Y-101728262I0J271738D01*
G01*
G37*
%TD*%
%TO.C,R5*%
G36*
G01*
X150875000Y-94478262D02*
X150875000Y-93521738D01*
G75*
G02*
X151146738Y-93250000I271738J0D01*
G01*
X151853262Y-93250000D01*
G75*
G02*
X152125000Y-93521738I0J-271738D01*
G01*
X152125000Y-94478262D01*
G75*
G02*
X151853262Y-94750000I-271738J0D01*
G01*
X151146738Y-94750000D01*
G75*
G02*
X150875000Y-94478262I0J271738D01*
G01*
G37*
G36*
G01*
X148825000Y-94478262D02*
X148825000Y-93521738D01*
G75*
G02*
X149096738Y-93250000I271738J0D01*
G01*
X149803262Y-93250000D01*
G75*
G02*
X150075000Y-93521738I0J-271738D01*
G01*
X150075000Y-94478262D01*
G75*
G02*
X149803262Y-94750000I-271738J0D01*
G01*
X149096738Y-94750000D01*
G75*
G02*
X148825000Y-94478262I0J271738D01*
G01*
G37*
%TD*%
D15*
%TO.C,U1*%
X146700000Y-96900000D03*
X144800000Y-96900000D03*
X144800000Y-99100000D03*
X145750000Y-99100000D03*
X146700000Y-99100000D03*
%TD*%
D16*
%TO.C,U2*%
X142600000Y-97000000D03*
X142600000Y-97950000D03*
X142600000Y-98900000D03*
X140400000Y-98900000D03*
X140400000Y-97000000D03*
%TD*%
D17*
%TO.C,J1*%
X138900000Y-93700000D03*
D18*
X141440000Y-93700000D03*
X143980000Y-93700000D03*
X146520000Y-93700000D03*
%TD*%
D11*
%TO.C,TP1*%
X150800000Y-104400000D03*
%TD*%
%TO.C,TP2*%
X140600000Y-101400000D03*
%TD*%
M02*
