#define 3dfan_3_width 32
#define 3dfan_3_height 16
static char 3dfan_3_bits[] = {
  0x00, 0x00, 0x00, 0x00, 0x00, 0x00, 0x00, 0x00, 0x00, 0x00, 0x00, 0x00, 
  0xC0, 0x3F, 0xF0, 0x03, 0xF0, 0x7F, 0xF8, 0x07, 0xE0, 0x8F, 0xF1, 0x07, 
  0x00, 0xC0, 0xF3, 0x01, 0x00, 0x00, 0x00, 0x00, 0x00, 0xF0, 0x03, 0x00, 
  0x00, 0xF8, 0x03, 0x00, 0x00, 0xFC, 0x0F, 0x00, 0x00, 0xFC, 0x1F, 0x00, 
  0x00, 0xF8, 0x1F, 0x00, 0x00, 0xF0, 0x0F, 0x00, 0x00, 0xC0, 0x03, 0x00, 
  0x00, 0x00, 0x00, 0x00, };
