#define 3dfan_2_width 32
#define 3dfan_2_height 16
static char 3dfan_2_bits[] = {
  0x00, 0x00, 0x00, 0x00, 0x00, 0x00, 0x00, 0x00, 0x00, 0x00, 0x7E, 0x00, 
  0x00, 0x00, 0xFE, 0x00, 0xC0, 0x07, 0x7E, 0x00, 0xF8, 0x8F, 0x11, 0x00, 
  0xFC, 0xCF, 0x03, 0x00, 0xFC, 0x01, 0x00, 0x00, 0x00, 0x80, 0x3F, 0x00, 
  0x00, 0x80, 0xFF, 0x01, 0x00, 0x80, 0xFF, 0x03, 0x00, 0x80, 0xFF, 0x07, 
  0x00, 0x00, 0xFE, 0x03, 0x00, 0x00, 0xF0, 0x00, 0x00, 0x00, 0x00, 0x00, 
  0x00, 0x00, 0x00, 0x00, };
