#define 3dfan_1_width 32
#define 3dfan_1_height 16
static char 3dfan_1_bits[] = {
  0x00, 0x00, 0x00, 0x00, 0x00, 0xC0, 0x01, 0x00, 0x00, 0xE0, 0x0F, 0x00, 
  0x00, 0xC0, 0x0F, 0x00, 0x00, 0x00, 0x06, 0x00, 0x00, 0x80, 0x01, 0x00, 
  0xC0, 0xCF, 0x03, 0x00, 0xF0, 0x0F, 0xF0, 0x0F, 0xF8, 0x0F, 0xFE, 0x1F, 
  0xFC, 0x07, 0xFC, 0x3F, 0xF8, 0x01, 0xF0, 0x1F, 0x00, 0x00, 0x00, 0x00, 
  0x00, 0x00, 0x00, 0x00, 0x00, 0x00, 0x00, 0x00, 0x00, 0x00, 0x00, 0x00, 
  0x00, 0x00, 0x00, 0x00, };
