#define 3dfan_4_width 32
#define 3dfan_4_height 16
static char 3dfan_4_bits[] = {
  0x00, 0x00, 0x00, 0x00, 0x00, 0x00, 0x00, 0x00, 0x00, 0xFE, 0x00, 0x00, 
  0x00, 0xFF, 0x01, 0x00, 0x00, 0x78, 0x00, 0x00, 0x00, 0x80, 0xE1, 0x1F, 
  0x00, 0xC0, 0xF3, 0x3F, 0x00, 0x0E, 0xF0, 0x1F, 0x80, 0x7F, 0xC0, 0x07, 
  0xC0, 0x7F, 0x00, 0x00, 0xC0, 0x7F, 0x00, 0x00, 0xE0, 0x7F, 0x00, 0x00, 
  0xC0, 0x3F, 0x00, 0x00, 0x80, 0x0F, 0x00, 0x00, 0x00, 0x00, 0x00, 0x00, 
  0x00, 0x00, 0x00, 0x00, };
